<?xml version="1.0" encoding="utf-8" standalone="no"?>
<!DOCTYPE svg PUBLIC "-//W3C//DTD SVG 1.1//EN"
  "http://www.w3.org/Graphics/SVG/1.1/DTD/svg11.dtd">
<!-- Created with matplotlib (https://matplotlib.org/) -->
<svg height="288pt" version="1.1" viewBox="0 0 432 288" width="432pt" xmlns="http://www.w3.org/2000/svg" xmlns:xlink="http://www.w3.org/1999/xlink">
 <metadata>
  <rdf:RDF xmlns:cc="http://creativecommons.org/ns#" xmlns:dc="http://purl.org/dc/elements/1.1/" xmlns:rdf="http://www.w3.org/1999/02/22-rdf-syntax-ns#">
   <cc:Work>
    <dc:type rdf:resource="http://purl.org/dc/dcmitype/StillImage"/>
    <dc:date>2020-12-19T01:02:50.566917</dc:date>
    <dc:format>image/svg+xml</dc:format>
    <dc:creator>
     <cc:Agent>
      <dc:title>Matplotlib v3.3.3, https://matplotlib.org/</dc:title>
     </cc:Agent>
    </dc:creator>
   </cc:Work>
  </rdf:RDF>
 </metadata>
 <defs>
  <style type="text/css">*{stroke-linecap:butt;stroke-linejoin:round;}</style>
 </defs>
 <g id="figure_1">
  <g id="patch_1">
   <path d="M 0 288 
L 432 288 
L 432 0 
L 0 0 
z
" style="fill:#ffffff;"/>
  </g>
  <g id="axes_1">
   <g id="patch_2">
    <path d="M 54 249.84 
L 388.8 249.84 
L 388.8 26.64 
L 54 26.64 
z
" style="fill:#ffffff;"/>
   </g>
   <g id="line2d_1">
    <path clip-path="url(#pc061ebd06e)" style="fill:none;stroke:#4c4c4c;stroke-linecap:square;stroke-width:1.5;"/>
   </g>
   <g id="line2d_2">
    <path clip-path="url(#pc061ebd06e)" style="fill:none;stroke:#3b3b3b;stroke-linecap:square;stroke-width:1.5;"/>
   </g>
   <g id="line2d_3">
    <path clip-path="url(#pc061ebd06e)" d="M 0 0 
" style="fill:none;stroke:#c5c5c5;stroke-linecap:square;stroke-width:1.5;"/>
   </g>
   <g id="line2d_4">
    <path clip-path="url(#pc061ebd06e)" style="fill:none;stroke:#434343;stroke-linecap:square;stroke-width:1.5;"/>
   </g>
   <g id="line2d_5">
    <path clip-path="url(#pc061ebd06e)" d="M 0 0 
" style="fill:none;stroke:#7a7a7a;stroke-linecap:square;stroke-width:1.5;"/>
   </g>
   <g id="line2d_6">
    <path clip-path="url(#pc061ebd06e)" d="M 0 0 
" style="fill:none;stroke:#b8b8b8;stroke-linecap:square;stroke-width:1.5;"/>
   </g>
   <g id="line2d_7">
    <path clip-path="url(#pc061ebd06e)" style="fill:none;stroke:#a9a9a9;stroke-linecap:square;stroke-width:1.5;"/>
   </g>
   <g id="line2d_8">
    <path clip-path="url(#pc061ebd06e)" d="M 429.313487 289 
L 425.613783 286.592682 
L 420.92902 283.56136 
L 416.279032 280.477357 
L 411.626266 277.397654 
L 406.948481 274.356502 
L 402.344123 271.207572 
L 397.72261 268.08305 
L 393.001741 265.112457 
L 388.307793 262.095154 
L 383.633746 259.047234 
L 378.934198 256.040064 
L 374.246673 253.01256 
L 369.559148 249.985056 
L 364.873944 246.95397 
L 360.199633 243.906104 
L 355.507494 240.886131 
" style="fill:none;stroke:#3c3c3c;stroke-linecap:square;stroke-width:1.5;"/>
   </g>
   <g id="line2d_9">
    <path clip-path="url(#pc061ebd06e)" d="M 433 246.956504 
L 431.756132 246.159863 
L 427.016174 243.144746 
L 422.276215 240.129628 
L 417.525991 237.130847 
L 412.791948 234.107182 
L 408.045201 231.102755 
L 403.293811 228.105714 
L 398.53739 225.116762 
L 393.789999 222.113564 
L 389.051965 219.095432 
L 384.305154 216.091142 
L 379.558342 213.086852 
L 374.811531 210.082561 
" style="fill:none;stroke:#868686;stroke-linecap:square;stroke-width:1.5;"/>
   </g>
   <g id="line2d_10">
    <path clip-path="url(#pc061ebd06e)" style="fill:none;stroke:#7a7a7a;stroke-linecap:square;stroke-width:1.5;"/>
   </g>
   <g id="line2d_11">
    <path clip-path="url(#pc061ebd06e)" d="M 0 0 
" style="fill:none;stroke:#c2c2c2;stroke-linecap:square;stroke-width:1.5;"/>
   </g>
   <g id="line2d_12">
    <path clip-path="url(#pc061ebd06e)" style="fill:none;stroke:#a2a2a2;stroke-linecap:square;stroke-width:1.5;"/>
   </g>
   <g id="line2d_13">
    <path clip-path="url(#pc061ebd06e)" style="fill:none;stroke:#ababab;stroke-linecap:square;stroke-width:1.5;"/>
   </g>
   <g id="line2d_14">
    <path clip-path="url(#pc061ebd06e)" style="fill:none;stroke:#343434;stroke-linecap:square;stroke-width:1.5;"/>
   </g>
   <g id="line2d_15">
    <path clip-path="url(#pc061ebd06e)" style="fill:none;stroke:#828282;stroke-linecap:square;stroke-width:1.5;"/>
   </g>
   <g id="line2d_16">
    <path clip-path="url(#pc061ebd06e)" style="fill:none;stroke:#c5c5c5;stroke-linecap:square;stroke-width:1.5;"/>
   </g>
   <g id="line2d_17">
    <path clip-path="url(#pc061ebd06e)" d="M -1 61.040793 
L 2.929058 63.588188 
L 7.626612 66.648128 
L 12.326558 69.70443 
L 17.033851 72.748528 
L 21.736267 75.798684 
L 26.411231 78.890376 
L 31.148505 81.886236 
L 35.880132 84.893357 
L 40.619828 87.887502 
L 45.334381 90.919938 
L 50.037591 93.970725 
L 54.724021 97.046883 
L 59.386713 100.158052 
L 64.105747 103.183464 
L 68.85665 106.15968 
L 73.586348 109.16941 
L 78.304901 112.19682 
L 82.996463 115.264465 
L 87.736453 118.2585 
L 92.476156 121.252988 
L 97.216305 124.246728 
L 101.958971 127.236362 
L 106.702881 130.224103 
L 111.420573 133.252297 
L 116.141743 136.275151 
L 120.884528 139.263541 
L 125.616993 142.269085 
L 130.368795 145.243894 
L 135.114074 148.229318 
L 139.822519 151.271997 
L 144.543927 154.294898 
L 149.26831 157.313386 
L 153.999036 160.32204 
L 158.742231 163.307191 
L 163.498103 166.272665 
L 168.216074 169.301269 
L 172.948134 172.307403 
L 177.665542 175.336708 
L 182.383704 178.36456 
L 187.14238 181.3264 
L 191.910411 184.273968 
L 196.679546 187.219961 
L 201.419802 190.210765 
L 206.164429 193.194033 
L 210.926981 196.14809 
L 215.655448 199.158526 
L 220.383248 202.170186 
L 225.157993 205.105594 
L 229.879859 208.12773 
L 234.604752 211.145387 
L 239.310046 214.193364 
L 244.029199 217.219144 
L 248.718011 220.291831 
L 253.448361 223.298789 
L 258.168547 226.32325 
L 262.892208 229.342628 
L 267.598692 232.389041 
L 272.312323 235.424366 
L 277.025295 238.460256 
L 281.779918 241.430619 
L 286.509659 244.439944 
L 291.188392 247.527751 
L 295.906446 250.55536 
L 300.619703 253.591303 
L 305.331733 256.629125 
L 310.068742 259.627397 
L 314.793211 262.645511 
L 319.504601 265.683663 
L 324.296423 268.590963 
L 329.125519 271.437565 
L 333.97161 274.256495 
" style="fill:none;stroke:#aeaeae;stroke-linecap:square;stroke-width:1.5;"/>
   </g>
   <g id="line2d_18">
    <path clip-path="url(#pc061ebd06e)" d="M 0 0 
" style="fill:none;stroke:#5d5d5d;stroke-linecap:square;stroke-width:1.5;"/>
   </g>
   <g id="line2d_19">
    <path clip-path="url(#pc061ebd06e)" style="fill:none;stroke:#a3a3a3;stroke-linecap:square;stroke-width:1.5;"/>
   </g>
   <g id="line2d_20">
    <path clip-path="url(#pc061ebd06e)" style="fill:none;stroke:#565656;stroke-linecap:square;stroke-width:1.5;"/>
   </g>
   <g id="line2d_21">
    <path clip-path="url(#pc061ebd06e)" style="fill:none;stroke:#a9a9a9;stroke-linecap:square;stroke-width:1.5;"/>
   </g>
   <g id="line2d_22">
    <path clip-path="url(#pc061ebd06e)" d="M 0 0 
" style="fill:none;stroke:#868686;stroke-linecap:square;stroke-width:1.5;"/>
   </g>
   <g id="line2d_23">
    <path clip-path="url(#pc061ebd06e)" style="fill:none;stroke:#626262;stroke-linecap:square;stroke-width:1.5;"/>
   </g>
   <g id="line2d_24">
    <path clip-path="url(#pc061ebd06e)" style="fill:none;stroke:#565656;stroke-linecap:square;stroke-width:1.5;"/>
   </g>
   <g id="line2d_25">
    <path clip-path="url(#pc061ebd06e)" style="fill:none;stroke:#b9b9b9;stroke-linecap:square;stroke-width:1.5;"/>
   </g>
   <g id="line2d_26">
    <path clip-path="url(#pc061ebd06e)" style="fill:none;stroke:#cacaca;stroke-linecap:square;stroke-width:1.5;"/>
   </g>
   <g id="line2d_27">
    <path clip-path="url(#pc061ebd06e)" style="fill:none;stroke:#aeaeae;stroke-linecap:square;stroke-width:1.5;"/>
   </g>
   <g id="line2d_28">
    <path clip-path="url(#pc061ebd06e)" d="M 0 0 
" style="fill:none;stroke:#999999;stroke-linecap:square;stroke-width:1.5;"/>
   </g>
   <g id="line2d_29">
    <path clip-path="url(#pc061ebd06e)" d="M 374.755736 210.138366 
L 370.001748 207.138615 
L 365.259854 204.119299 
L 360.524343 201.089443 
L 355.786869 198.062614 
L 351.049395 195.035786 
L 346.311921 192.008957 
L 341.574447 188.982129 
L 336.836973 185.9553 
L 332.095108 182.935403 
L 327.3435 179.930884 
L 322.606106 176.903979 
L 317.865139 173.882621 
L 313.124172 170.861262 
L 308.376039 167.851274 
L 303.643851 164.816303 
L 298.90813 161.786779 
L 294.160063 158.776802 
L 289.425015 155.748864 
L 284.739605 152.644741 
L 279.995948 149.627703 
L 275.25229 146.610665 
L 270.512444 143.587805 
L 265.76373 140.578966 
L 261.004402 137.586809 
L 256.283482 134.538763 
L 251.528416 131.541081 
L 246.77094 128.546574 
L 242.037212 125.51536 
L 237.294453 122.497935 
L 232.5817 119.432871 
L 227.82313 116.440464 
L 223.096763 113.396683 
L 218.347365 110.388898 
L 213.59575 107.384575 
L 208.844832 104.378973 
L 204.095001 101.371588 
L 199.356322 98.346706 
L 194.624178 95.311552 
L 189.892034 92.276398 
L 185.151577 89.254376 
L 180.40647 86.239639 
L 175.66524 83.218715 
L 170.933298 80.183496 
L 166.201259 77.148332 
L 161.465243 74.119219 
L 156.729228 71.090106 
L 151.984286 68.075236 
L 147.239875 65.059341 
L 142.485298 62.060529 
L 137.718791 59.081445 
L 132.993537 56.03562 
L 128.242844 53.029706 
L 123.486141 50.033189 
L 118.728248 47.038792 
L 113.989037 44.014929 
L 109.246109 40.996909 
L 104.489138 38.000864 
L 99.742221 34.988919 
L 94.997795 31.973049 
L 90.240538 28.977681 
L 85.490354 25.970917 
L 80.740353 22.963889 
L 75.976969 19.978218 
L 71.245627 16.942936 
L 66.544783 13.860082 
L 61.78585 10.868986 
L 56.997694 7.923036 
L 52.251686 4.911371 
L 47.496217 1.9131 
L 42.885601 -1 
" style="fill:none;stroke:#cacaca;stroke-linecap:square;stroke-width:1.5;"/>
   </g>
   <g id="line2d_30">
    <path clip-path="url(#pc061ebd06e)" d="M 433 203.888929 
L 432.46854 203.5503 
L 427.731116 200.531772 
L 422.993692 197.513244 
L 418.256268 194.494716 
L 413.516217 191.480318 
L 408.76748 188.479789 
L 404.008805 185.495132 
L 399.256995 182.499422 
L 394.506174 179.502122 
" style="fill:none;stroke:#9b9b9b;stroke-linecap:square;stroke-width:1.5;"/>
   </g>
   <g id="line2d_31">
    <path clip-path="url(#pc061ebd06e)" style="fill:none;stroke:#a8a8a8;stroke-linecap:square;stroke-width:1.5;"/>
   </g>
   <g id="line2d_32">
    <path clip-path="url(#pc061ebd06e)" style="fill:none;stroke:#545454;stroke-linecap:square;stroke-width:1.5;"/>
   </g>
   <g id="line2d_33">
    <path clip-path="url(#pc061ebd06e)" style="fill:none;stroke:#b7b7b7;stroke-linecap:square;stroke-width:1.5;"/>
   </g>
   <g id="line2d_34">
    <path clip-path="url(#pc061ebd06e)" style="fill:none;stroke:#c5c5c5;stroke-linecap:square;stroke-width:1.5;"/>
   </g>
   <g id="line2d_35">
    <path clip-path="url(#pc061ebd06e)" d="M 0 0 
" style="fill:none;stroke:#888888;stroke-linecap:square;stroke-width:1.5;"/>
   </g>
   <g id="line2d_36">
    <path clip-path="url(#pc061ebd06e)" d="M 0 0 
" style="fill:none;stroke:#3d3d3d;stroke-linecap:square;stroke-width:1.5;"/>
   </g>
   <g id="line2d_37">
    <path clip-path="url(#pc061ebd06e)" style="fill:none;stroke:#414141;stroke-linecap:square;stroke-width:1.5;"/>
   </g>
   <g id="line2d_38">
    <path clip-path="url(#pc061ebd06e)" style="fill:none;stroke:#555555;stroke-linecap:square;stroke-width:1.5;"/>
   </g>
   <g id="line2d_39">
    <path clip-path="url(#pc061ebd06e)" style="fill:none;stroke:#3f3f3f;stroke-linecap:square;stroke-width:1.5;"/>
   </g>
   <g id="line2d_40">
    <path clip-path="url(#pc061ebd06e)" style="fill:none;stroke:#6f6f6f;stroke-linecap:square;stroke-width:1.5;"/>
   </g>
   <g id="line2d_41">
    <path clip-path="url(#pc061ebd06e)" style="fill:none;stroke:#656565;stroke-linecap:square;stroke-width:1.5;"/>
   </g>
   <g id="line2d_42">
    <path clip-path="url(#pc061ebd06e)" style="fill:none;stroke:#808080;stroke-linecap:square;stroke-width:1.5;"/>
   </g>
   <g id="line2d_43">
    <path clip-path="url(#pc061ebd06e)" style="fill:none;stroke:#a7a7a7;stroke-linecap:square;stroke-width:1.5;"/>
   </g>
   <g id="line2d_44">
    <path clip-path="url(#pc061ebd06e)" d="M 0 0 
" style="fill:none;stroke:#a2a2a2;stroke-linecap:square;stroke-width:1.5;"/>
   </g>
   <g id="line2d_45">
    <path clip-path="url(#pc061ebd06e)" style="fill:none;stroke:#5c5c5c;stroke-linecap:square;stroke-width:1.5;"/>
   </g>
   <g id="line2d_46">
    <path clip-path="url(#pc061ebd06e)" style="fill:none;stroke:#696969;stroke-linecap:square;stroke-width:1.5;"/>
   </g>
   <g id="line2d_47">
    <path clip-path="url(#pc061ebd06e)" style="fill:none;stroke:#444444;stroke-linecap:square;stroke-width:1.5;"/>
   </g>
   <g id="line2d_48">
    <path clip-path="url(#pc061ebd06e)" d="M 0 0 
" style="fill:none;stroke:#5b5b5b;stroke-linecap:square;stroke-width:1.5;"/>
   </g>
   <g id="line2d_49">
    <path clip-path="url(#pc061ebd06e)" style="fill:none;stroke:#7f7f7f;stroke-linecap:square;stroke-width:1.5;"/>
   </g>
   <g id="line2d_50">
    <path clip-path="url(#pc061ebd06e)" d="M 0 0 
" style="fill:none;stroke:#bbbbbb;stroke-linecap:square;stroke-width:1.5;"/>
   </g>
   <g id="line2d_51">
    <path clip-path="url(#pc061ebd06e)" style="fill:none;stroke:#cccccc;stroke-linecap:square;stroke-width:1.5;"/>
   </g>
   <g id="line2d_52">
    <path clip-path="url(#pc061ebd06e)" style="fill:none;stroke:#7a7a7a;stroke-linecap:square;stroke-width:1.5;"/>
   </g>
   <g id="line2d_53">
    <path clip-path="url(#pc061ebd06e)" style="fill:none;stroke:#c8c8c8;stroke-linecap:square;stroke-width:1.5;"/>
   </g>
   <g id="line2d_54">
    <path clip-path="url(#pc061ebd06e)" d="M 355.507494 240.886131 
L 350.801795 237.894032 
L 346.09985 234.896069 
L 341.409645 231.879817 
L 336.711648 228.875839 
L 332.029183 225.847474 
L 327.333505 222.839826 
L 322.63377 219.838527 
L 317.916425 216.864773 
L 313.200697 213.888464 
L 308.490051 210.904122 
L 303.779404 207.919781 
L 299.066794 204.93856 
L 294.353133 201.95901 
L 289.659185 198.949263 
L 284.955337 195.954916 
L 280.220849 193.009508 
L 275.510968 190.024262 
L 270.805691 187.031709 
L 266.087204 184.060173 
L 261.373126 181.081441 
L 256.649049 178.118646 
L 251.927922 175.151677 
L 247.251973 172.115158 
L 242.550308 169.116978 
L 237.830824 166.147036 
L 233.086757 163.216555 
L 228.401546 160.19433 
L 223.694674 157.204234 
L 218.966542 154.247886 
L 214.266315 151.24801 
L 209.546644 148.281249 
L 204.82227 145.319778 
L 200.116131 142.329396 
L 195.39956 139.354572 
L 190.699714 136.353486 
L 186.025901 133.312243 
L 181.272245 130.398574 
L 176.552183 127.429173 
L 171.832931 124.458461 
L 167.130661 121.461262 
L 162.430141 118.462722 
L 157.719708 115.479263 
L 152.991144 112.524948 
L 148.275182 109.54969 
L 143.582185 106.53774 
L 138.856517 103.577461 
L 134.156943 100.576172 
L 129.472774 97.550449 
L 124.772883 94.54926 
L 120.041821 91.598288 
L 115.364705 88.562374 
L 110.694876 85.515133 
L 105.930697 82.617548 
L 101.20862 79.652471 
L 96.544332 76.596348 
L 91.819798 73.635484 
L 87.113491 70.644783 
L 82.398982 67.667744 
L 77.703131 64.660709 
L 72.94698 61.752119 
L 68.274905 58.708785 
L 63.562688 55.727174 
L 58.839678 52.76286 
L 54.161264 49.729526 
L 49.448709 46.748573 
L 44.744927 43.754062 
L 40.049791 40.750676 
L 35.336887 37.771688 
L 30.628387 34.784841 
L 25.919041 31.798445 
L 21.212944 28.809999 
L 16.523886 25.79698 
L 11.823577 22.796399 
L 7.113593 19.811377 
L 2.389406 16.848978 
L -1 14.696142 
" style="fill:none;stroke:#a4a4a4;stroke-linecap:square;stroke-width:1.5;"/>
   </g>
   <g id="line2d_55">
    <path clip-path="url(#pc061ebd06e)" d="M 394.506174 179.502122 
L 389.782981 176.516276 
L 385.059788 173.530429 
L 380.336604 170.544567 
L 375.614604 167.556838 
L 370.907368 164.545817 
L 366.200132 161.534796 
L 361.492895 158.523774 
L 356.785659 155.512753 
L 352.078423 152.501732 
L 347.371187 149.490711 
L 342.663951 146.47969 
L 337.956715 143.468669 
L 333.245434 140.464043 
L 328.526481 137.471549 
L 323.832247 134.440597 
L 319.131186 131.420238 
L 314.412065 128.427899 
L 309.675934 125.463213 
L 304.975409 122.441852 
L 300.275127 119.420106 
L 295.573267 116.400791 
L 290.870444 113.382962 
L 286.16044 110.376688 
L 281.402673 107.447269 
L 276.699666 104.430029 
L 271.986283 101.428687 
L 267.268369 98.43442 
L 262.538948 95.458625 
L 257.834566 92.443189 
L 253.126352 89.433748 
L 248.40922 86.438252 
L 243.692088 83.442756 
L 238.975688 80.446109 
L 234.262355 77.444632 
L 229.552896 74.437105 
L 224.837004 71.439991 
L 220.132241 68.425784 
L 215.445172 65.383843 
L 210.741259 62.368178 
L 206.050731 59.331203 
L 201.35726 56.298832 
L 196.633225 53.314405 
L 191.90949 50.329507 
L 187.208655 47.308787 
L 182.489436 44.316784 
L 177.774419 41.318294 
L 173.068839 38.305523 
L 168.354537 35.305594 
L 163.638393 32.308554 
L 158.919122 29.316548 
L 154.204765 26.316806 
L 149.478966 23.335105 
L 144.749267 20.359563 
L 140.01862 17.385545 
L 135.280519 14.423409 
L 130.548265 11.451855 
L 125.816193 8.480013 
L 121.081206 5.512956 
L 116.363475 2.518428 
L 111.646919 -0.477966 
L 110.827792 -1 
" style="fill:none;stroke:#aeaeae;stroke-linecap:square;stroke-width:1.5;"/>
   </g>
   <g id="line2d_56">
    <path clip-path="url(#pc061ebd06e)" style="fill:none;stroke:#818181;stroke-linecap:square;stroke-width:1.5;"/>
   </g>
   <g id="line2d_57">
    <path clip-path="url(#pc061ebd06e)" style="fill:none;stroke:#c1c1c1;stroke-linecap:square;stroke-width:1.5;"/>
   </g>
   <g id="line2d_58">
    <path clip-path="url(#pc061ebd06e)" style="fill:none;stroke:#5a5a5a;stroke-linecap:square;stroke-width:1.5;"/>
   </g>
   <g id="line2d_59">
    <path clip-path="url(#pc061ebd06e)" d="M -1 125.082237 
L 1.849061 127.091099 
L 6.383162 130.388923 
L 10.93797 133.665612 
L 15.51501 136.910567 
L 20.085599 140.164162 
L 24.682877 143.376984 
L 29.27101 146.604462 
L 33.851184 149.840907 
L 38.433961 153.071099 
L 42.997337 156.331485 
L 47.554816 159.59787 
L 52.100813 162.878994 
L 56.679859 166.119505 
L 61.26569 169.351531 
L 65.795794 172.652064 
L 70.358264 175.912412 
L 74.955933 179.12924 
L 79.53145 182.374721 
L 84.094435 185.635909 
L 88.666837 188.881391 
L 93.228078 192.145198 
L 97.787572 195.412205 
L 102.347067 198.679209 
L 106.899507 201.956708 
L 111.469591 205.206004 
L 116.029038 208.472999 
L 120.597342 211.726131 
L 125.149426 215.002238 
L 129.692687 218.289446 
L 134.249848 221.559957 
L 138.827714 224.805889 
L 143.389244 228.077248 
L 148.00013 231.271731 
L 152.580297 234.511 
L 157.168132 237.738316 
L 161.785803 240.928479 
L 166.527858 243.936003 
L 171.326716 246.85423 
L 176.110767 249.796834 
L 180.845339 252.817257 
L 185.554607 255.87829 
L 190.264544 258.933285 
L 195.023522 261.914013 
L 199.768715 264.918008 
L 204.503554 267.939773 
L 209.238651 270.960974 
L 213.972555 273.983983 
L 218.699785 277.017351 
L 223.428235 280.048744 
L 228.180459 283.043178 
L 232.931413 286.039712 
L 237.562354 289 
" style="fill:none;stroke:#ababab;stroke-linecap:square;stroke-width:1.5;"/>
   </g>
   <g id="line2d_60">
    <path clip-path="url(#pc061ebd06e)" style="fill:none;stroke:#4c4c4c;stroke-linecap:square;stroke-width:1.5;"/>
   </g>
   <g id="line2d_61">
    <path clip-path="url(#pc061ebd06e)" d="M 0 0 
" style="fill:none;stroke:#c1c1c1;stroke-linecap:square;stroke-width:1.5;"/>
   </g>
   <g id="line2d_62">
    <path clip-path="url(#pc061ebd06e)" style="fill:none;stroke:#474747;stroke-linecap:square;stroke-width:1.5;"/>
   </g>
   <g id="line2d_63">
    <path clip-path="url(#pc061ebd06e)" style="fill:none;stroke:#7d7d7d;stroke-linecap:square;stroke-width:1.5;"/>
   </g>
   <g id="line2d_64">
    <path clip-path="url(#pc061ebd06e)" style="fill:none;stroke:#686868;stroke-linecap:square;stroke-width:1.5;"/>
   </g>
   <g id="line2d_65">
    <path clip-path="url(#pc061ebd06e)" style="fill:none;stroke:#c8c8c8;stroke-linecap:square;stroke-width:1.5;"/>
   </g>
   <g id="line2d_66">
    <path clip-path="url(#pc061ebd06e)" style="fill:none;stroke:#797979;stroke-linecap:square;stroke-width:1.5;"/>
   </g>
   <g id="line2d_67">
    <path clip-path="url(#pc061ebd06e)" style="fill:none;stroke:#c7c7c7;stroke-linecap:square;stroke-width:1.5;"/>
   </g>
   <g id="line2d_68">
    <path clip-path="url(#pc061ebd06e)" style="fill:none;stroke:#898989;stroke-linecap:square;stroke-width:1.5;"/>
   </g>
   <g id="line2d_69">
    <path clip-path="url(#pc061ebd06e)" style="fill:none;stroke:#666666;stroke-linecap:square;stroke-width:1.5;"/>
   </g>
   <g id="line2d_70">
    <path clip-path="url(#pc061ebd06e)" style="fill:none;stroke:#9f9f9f;stroke-linecap:square;stroke-width:1.5;"/>
   </g>
   <g id="line2d_71">
    <path clip-path="url(#pc061ebd06e)" style="fill:none;stroke:#444444;stroke-linecap:square;stroke-width:1.5;"/>
   </g>
   <g id="line2d_72">
    <path clip-path="url(#pc061ebd06e)" d="M 333.91581 274.2565 
L 338.619278 277.26443 
L 343.338887 280.247929 
L 348.04755 283.248815 
L 352.707275 286.324975 
L 356.798137 289 
" style="fill:none;stroke:#bbbbbb;stroke-linecap:square;stroke-width:1.5;"/>
   </g>
   <g id="line2d_73">
    <path clip-path="url(#pc061ebd06e)" d="M 0 0 
" style="fill:none;stroke:#989898;stroke-linecap:square;stroke-width:1.5;"/>
   </g>
   <g id="line2d_74">
    <path clip-path="url(#pc061ebd06e)" style="fill:none;stroke:#686868;stroke-linecap:square;stroke-width:1.5;"/>
   </g>
   <g id="line2d_75">
    <path clip-path="url(#pc061ebd06e)" style="fill:none;stroke:#464646;stroke-linecap:square;stroke-width:1.5;"/>
   </g>
   <g id="line2d_76">
    <path clip-path="url(#pc061ebd06e)" style="fill:none;stroke:#434343;stroke-linecap:square;stroke-width:1.5;"/>
   </g>
   <g id="PathCollection_1">
    <defs>
     <path d="M 0 3 
C 0.795609 3 1.55874 2.683901 2.12132 2.12132 
C 2.683901 1.55874 3 0.795609 3 0 
C 3 -0.795609 2.683901 -1.55874 2.12132 -2.12132 
C 1.55874 -2.683901 0.795609 -3 0 -3 
C -0.795609 -3 -1.55874 -2.683901 -2.12132 -2.12132 
C -2.683901 -1.55874 -3 -0.795609 -3 0 
C -3 0.795609 -2.683901 1.55874 -2.12132 2.12132 
C -1.55874 2.683901 -0.795609 3 0 3 
z
" id="mdb33276de2" style="stroke:#000000;"/>
    </defs>
    <g clip-path="url(#pc061ebd06e)">
     <use style="fill:#00ffff;stroke:#000000;" x="284.273086" xlink:href="#mdb33276de2" y="177.185566"/>
    </g>
   </g>
   <g id="PathCollection_2">
    <g clip-path="url(#pc061ebd06e)">
     <use style="fill:#00ffff;stroke:#000000;" x="271.008325" xlink:href="#mdb33276de2" y="169.186113"/>
    </g>
   </g>
   <g id="PathCollection_3">
    <g clip-path="url(#pc061ebd06e)">
     <use style="fill:#00ffff;stroke:#000000;" x="258.162473" xlink:href="#mdb33276de2" y="161.336514"/>
    </g>
   </g>
   <g id="PathCollection_4">
    <g clip-path="url(#pc061ebd06e)">
     <use style="fill:#00ffff;stroke:#000000;" x="245.578865" xlink:href="#mdb33276de2" y="153.162686"/>
    </g>
   </g>
   <g id="PathCollection_5">
    <g clip-path="url(#pc061ebd06e)">
     <use style="fill:#00ffff;stroke:#000000;" x="233.099473" xlink:href="#mdb33276de2" y="145.36894"/>
    </g>
   </g>
   <g id="PathCollection_6">
    <g clip-path="url(#pc061ebd06e)">
     <use style="fill:#00ffff;stroke:#000000;" x="220.722935" xlink:href="#mdb33276de2" y="137.831309"/>
    </g>
   </g>
   <g id="PathCollection_7">
    <g clip-path="url(#pc061ebd06e)">
     <use style="fill:#00ffff;stroke:#000000;" x="208.457424" xlink:href="#mdb33276de2" y="130.123389"/>
    </g>
   </g>
   <g id="PathCollection_8">
    <g clip-path="url(#pc061ebd06e)">
     <use style="fill:#00ffff;stroke:#000000;" x="196.36697" xlink:href="#mdb33276de2" y="122.791465"/>
    </g>
   </g>
   <g id="PathCollection_9">
    <g clip-path="url(#pc061ebd06e)">
     <use style="fill:#00ffff;stroke:#000000;" x="184.523093" xlink:href="#mdb33276de2" y="115.27563"/>
    </g>
   </g>
   <g id="PathCollection_10">
    <g clip-path="url(#pc061ebd06e)">
     <use style="fill:#00ffff;stroke:#000000;" x="172.502117" xlink:href="#mdb33276de2" y="107.815649"/>
    </g>
   </g>
   <g id="PathCollection_11">
    <g clip-path="url(#pc061ebd06e)">
     <use style="fill:#00ffff;stroke:#000000;" x="160.71137" xlink:href="#mdb33276de2" y="100.555928"/>
    </g>
   </g>
   <g id="PathCollection_12">
    <g clip-path="url(#pc061ebd06e)"/>
   </g>
   <g id="patch_3">
    <path clip-path="url(#pc061ebd06e)" d="M -144.88603 -75.403028 
L -121.542817 -70.572532 
L -125.859988 -63.729556 
L 153.140012 112.288983 
L 152.842277 112.760912 
L -126.157723 -63.257627 
L -130.474894 -56.414651 
z
" style="fill:#0424ff;stroke:#0424ff;stroke-linejoin:miter;stroke-width:2;"/>
   </g>
   <g id="patch_4">
    <path clip-path="url(#pc061ebd06e)" d="M 264.591144 112.524948 
C 264.591144 88.336727 256.7273 64.79194 242.191332 45.458662 
C 227.655363 26.125384 207.220616 12.032189 183.983857 5.314819 
C 160.747099 -1.402552 135.944576 -0.386719 113.334968 8.208373 
C 90.725359 16.803466 71.511546 32.520541 58.605271 52.977766 
" style="fill:none;stroke:#0424ff;stroke-dasharray:6.4,1.6,1,1.6;stroke-dashoffset:0;stroke-linejoin:miter;"/>
   </g>
   <g id="matplotlib.axis_1">
    <g id="xtick_1">
     <g id="line2d_77">
      <defs>
       <path d="M 0 0 
L 0 3.5 
" id="mc1177d2f8d" style="stroke:#000000;stroke-width:0.8;"/>
      </defs>
      <g>
       <use style="stroke:#000000;stroke-width:0.8;" x="75.711731" xlink:href="#mc1177d2f8d" y="249.84"/>
      </g>
     </g>
     <g id="text_1">
      <!-- 690 -->
      <g transform="translate(66.167981 264.438437)scale(0.1 -0.1)">
       <defs>
        <path d="M 33.015625 40.375 
Q 26.375 40.375 22.484375 35.828125 
Q 18.609375 31.296875 18.609375 23.390625 
Q 18.609375 15.53125 22.484375 10.953125 
Q 26.375 6.390625 33.015625 6.390625 
Q 39.65625 6.390625 43.53125 10.953125 
Q 47.40625 15.53125 47.40625 23.390625 
Q 47.40625 31.296875 43.53125 35.828125 
Q 39.65625 40.375 33.015625 40.375 
z
M 52.59375 71.296875 
L 52.59375 62.3125 
Q 48.875 64.0625 45.09375 64.984375 
Q 41.3125 65.921875 37.59375 65.921875 
Q 27.828125 65.921875 22.671875 59.328125 
Q 17.53125 52.734375 16.796875 39.40625 
Q 19.671875 43.65625 24.015625 45.921875 
Q 28.375 48.1875 33.59375 48.1875 
Q 44.578125 48.1875 50.953125 41.515625 
Q 57.328125 34.859375 57.328125 23.390625 
Q 57.328125 12.15625 50.6875 5.359375 
Q 44.046875 -1.421875 33.015625 -1.421875 
Q 20.359375 -1.421875 13.671875 8.265625 
Q 6.984375 17.96875 6.984375 36.375 
Q 6.984375 53.65625 15.1875 63.9375 
Q 23.390625 74.21875 37.203125 74.21875 
Q 40.921875 74.21875 44.703125 73.484375 
Q 48.484375 72.75 52.59375 71.296875 
z
" id="DejaVuSans-54"/>
        <path d="M 10.984375 1.515625 
L 10.984375 10.5 
Q 14.703125 8.734375 18.5 7.8125 
Q 22.3125 6.890625 25.984375 6.890625 
Q 35.75 6.890625 40.890625 13.453125 
Q 46.046875 20.015625 46.78125 33.40625 
Q 43.953125 29.203125 39.59375 26.953125 
Q 35.25 24.703125 29.984375 24.703125 
Q 19.046875 24.703125 12.671875 31.3125 
Q 6.296875 37.9375 6.296875 49.421875 
Q 6.296875 60.640625 12.9375 67.421875 
Q 19.578125 74.21875 30.609375 74.21875 
Q 43.265625 74.21875 49.921875 64.515625 
Q 56.59375 54.828125 56.59375 36.375 
Q 56.59375 19.140625 48.40625 8.859375 
Q 40.234375 -1.421875 26.421875 -1.421875 
Q 22.703125 -1.421875 18.890625 -0.6875 
Q 15.09375 0.046875 10.984375 1.515625 
z
M 30.609375 32.421875 
Q 37.25 32.421875 41.125 36.953125 
Q 45.015625 41.5 45.015625 49.421875 
Q 45.015625 57.28125 41.125 61.84375 
Q 37.25 66.40625 30.609375 66.40625 
Q 23.96875 66.40625 20.09375 61.84375 
Q 16.21875 57.28125 16.21875 49.421875 
Q 16.21875 41.5 20.09375 36.953125 
Q 23.96875 32.421875 30.609375 32.421875 
z
" id="DejaVuSans-57"/>
        <path d="M 31.78125 66.40625 
Q 24.171875 66.40625 20.328125 58.90625 
Q 16.5 51.421875 16.5 36.375 
Q 16.5 21.390625 20.328125 13.890625 
Q 24.171875 6.390625 31.78125 6.390625 
Q 39.453125 6.390625 43.28125 13.890625 
Q 47.125 21.390625 47.125 36.375 
Q 47.125 51.421875 43.28125 58.90625 
Q 39.453125 66.40625 31.78125 66.40625 
z
M 31.78125 74.21875 
Q 44.046875 74.21875 50.515625 64.515625 
Q 56.984375 54.828125 56.984375 36.375 
Q 56.984375 17.96875 50.515625 8.265625 
Q 44.046875 -1.421875 31.78125 -1.421875 
Q 19.53125 -1.421875 13.0625 8.265625 
Q 6.59375 17.96875 6.59375 36.375 
Q 6.59375 54.828125 13.0625 64.515625 
Q 19.53125 74.21875 31.78125 74.21875 
z
" id="DejaVuSans-48"/>
       </defs>
       <use xlink:href="#DejaVuSans-54"/>
       <use x="63.623047" xlink:href="#DejaVuSans-57"/>
       <use x="127.246094" xlink:href="#DejaVuSans-48"/>
      </g>
     </g>
    </g>
    <g id="xtick_2">
     <g id="line2d_78">
      <g>
       <use style="stroke:#000000;stroke-width:0.8;" x="131.511731" xlink:href="#mc1177d2f8d" y="249.84"/>
      </g>
     </g>
     <g id="text_2">
      <!-- 695 -->
      <g transform="translate(121.967981 264.438437)scale(0.1 -0.1)">
       <defs>
        <path d="M 10.796875 72.90625 
L 49.515625 72.90625 
L 49.515625 64.59375 
L 19.828125 64.59375 
L 19.828125 46.734375 
Q 21.96875 47.46875 24.109375 47.828125 
Q 26.265625 48.1875 28.421875 48.1875 
Q 40.625 48.1875 47.75 41.5 
Q 54.890625 34.8125 54.890625 23.390625 
Q 54.890625 11.625 47.5625 5.09375 
Q 40.234375 -1.421875 26.90625 -1.421875 
Q 22.3125 -1.421875 17.546875 -0.640625 
Q 12.796875 0.140625 7.71875 1.703125 
L 7.71875 11.625 
Q 12.109375 9.234375 16.796875 8.0625 
Q 21.484375 6.890625 26.703125 6.890625 
Q 35.15625 6.890625 40.078125 11.328125 
Q 45.015625 15.765625 45.015625 23.390625 
Q 45.015625 31 40.078125 35.4375 
Q 35.15625 39.890625 26.703125 39.890625 
Q 22.75 39.890625 18.8125 39.015625 
Q 14.890625 38.140625 10.796875 36.28125 
z
" id="DejaVuSans-53"/>
       </defs>
       <use xlink:href="#DejaVuSans-54"/>
       <use x="63.623047" xlink:href="#DejaVuSans-57"/>
       <use x="127.246094" xlink:href="#DejaVuSans-53"/>
      </g>
     </g>
    </g>
    <g id="xtick_3">
     <g id="line2d_79">
      <g>
       <use style="stroke:#000000;stroke-width:0.8;" x="187.311731" xlink:href="#mc1177d2f8d" y="249.84"/>
      </g>
     </g>
     <g id="text_3">
      <!-- 700 -->
      <g transform="translate(177.767981 264.438437)scale(0.1 -0.1)">
       <defs>
        <path d="M 8.203125 72.90625 
L 55.078125 72.90625 
L 55.078125 68.703125 
L 28.609375 0 
L 18.3125 0 
L 43.21875 64.59375 
L 8.203125 64.59375 
z
" id="DejaVuSans-55"/>
       </defs>
       <use xlink:href="#DejaVuSans-55"/>
       <use x="63.623047" xlink:href="#DejaVuSans-48"/>
       <use x="127.246094" xlink:href="#DejaVuSans-48"/>
      </g>
     </g>
    </g>
    <g id="xtick_4">
     <g id="line2d_80">
      <g>
       <use style="stroke:#000000;stroke-width:0.8;" x="243.111731" xlink:href="#mc1177d2f8d" y="249.84"/>
      </g>
     </g>
     <g id="text_4">
      <!-- 705 -->
      <g transform="translate(233.567981 264.438437)scale(0.1 -0.1)">
       <use xlink:href="#DejaVuSans-55"/>
       <use x="63.623047" xlink:href="#DejaVuSans-48"/>
       <use x="127.246094" xlink:href="#DejaVuSans-53"/>
      </g>
     </g>
    </g>
    <g id="xtick_5">
     <g id="line2d_81">
      <g>
       <use style="stroke:#000000;stroke-width:0.8;" x="298.911731" xlink:href="#mc1177d2f8d" y="249.84"/>
      </g>
     </g>
     <g id="text_5">
      <!-- 710 -->
      <g transform="translate(289.367981 264.438437)scale(0.1 -0.1)">
       <defs>
        <path d="M 12.40625 8.296875 
L 28.515625 8.296875 
L 28.515625 63.921875 
L 10.984375 60.40625 
L 10.984375 69.390625 
L 28.421875 72.90625 
L 38.28125 72.90625 
L 38.28125 8.296875 
L 54.390625 8.296875 
L 54.390625 0 
L 12.40625 0 
z
" id="DejaVuSans-49"/>
       </defs>
       <use xlink:href="#DejaVuSans-55"/>
       <use x="63.623047" xlink:href="#DejaVuSans-49"/>
       <use x="127.246094" xlink:href="#DejaVuSans-48"/>
      </g>
     </g>
    </g>
    <g id="xtick_6">
     <g id="line2d_82">
      <g>
       <use style="stroke:#000000;stroke-width:0.8;" x="354.711731" xlink:href="#mc1177d2f8d" y="249.84"/>
      </g>
     </g>
     <g id="text_6">
      <!-- 715 -->
      <g transform="translate(345.167981 264.438437)scale(0.1 -0.1)">
       <use xlink:href="#DejaVuSans-55"/>
       <use x="63.623047" xlink:href="#DejaVuSans-49"/>
       <use x="127.246094" xlink:href="#DejaVuSans-53"/>
      </g>
     </g>
    </g>
   </g>
   <g id="matplotlib.axis_2">
    <g id="ytick_1">
     <g id="line2d_83">
      <defs>
       <path d="M 0 0 
L -3.5 0 
" id="mce20426ced" style="stroke:#000000;stroke-width:0.8;"/>
      </defs>
      <g>
       <use style="stroke:#000000;stroke-width:0.8;" x="54" xlink:href="#mce20426ced" y="245.231323"/>
      </g>
     </g>
     <g id="text_7">
      <!-- −1385.0 -->
      <g transform="translate(3.629687 249.030542)scale(0.1 -0.1)">
       <defs>
        <path d="M 10.59375 35.5 
L 73.1875 35.5 
L 73.1875 27.203125 
L 10.59375 27.203125 
z
" id="DejaVuSans-8722"/>
        <path d="M 40.578125 39.3125 
Q 47.65625 37.796875 51.625 33 
Q 55.609375 28.21875 55.609375 21.1875 
Q 55.609375 10.40625 48.1875 4.484375 
Q 40.765625 -1.421875 27.09375 -1.421875 
Q 22.515625 -1.421875 17.65625 -0.515625 
Q 12.796875 0.390625 7.625 2.203125 
L 7.625 11.71875 
Q 11.71875 9.328125 16.59375 8.109375 
Q 21.484375 6.890625 26.8125 6.890625 
Q 36.078125 6.890625 40.9375 10.546875 
Q 45.796875 14.203125 45.796875 21.1875 
Q 45.796875 27.640625 41.28125 31.265625 
Q 36.765625 34.90625 28.71875 34.90625 
L 20.21875 34.90625 
L 20.21875 43.015625 
L 29.109375 43.015625 
Q 36.375 43.015625 40.234375 45.921875 
Q 44.09375 48.828125 44.09375 54.296875 
Q 44.09375 59.90625 40.109375 62.90625 
Q 36.140625 65.921875 28.71875 65.921875 
Q 24.65625 65.921875 20.015625 65.03125 
Q 15.375 64.15625 9.8125 62.3125 
L 9.8125 71.09375 
Q 15.4375 72.65625 20.34375 73.4375 
Q 25.25 74.21875 29.59375 74.21875 
Q 40.828125 74.21875 47.359375 69.109375 
Q 53.90625 64.015625 53.90625 55.328125 
Q 53.90625 49.265625 50.4375 45.09375 
Q 46.96875 40.921875 40.578125 39.3125 
z
" id="DejaVuSans-51"/>
        <path d="M 31.78125 34.625 
Q 24.75 34.625 20.71875 30.859375 
Q 16.703125 27.09375 16.703125 20.515625 
Q 16.703125 13.921875 20.71875 10.15625 
Q 24.75 6.390625 31.78125 6.390625 
Q 38.8125 6.390625 42.859375 10.171875 
Q 46.921875 13.96875 46.921875 20.515625 
Q 46.921875 27.09375 42.890625 30.859375 
Q 38.875 34.625 31.78125 34.625 
z
M 21.921875 38.8125 
Q 15.578125 40.375 12.03125 44.71875 
Q 8.5 49.078125 8.5 55.328125 
Q 8.5 64.0625 14.71875 69.140625 
Q 20.953125 74.21875 31.78125 74.21875 
Q 42.671875 74.21875 48.875 69.140625 
Q 55.078125 64.0625 55.078125 55.328125 
Q 55.078125 49.078125 51.53125 44.71875 
Q 48 40.375 41.703125 38.8125 
Q 48.828125 37.15625 52.796875 32.3125 
Q 56.78125 27.484375 56.78125 20.515625 
Q 56.78125 9.90625 50.3125 4.234375 
Q 43.84375 -1.421875 31.78125 -1.421875 
Q 19.734375 -1.421875 13.25 4.234375 
Q 6.78125 9.90625 6.78125 20.515625 
Q 6.78125 27.484375 10.78125 32.3125 
Q 14.796875 37.15625 21.921875 38.8125 
z
M 18.3125 54.390625 
Q 18.3125 48.734375 21.84375 45.5625 
Q 25.390625 42.390625 31.78125 42.390625 
Q 38.140625 42.390625 41.71875 45.5625 
Q 45.3125 48.734375 45.3125 54.390625 
Q 45.3125 60.0625 41.71875 63.234375 
Q 38.140625 66.40625 31.78125 66.40625 
Q 25.390625 66.40625 21.84375 63.234375 
Q 18.3125 60.0625 18.3125 54.390625 
z
" id="DejaVuSans-56"/>
        <path d="M 10.6875 12.40625 
L 21 12.40625 
L 21 0 
L 10.6875 0 
z
" id="DejaVuSans-46"/>
       </defs>
       <use xlink:href="#DejaVuSans-8722"/>
       <use x="83.789062" xlink:href="#DejaVuSans-49"/>
       <use x="147.412109" xlink:href="#DejaVuSans-51"/>
       <use x="211.035156" xlink:href="#DejaVuSans-56"/>
       <use x="274.658203" xlink:href="#DejaVuSans-53"/>
       <use x="338.28125" xlink:href="#DejaVuSans-46"/>
       <use x="370.068359" xlink:href="#DejaVuSans-48"/>
      </g>
     </g>
    </g>
    <g id="ytick_2">
     <g id="line2d_84">
      <g>
       <use style="stroke:#000000;stroke-width:0.8;" x="54" xlink:href="#mce20426ced" y="217.331323"/>
      </g>
     </g>
     <g id="text_8">
      <!-- −1382.5 -->
      <g transform="translate(3.629687 221.130542)scale(0.1 -0.1)">
       <defs>
        <path d="M 19.1875 8.296875 
L 53.609375 8.296875 
L 53.609375 0 
L 7.328125 0 
L 7.328125 8.296875 
Q 12.9375 14.109375 22.625 23.890625 
Q 32.328125 33.6875 34.8125 36.53125 
Q 39.546875 41.84375 41.421875 45.53125 
Q 43.3125 49.21875 43.3125 52.78125 
Q 43.3125 58.59375 39.234375 62.25 
Q 35.15625 65.921875 28.609375 65.921875 
Q 23.96875 65.921875 18.8125 64.3125 
Q 13.671875 62.703125 7.8125 59.421875 
L 7.8125 69.390625 
Q 13.765625 71.78125 18.9375 73 
Q 24.125 74.21875 28.421875 74.21875 
Q 39.75 74.21875 46.484375 68.546875 
Q 53.21875 62.890625 53.21875 53.421875 
Q 53.21875 48.921875 51.53125 44.890625 
Q 49.859375 40.875 45.40625 35.40625 
Q 44.1875 33.984375 37.640625 27.21875 
Q 31.109375 20.453125 19.1875 8.296875 
z
" id="DejaVuSans-50"/>
       </defs>
       <use xlink:href="#DejaVuSans-8722"/>
       <use x="83.789062" xlink:href="#DejaVuSans-49"/>
       <use x="147.412109" xlink:href="#DejaVuSans-51"/>
       <use x="211.035156" xlink:href="#DejaVuSans-56"/>
       <use x="274.658203" xlink:href="#DejaVuSans-50"/>
       <use x="338.28125" xlink:href="#DejaVuSans-46"/>
       <use x="370.068359" xlink:href="#DejaVuSans-53"/>
      </g>
     </g>
    </g>
    <g id="ytick_3">
     <g id="line2d_85">
      <g>
       <use style="stroke:#000000;stroke-width:0.8;" x="54" xlink:href="#mce20426ced" y="189.431323"/>
      </g>
     </g>
     <g id="text_9">
      <!-- −1380.0 -->
      <g transform="translate(3.629687 193.230542)scale(0.1 -0.1)">
       <use xlink:href="#DejaVuSans-8722"/>
       <use x="83.789062" xlink:href="#DejaVuSans-49"/>
       <use x="147.412109" xlink:href="#DejaVuSans-51"/>
       <use x="211.035156" xlink:href="#DejaVuSans-56"/>
       <use x="274.658203" xlink:href="#DejaVuSans-48"/>
       <use x="338.28125" xlink:href="#DejaVuSans-46"/>
       <use x="370.068359" xlink:href="#DejaVuSans-48"/>
      </g>
     </g>
    </g>
    <g id="ytick_4">
     <g id="line2d_86">
      <g>
       <use style="stroke:#000000;stroke-width:0.8;" x="54" xlink:href="#mce20426ced" y="161.531323"/>
      </g>
     </g>
     <g id="text_10">
      <!-- −1377.5 -->
      <g transform="translate(3.629687 165.330542)scale(0.1 -0.1)">
       <use xlink:href="#DejaVuSans-8722"/>
       <use x="83.789062" xlink:href="#DejaVuSans-49"/>
       <use x="147.412109" xlink:href="#DejaVuSans-51"/>
       <use x="211.035156" xlink:href="#DejaVuSans-55"/>
       <use x="274.658203" xlink:href="#DejaVuSans-55"/>
       <use x="338.28125" xlink:href="#DejaVuSans-46"/>
       <use x="370.068359" xlink:href="#DejaVuSans-53"/>
      </g>
     </g>
    </g>
    <g id="ytick_5">
     <g id="line2d_87">
      <g>
       <use style="stroke:#000000;stroke-width:0.8;" x="54" xlink:href="#mce20426ced" y="133.631323"/>
      </g>
     </g>
     <g id="text_11">
      <!-- −1375.0 -->
      <g transform="translate(3.629687 137.430542)scale(0.1 -0.1)">
       <use xlink:href="#DejaVuSans-8722"/>
       <use x="83.789062" xlink:href="#DejaVuSans-49"/>
       <use x="147.412109" xlink:href="#DejaVuSans-51"/>
       <use x="211.035156" xlink:href="#DejaVuSans-55"/>
       <use x="274.658203" xlink:href="#DejaVuSans-53"/>
       <use x="338.28125" xlink:href="#DejaVuSans-46"/>
       <use x="370.068359" xlink:href="#DejaVuSans-48"/>
      </g>
     </g>
    </g>
    <g id="ytick_6">
     <g id="line2d_88">
      <g>
       <use style="stroke:#000000;stroke-width:0.8;" x="54" xlink:href="#mce20426ced" y="105.731323"/>
      </g>
     </g>
     <g id="text_12">
      <!-- −1372.5 -->
      <g transform="translate(3.629687 109.530542)scale(0.1 -0.1)">
       <use xlink:href="#DejaVuSans-8722"/>
       <use x="83.789062" xlink:href="#DejaVuSans-49"/>
       <use x="147.412109" xlink:href="#DejaVuSans-51"/>
       <use x="211.035156" xlink:href="#DejaVuSans-55"/>
       <use x="274.658203" xlink:href="#DejaVuSans-50"/>
       <use x="338.28125" xlink:href="#DejaVuSans-46"/>
       <use x="370.068359" xlink:href="#DejaVuSans-53"/>
      </g>
     </g>
    </g>
    <g id="ytick_7">
     <g id="line2d_89">
      <g>
       <use style="stroke:#000000;stroke-width:0.8;" x="54" xlink:href="#mce20426ced" y="77.831323"/>
      </g>
     </g>
     <g id="text_13">
      <!-- −1370.0 -->
      <g transform="translate(3.629687 81.630542)scale(0.1 -0.1)">
       <use xlink:href="#DejaVuSans-8722"/>
       <use x="83.789062" xlink:href="#DejaVuSans-49"/>
       <use x="147.412109" xlink:href="#DejaVuSans-51"/>
       <use x="211.035156" xlink:href="#DejaVuSans-55"/>
       <use x="274.658203" xlink:href="#DejaVuSans-48"/>
       <use x="338.28125" xlink:href="#DejaVuSans-46"/>
       <use x="370.068359" xlink:href="#DejaVuSans-48"/>
      </g>
     </g>
    </g>
    <g id="ytick_8">
     <g id="line2d_90">
      <g>
       <use style="stroke:#000000;stroke-width:0.8;" x="54" xlink:href="#mce20426ced" y="49.931323"/>
      </g>
     </g>
     <g id="text_14">
      <!-- −1367.5 -->
      <g transform="translate(3.629687 53.730542)scale(0.1 -0.1)">
       <use xlink:href="#DejaVuSans-8722"/>
       <use x="83.789062" xlink:href="#DejaVuSans-49"/>
       <use x="147.412109" xlink:href="#DejaVuSans-51"/>
       <use x="211.035156" xlink:href="#DejaVuSans-54"/>
       <use x="274.658203" xlink:href="#DejaVuSans-55"/>
       <use x="338.28125" xlink:href="#DejaVuSans-46"/>
       <use x="370.068359" xlink:href="#DejaVuSans-53"/>
      </g>
     </g>
    </g>
   </g>
   <g id="line2d_91">
    <path clip-path="url(#pc061ebd06e)" d="M -1 112.524948 
L 433 112.524948 
" style="fill:none;stroke:#0424ff;stroke-dasharray:1.5,2.475;stroke-dashoffset:0;stroke-width:1.5;"/>
   </g>
   <g id="line2d_92">
    <path clip-path="url(#pc061ebd06e)" style="fill:none;stroke:#0424ff;stroke-dasharray:9.6,2.4,1.5,2.4;stroke-dashoffset:0;stroke-width:1.5;"/>
   </g>
   <g id="patch_5">
    <path d="M 54 249.84 
L 54 26.64 
" style="fill:none;stroke:#000000;stroke-linecap:square;stroke-linejoin:miter;stroke-width:0.8;"/>
   </g>
   <g id="patch_6">
    <path d="M 388.8 249.84 
L 388.8 26.64 
" style="fill:none;stroke:#000000;stroke-linecap:square;stroke-linejoin:miter;stroke-width:0.8;"/>
   </g>
   <g id="patch_7">
    <path d="M 54 249.84 
L 388.8 249.84 
" style="fill:none;stroke:#000000;stroke-linecap:square;stroke-linejoin:miter;stroke-width:0.8;"/>
   </g>
   <g id="patch_8">
    <path d="M 54 26.64 
L 388.8 26.64 
" style="fill:none;stroke:#000000;stroke-linecap:square;stroke-linejoin:miter;stroke-width:0.8;"/>
   </g>
   <g id="legend_1">
    <g id="patch_9">
     <path d="M 144.565625 64.39625 
L 381.8 64.39625 
Q 383.8 64.39625 383.8 62.39625 
L 383.8 33.64 
Q 383.8 31.64 381.8 31.64 
L 144.565625 31.64 
Q 142.565625 31.64 142.565625 33.64 
L 142.565625 62.39625 
Q 142.565625 64.39625 144.565625 64.39625 
z
" style="fill:#ffffff;opacity:0.8;stroke:#cccccc;stroke-linejoin:miter;"/>
    </g>
    <g id="PathCollection_13">
     <g>
      <use style="fill:#00ffff;stroke:#000000;" x="156.565625" xlink:href="#mdb33276de2" y="41.013437"/>
     </g>
    </g>
    <g id="text_15">
     <!-- pozycje wejściowe agenta EGO -->
     <g transform="translate(174.565625 43.638437)scale(0.1 -0.1)">
      <defs>
       <path d="M 18.109375 8.203125 
L 18.109375 -20.796875 
L 9.078125 -20.796875 
L 9.078125 54.6875 
L 18.109375 54.6875 
L 18.109375 46.390625 
Q 20.953125 51.265625 25.265625 53.625 
Q 29.59375 56 35.59375 56 
Q 45.5625 56 51.78125 48.09375 
Q 58.015625 40.1875 58.015625 27.296875 
Q 58.015625 14.40625 51.78125 6.484375 
Q 45.5625 -1.421875 35.59375 -1.421875 
Q 29.59375 -1.421875 25.265625 0.953125 
Q 20.953125 3.328125 18.109375 8.203125 
z
M 48.6875 27.296875 
Q 48.6875 37.203125 44.609375 42.84375 
Q 40.53125 48.484375 33.40625 48.484375 
Q 26.265625 48.484375 22.1875 42.84375 
Q 18.109375 37.203125 18.109375 27.296875 
Q 18.109375 17.390625 22.1875 11.75 
Q 26.265625 6.109375 33.40625 6.109375 
Q 40.53125 6.109375 44.609375 11.75 
Q 48.6875 17.390625 48.6875 27.296875 
z
" id="DejaVuSans-112"/>
       <path d="M 30.609375 48.390625 
Q 23.390625 48.390625 19.1875 42.75 
Q 14.984375 37.109375 14.984375 27.296875 
Q 14.984375 17.484375 19.15625 11.84375 
Q 23.34375 6.203125 30.609375 6.203125 
Q 37.796875 6.203125 41.984375 11.859375 
Q 46.1875 17.53125 46.1875 27.296875 
Q 46.1875 37.015625 41.984375 42.703125 
Q 37.796875 48.390625 30.609375 48.390625 
z
M 30.609375 56 
Q 42.328125 56 49.015625 48.375 
Q 55.71875 40.765625 55.71875 27.296875 
Q 55.71875 13.875 49.015625 6.21875 
Q 42.328125 -1.421875 30.609375 -1.421875 
Q 18.84375 -1.421875 12.171875 6.21875 
Q 5.515625 13.875 5.515625 27.296875 
Q 5.515625 40.765625 12.171875 48.375 
Q 18.84375 56 30.609375 56 
z
" id="DejaVuSans-111"/>
       <path d="M 5.515625 54.6875 
L 48.1875 54.6875 
L 48.1875 46.484375 
L 14.40625 7.171875 
L 48.1875 7.171875 
L 48.1875 0 
L 4.296875 0 
L 4.296875 8.203125 
L 38.09375 47.515625 
L 5.515625 47.515625 
z
" id="DejaVuSans-122"/>
       <path d="M 32.171875 -5.078125 
Q 28.375 -14.84375 24.75 -17.8125 
Q 21.140625 -20.796875 15.09375 -20.796875 
L 7.90625 -20.796875 
L 7.90625 -13.28125 
L 13.1875 -13.28125 
Q 16.890625 -13.28125 18.9375 -11.515625 
Q 21 -9.765625 23.484375 -3.21875 
L 25.09375 0.875 
L 2.984375 54.6875 
L 12.5 54.6875 
L 29.59375 11.921875 
L 46.6875 54.6875 
L 56.203125 54.6875 
z
" id="DejaVuSans-121"/>
       <path d="M 48.78125 52.59375 
L 48.78125 44.1875 
Q 44.96875 46.296875 41.140625 47.34375 
Q 37.3125 48.390625 33.40625 48.390625 
Q 24.65625 48.390625 19.8125 42.84375 
Q 14.984375 37.3125 14.984375 27.296875 
Q 14.984375 17.28125 19.8125 11.734375 
Q 24.65625 6.203125 33.40625 6.203125 
Q 37.3125 6.203125 41.140625 7.25 
Q 44.96875 8.296875 48.78125 10.40625 
L 48.78125 2.09375 
Q 45.015625 0.34375 40.984375 -0.53125 
Q 36.96875 -1.421875 32.421875 -1.421875 
Q 20.0625 -1.421875 12.78125 6.34375 
Q 5.515625 14.109375 5.515625 27.296875 
Q 5.515625 40.671875 12.859375 48.328125 
Q 20.21875 56 33.015625 56 
Q 37.15625 56 41.109375 55.140625 
Q 45.0625 54.296875 48.78125 52.59375 
z
" id="DejaVuSans-99"/>
       <path d="M 9.421875 54.6875 
L 18.40625 54.6875 
L 18.40625 -0.984375 
Q 18.40625 -11.421875 14.421875 -16.109375 
Q 10.453125 -20.796875 1.609375 -20.796875 
L -1.8125 -20.796875 
L -1.8125 -13.1875 
L 0.59375 -13.1875 
Q 5.71875 -13.1875 7.5625 -10.8125 
Q 9.421875 -8.453125 9.421875 -0.984375 
z
M 9.421875 75.984375 
L 18.40625 75.984375 
L 18.40625 64.59375 
L 9.421875 64.59375 
z
" id="DejaVuSans-106"/>
       <path d="M 56.203125 29.59375 
L 56.203125 25.203125 
L 14.890625 25.203125 
Q 15.484375 15.921875 20.484375 11.0625 
Q 25.484375 6.203125 34.421875 6.203125 
Q 39.59375 6.203125 44.453125 7.46875 
Q 49.3125 8.734375 54.109375 11.28125 
L 54.109375 2.78125 
Q 49.265625 0.734375 44.1875 -0.34375 
Q 39.109375 -1.421875 33.890625 -1.421875 
Q 20.796875 -1.421875 13.15625 6.1875 
Q 5.515625 13.8125 5.515625 26.8125 
Q 5.515625 40.234375 12.765625 48.109375 
Q 20.015625 56 32.328125 56 
Q 43.359375 56 49.78125 48.890625 
Q 56.203125 41.796875 56.203125 29.59375 
z
M 47.21875 32.234375 
Q 47.125 39.59375 43.09375 43.984375 
Q 39.0625 48.390625 32.421875 48.390625 
Q 24.90625 48.390625 20.390625 44.140625 
Q 15.875 39.890625 15.1875 32.171875 
z
" id="DejaVuSans-101"/>
       <path id="DejaVuSans-32"/>
       <path d="M 4.203125 54.6875 
L 13.1875 54.6875 
L 24.421875 12.015625 
L 35.59375 54.6875 
L 46.1875 54.6875 
L 57.421875 12.015625 
L 68.609375 54.6875 
L 77.59375 54.6875 
L 63.28125 0 
L 52.6875 0 
L 40.921875 44.828125 
L 29.109375 0 
L 18.5 0 
z
" id="DejaVuSans-119"/>
       <path d="M 35.03125 79.984375 
L 44.75 79.984375 
L 28.84375 61.625 
L 21.359375 61.625 
z
M 44.28125 53.078125 
L 44.28125 44.578125 
Q 40.484375 46.53125 36.375 47.5 
Q 32.28125 48.484375 27.875 48.484375 
Q 21.1875 48.484375 17.84375 46.4375 
Q 14.5 44.390625 14.5 40.28125 
Q 14.5 37.15625 16.890625 35.375 
Q 19.28125 33.59375 26.515625 31.984375 
L 29.59375 31.296875 
Q 39.15625 29.25 43.1875 25.515625 
Q 47.21875 21.78125 47.21875 15.09375 
Q 47.21875 7.46875 41.1875 3.015625 
Q 35.15625 -1.421875 24.609375 -1.421875 
Q 20.21875 -1.421875 15.453125 -0.5625 
Q 10.6875 0.296875 5.421875 2 
L 5.421875 11.28125 
Q 10.40625 8.6875 15.234375 7.390625 
Q 20.0625 6.109375 24.8125 6.109375 
Q 31.15625 6.109375 34.5625 8.28125 
Q 37.984375 10.453125 37.984375 14.40625 
Q 37.984375 18.0625 35.515625 20.015625 
Q 33.0625 21.96875 24.703125 23.78125 
L 21.578125 24.515625 
Q 13.234375 26.265625 9.515625 29.90625 
Q 5.8125 33.546875 5.8125 39.890625 
Q 5.8125 47.609375 11.28125 51.796875 
Q 16.75 56 26.8125 56 
Q 31.78125 56 36.171875 55.265625 
Q 40.578125 54.546875 44.28125 53.078125 
z
" id="DejaVuSans-347"/>
       <path d="M 9.421875 54.6875 
L 18.40625 54.6875 
L 18.40625 0 
L 9.421875 0 
z
M 9.421875 75.984375 
L 18.40625 75.984375 
L 18.40625 64.59375 
L 9.421875 64.59375 
z
" id="DejaVuSans-105"/>
       <path d="M 34.28125 27.484375 
Q 23.390625 27.484375 19.1875 25 
Q 14.984375 22.515625 14.984375 16.5 
Q 14.984375 11.71875 18.140625 8.90625 
Q 21.296875 6.109375 26.703125 6.109375 
Q 34.1875 6.109375 38.703125 11.40625 
Q 43.21875 16.703125 43.21875 25.484375 
L 43.21875 27.484375 
z
M 52.203125 31.203125 
L 52.203125 0 
L 43.21875 0 
L 43.21875 8.296875 
Q 40.140625 3.328125 35.546875 0.953125 
Q 30.953125 -1.421875 24.3125 -1.421875 
Q 15.921875 -1.421875 10.953125 3.296875 
Q 6 8.015625 6 15.921875 
Q 6 25.140625 12.171875 29.828125 
Q 18.359375 34.515625 30.609375 34.515625 
L 43.21875 34.515625 
L 43.21875 35.40625 
Q 43.21875 41.609375 39.140625 45 
Q 35.0625 48.390625 27.6875 48.390625 
Q 23 48.390625 18.546875 47.265625 
Q 14.109375 46.140625 10.015625 43.890625 
L 10.015625 52.203125 
Q 14.9375 54.109375 19.578125 55.046875 
Q 24.21875 56 28.609375 56 
Q 40.484375 56 46.34375 49.84375 
Q 52.203125 43.703125 52.203125 31.203125 
z
" id="DejaVuSans-97"/>
       <path d="M 45.40625 27.984375 
Q 45.40625 37.75 41.375 43.109375 
Q 37.359375 48.484375 30.078125 48.484375 
Q 22.859375 48.484375 18.828125 43.109375 
Q 14.796875 37.75 14.796875 27.984375 
Q 14.796875 18.265625 18.828125 12.890625 
Q 22.859375 7.515625 30.078125 7.515625 
Q 37.359375 7.515625 41.375 12.890625 
Q 45.40625 18.265625 45.40625 27.984375 
z
M 54.390625 6.78125 
Q 54.390625 -7.171875 48.1875 -13.984375 
Q 42 -20.796875 29.203125 -20.796875 
Q 24.46875 -20.796875 20.265625 -20.09375 
Q 16.0625 -19.390625 12.109375 -17.921875 
L 12.109375 -9.1875 
Q 16.0625 -11.328125 19.921875 -12.34375 
Q 23.78125 -13.375 27.78125 -13.375 
Q 36.625 -13.375 41.015625 -8.765625 
Q 45.40625 -4.15625 45.40625 5.171875 
L 45.40625 9.625 
Q 42.625 4.78125 38.28125 2.390625 
Q 33.9375 0 27.875 0 
Q 17.828125 0 11.671875 7.65625 
Q 5.515625 15.328125 5.515625 27.984375 
Q 5.515625 40.671875 11.671875 48.328125 
Q 17.828125 56 27.875 56 
Q 33.9375 56 38.28125 53.609375 
Q 42.625 51.21875 45.40625 46.390625 
L 45.40625 54.6875 
L 54.390625 54.6875 
z
" id="DejaVuSans-103"/>
       <path d="M 54.890625 33.015625 
L 54.890625 0 
L 45.90625 0 
L 45.90625 32.71875 
Q 45.90625 40.484375 42.875 44.328125 
Q 39.84375 48.1875 33.796875 48.1875 
Q 26.515625 48.1875 22.3125 43.546875 
Q 18.109375 38.921875 18.109375 30.90625 
L 18.109375 0 
L 9.078125 0 
L 9.078125 54.6875 
L 18.109375 54.6875 
L 18.109375 46.1875 
Q 21.34375 51.125 25.703125 53.5625 
Q 30.078125 56 35.796875 56 
Q 45.21875 56 50.046875 50.171875 
Q 54.890625 44.34375 54.890625 33.015625 
z
" id="DejaVuSans-110"/>
       <path d="M 18.3125 70.21875 
L 18.3125 54.6875 
L 36.8125 54.6875 
L 36.8125 47.703125 
L 18.3125 47.703125 
L 18.3125 18.015625 
Q 18.3125 11.328125 20.140625 9.421875 
Q 21.96875 7.515625 27.59375 7.515625 
L 36.8125 7.515625 
L 36.8125 0 
L 27.59375 0 
Q 17.1875 0 13.234375 3.875 
Q 9.28125 7.765625 9.28125 18.015625 
L 9.28125 47.703125 
L 2.6875 47.703125 
L 2.6875 54.6875 
L 9.28125 54.6875 
L 9.28125 70.21875 
z
" id="DejaVuSans-116"/>
       <path d="M 9.8125 72.90625 
L 55.90625 72.90625 
L 55.90625 64.59375 
L 19.671875 64.59375 
L 19.671875 43.015625 
L 54.390625 43.015625 
L 54.390625 34.71875 
L 19.671875 34.71875 
L 19.671875 8.296875 
L 56.78125 8.296875 
L 56.78125 0 
L 9.8125 0 
z
" id="DejaVuSans-69"/>
       <path d="M 59.515625 10.40625 
L 59.515625 29.984375 
L 43.40625 29.984375 
L 43.40625 38.09375 
L 69.28125 38.09375 
L 69.28125 6.78125 
Q 63.578125 2.734375 56.6875 0.65625 
Q 49.8125 -1.421875 42 -1.421875 
Q 24.90625 -1.421875 15.25 8.5625 
Q 5.609375 18.5625 5.609375 36.375 
Q 5.609375 54.25 15.25 64.234375 
Q 24.90625 74.21875 42 74.21875 
Q 49.125 74.21875 55.546875 72.453125 
Q 61.96875 70.703125 67.390625 67.28125 
L 67.390625 56.78125 
Q 61.921875 61.421875 55.765625 63.765625 
Q 49.609375 66.109375 42.828125 66.109375 
Q 29.4375 66.109375 22.71875 58.640625 
Q 16.015625 51.171875 16.015625 36.375 
Q 16.015625 21.625 22.71875 14.15625 
Q 29.4375 6.6875 42.828125 6.6875 
Q 48.046875 6.6875 52.140625 7.59375 
Q 56.25 8.5 59.515625 10.40625 
z
" id="DejaVuSans-71"/>
       <path d="M 39.40625 66.21875 
Q 28.65625 66.21875 22.328125 58.203125 
Q 16.015625 50.203125 16.015625 36.375 
Q 16.015625 22.609375 22.328125 14.59375 
Q 28.65625 6.59375 39.40625 6.59375 
Q 50.140625 6.59375 56.421875 14.59375 
Q 62.703125 22.609375 62.703125 36.375 
Q 62.703125 50.203125 56.421875 58.203125 
Q 50.140625 66.21875 39.40625 66.21875 
z
M 39.40625 74.21875 
Q 54.734375 74.21875 63.90625 63.9375 
Q 73.09375 53.65625 73.09375 36.375 
Q 73.09375 19.140625 63.90625 8.859375 
Q 54.734375 -1.421875 39.40625 -1.421875 
Q 24.03125 -1.421875 14.8125 8.828125 
Q 5.609375 19.09375 5.609375 36.375 
Q 5.609375 53.65625 14.8125 63.9375 
Q 24.03125 74.21875 39.40625 74.21875 
z
" id="DejaVuSans-79"/>
      </defs>
      <use xlink:href="#DejaVuSans-112"/>
      <use x="63.476562" xlink:href="#DejaVuSans-111"/>
      <use x="124.658203" xlink:href="#DejaVuSans-122"/>
      <use x="177.148438" xlink:href="#DejaVuSans-121"/>
      <use x="236.328125" xlink:href="#DejaVuSans-99"/>
      <use x="291.308594" xlink:href="#DejaVuSans-106"/>
      <use x="319.091797" xlink:href="#DejaVuSans-101"/>
      <use x="380.615234" xlink:href="#DejaVuSans-32"/>
      <use x="412.402344" xlink:href="#DejaVuSans-119"/>
      <use x="494.189453" xlink:href="#DejaVuSans-101"/>
      <use x="555.712891" xlink:href="#DejaVuSans-106"/>
      <use x="583.496094" xlink:href="#DejaVuSans-347"/>
      <use x="635.595703" xlink:href="#DejaVuSans-99"/>
      <use x="690.576172" xlink:href="#DejaVuSans-105"/>
      <use x="718.359375" xlink:href="#DejaVuSans-111"/>
      <use x="779.541016" xlink:href="#DejaVuSans-119"/>
      <use x="861.328125" xlink:href="#DejaVuSans-101"/>
      <use x="922.851562" xlink:href="#DejaVuSans-32"/>
      <use x="954.638672" xlink:href="#DejaVuSans-97"/>
      <use x="1015.917969" xlink:href="#DejaVuSans-103"/>
      <use x="1079.394531" xlink:href="#DejaVuSans-101"/>
      <use x="1140.917969" xlink:href="#DejaVuSans-110"/>
      <use x="1204.296875" xlink:href="#DejaVuSans-116"/>
      <use x="1243.505859" xlink:href="#DejaVuSans-97"/>
      <use x="1304.785156" xlink:href="#DejaVuSans-32"/>
      <use x="1336.572266" xlink:href="#DejaVuSans-69"/>
      <use x="1399.755859" xlink:href="#DejaVuSans-71"/>
      <use x="1477.246094" xlink:href="#DejaVuSans-79"/>
     </g>
    </g>
    <g id="line2d_93">
     <path d="M 146.565625 54.816562 
L 166.565625 54.816562 
" style="fill:none;stroke:#0424ff;stroke-dasharray:9.6,2.4,1.5,2.4;stroke-dashoffset:0;stroke-width:1.5;"/>
    </g>
    <g id="line2d_94"/>
    <g id="text_16">
     <!-- kąt odchylenia najbliższego pasa: 147.8° -->
     <g transform="translate(174.565625 58.316562)scale(0.1 -0.1)">
      <defs>
       <path d="M 9.078125 75.984375 
L 18.109375 75.984375 
L 18.109375 31.109375 
L 44.921875 54.6875 
L 56.390625 54.6875 
L 27.390625 29.109375 
L 57.625 0 
L 45.90625 0 
L 18.109375 26.703125 
L 18.109375 0 
L 9.078125 0 
z
" id="DejaVuSans-107"/>
       <path d="M 34.28125 27.484375 
Q 23.390625 27.484375 19.1875 25 
Q 14.984375 22.515625 14.984375 16.5 
Q 14.984375 11.71875 18.140625 8.90625 
Q 21.296875 6.109375 26.703125 6.109375 
Q 34.1875 6.109375 38.703125 11.40625 
Q 43.21875 16.703125 43.21875 25.484375 
L 43.21875 27.484375 
z
M 52.203125 31.203125 
L 52.203125 0 
L 43.21875 0 
L 43.21875 8.296875 
Q 40.140625 3.328125 35.546875 0.953125 
Q 30.953125 -1.421875 24.3125 -1.421875 
Q 15.921875 -1.421875 10.953125 3.296875 
Q 6 8.015625 6 15.921875 
Q 6 25.140625 12.171875 29.828125 
Q 18.359375 34.515625 30.609375 34.515625 
L 43.21875 34.515625 
L 43.21875 35.40625 
Q 43.21875 41.609375 39.140625 45 
Q 35.0625 48.390625 27.6875 48.390625 
Q 23 48.390625 18.546875 47.265625 
Q 14.109375 46.140625 10.015625 43.890625 
L 10.015625 52.203125 
Q 14.9375 54.109375 19.578125 55.046875 
Q 24.21875 56 28.609375 56 
Q 40.484375 56 46.34375 49.84375 
Q 52.203125 43.703125 52.203125 31.203125 
z
M 43.359375 0 
L 49.171875 0 
Q 46.96875 -2.984375 45.921875 -5.125 
Q 44.875 -7.28125 44.875 -8.796875 
Q 44.875 -11.03125 46.21875 -12.15625 
Q 47.5625 -13.28125 50.203125 -13.28125 
Q 51.765625 -13.28125 53.265625 -12.90625 
Q 54.78125 -12.546875 56.296875 -11.8125 
L 56.296875 -18.3125 
Q 54.4375 -18.796875 52.78125 -19.03125 
Q 51.125 -19.28125 49.65625 -19.28125 
Q 43.703125 -19.28125 40.890625 -17.15625 
Q 38.09375 -15.046875 38.09375 -10.5 
Q 38.09375 -8.15625 39.375 -5.59375 
Q 40.671875 -3.03125 43.359375 0 
z
" id="DejaVuSans-261"/>
       <path d="M 45.40625 46.390625 
L 45.40625 75.984375 
L 54.390625 75.984375 
L 54.390625 0 
L 45.40625 0 
L 45.40625 8.203125 
Q 42.578125 3.328125 38.25 0.953125 
Q 33.9375 -1.421875 27.875 -1.421875 
Q 17.96875 -1.421875 11.734375 6.484375 
Q 5.515625 14.40625 5.515625 27.296875 
Q 5.515625 40.1875 11.734375 48.09375 
Q 17.96875 56 27.875 56 
Q 33.9375 56 38.25 53.625 
Q 42.578125 51.265625 45.40625 46.390625 
z
M 14.796875 27.296875 
Q 14.796875 17.390625 18.875 11.75 
Q 22.953125 6.109375 30.078125 6.109375 
Q 37.203125 6.109375 41.296875 11.75 
Q 45.40625 17.390625 45.40625 27.296875 
Q 45.40625 37.203125 41.296875 42.84375 
Q 37.203125 48.484375 30.078125 48.484375 
Q 22.953125 48.484375 18.875 42.84375 
Q 14.796875 37.203125 14.796875 27.296875 
z
" id="DejaVuSans-100"/>
       <path d="M 54.890625 33.015625 
L 54.890625 0 
L 45.90625 0 
L 45.90625 32.71875 
Q 45.90625 40.484375 42.875 44.328125 
Q 39.84375 48.1875 33.796875 48.1875 
Q 26.515625 48.1875 22.3125 43.546875 
Q 18.109375 38.921875 18.109375 30.90625 
L 18.109375 0 
L 9.078125 0 
L 9.078125 75.984375 
L 18.109375 75.984375 
L 18.109375 46.1875 
Q 21.34375 51.125 25.703125 53.5625 
Q 30.078125 56 35.796875 56 
Q 45.21875 56 50.046875 50.171875 
Q 54.890625 44.34375 54.890625 33.015625 
z
" id="DejaVuSans-104"/>
       <path d="M 9.421875 75.984375 
L 18.40625 75.984375 
L 18.40625 0 
L 9.421875 0 
z
" id="DejaVuSans-108"/>
       <path d="M 48.6875 27.296875 
Q 48.6875 37.203125 44.609375 42.84375 
Q 40.53125 48.484375 33.40625 48.484375 
Q 26.265625 48.484375 22.1875 42.84375 
Q 18.109375 37.203125 18.109375 27.296875 
Q 18.109375 17.390625 22.1875 11.75 
Q 26.265625 6.109375 33.40625 6.109375 
Q 40.53125 6.109375 44.609375 11.75 
Q 48.6875 17.390625 48.6875 27.296875 
z
M 18.109375 46.390625 
Q 20.953125 51.265625 25.265625 53.625 
Q 29.59375 56 35.59375 56 
Q 45.5625 56 51.78125 48.09375 
Q 58.015625 40.1875 58.015625 27.296875 
Q 58.015625 14.40625 51.78125 6.484375 
Q 45.5625 -1.421875 35.59375 -1.421875 
Q 29.59375 -1.421875 25.265625 0.953125 
Q 20.953125 3.328125 18.109375 8.203125 
L 18.109375 0 
L 9.078125 0 
L 9.078125 75.984375 
L 18.109375 75.984375 
z
" id="DejaVuSans-98"/>
       <path d="M 21.53125 75.984375 
L 30.515625 75.984375 
L 30.515625 64.59375 
L 21.53125 64.59375 
z
M 26.125 56 
z
M 5.515625 54.6875 
L 48.1875 54.6875 
L 48.1875 46.484375 
L 14.40625 7.171875 
L 48.1875 7.171875 
L 48.1875 0 
L 4.296875 0 
L 4.296875 8.203125 
L 38.09375 47.515625 
L 5.515625 47.515625 
z
" id="DejaVuSans-380"/>
       <path d="M 44.28125 53.078125 
L 44.28125 44.578125 
Q 40.484375 46.53125 36.375 47.5 
Q 32.28125 48.484375 27.875 48.484375 
Q 21.1875 48.484375 17.84375 46.4375 
Q 14.5 44.390625 14.5 40.28125 
Q 14.5 37.15625 16.890625 35.375 
Q 19.28125 33.59375 26.515625 31.984375 
L 29.59375 31.296875 
Q 39.15625 29.25 43.1875 25.515625 
Q 47.21875 21.78125 47.21875 15.09375 
Q 47.21875 7.46875 41.1875 3.015625 
Q 35.15625 -1.421875 24.609375 -1.421875 
Q 20.21875 -1.421875 15.453125 -0.5625 
Q 10.6875 0.296875 5.421875 2 
L 5.421875 11.28125 
Q 10.40625 8.6875 15.234375 7.390625 
Q 20.0625 6.109375 24.8125 6.109375 
Q 31.15625 6.109375 34.5625 8.28125 
Q 37.984375 10.453125 37.984375 14.40625 
Q 37.984375 18.0625 35.515625 20.015625 
Q 33.0625 21.96875 24.703125 23.78125 
L 21.578125 24.515625 
Q 13.234375 26.265625 9.515625 29.90625 
Q 5.8125 33.546875 5.8125 39.890625 
Q 5.8125 47.609375 11.28125 51.796875 
Q 16.75 56 26.8125 56 
Q 31.78125 56 36.171875 55.265625 
Q 40.578125 54.546875 44.28125 53.078125 
z
" id="DejaVuSans-115"/>
       <path d="M 11.71875 12.40625 
L 22.015625 12.40625 
L 22.015625 0 
L 11.71875 0 
z
M 11.71875 51.703125 
L 22.015625 51.703125 
L 22.015625 39.3125 
L 11.71875 39.3125 
z
" id="DejaVuSans-58"/>
       <path d="M 37.796875 64.3125 
L 12.890625 25.390625 
L 37.796875 25.390625 
z
M 35.203125 72.90625 
L 47.609375 72.90625 
L 47.609375 25.390625 
L 58.015625 25.390625 
L 58.015625 17.1875 
L 47.609375 17.1875 
L 47.609375 0 
L 37.796875 0 
L 37.796875 17.1875 
L 4.890625 17.1875 
L 4.890625 26.703125 
z
" id="DejaVuSans-52"/>
       <path d="M 25 67.921875 
Q 21.09375 67.921875 18.40625 65.203125 
Q 15.71875 62.5 15.71875 58.59375 
Q 15.71875 54.734375 18.40625 52.078125 
Q 21.09375 49.421875 25 49.421875 
Q 28.90625 49.421875 31.59375 52.078125 
Q 34.28125 54.734375 34.28125 58.59375 
Q 34.28125 62.453125 31.5625 65.1875 
Q 28.859375 67.921875 25 67.921875 
z
M 25 74.21875 
Q 28.125 74.21875 31 73.015625 
Q 33.890625 71.828125 35.984375 69.578125 
Q 38.234375 67.390625 39.359375 64.59375 
Q 40.484375 61.8125 40.484375 58.59375 
Q 40.484375 52.15625 35.96875 47.6875 
Q 31.453125 43.21875 24.90625 43.21875 
Q 18.3125 43.21875 13.90625 47.609375 
Q 9.515625 52 9.515625 58.59375 
Q 9.515625 65.140625 14 69.671875 
Q 18.5 74.21875 25 74.21875 
z
" id="DejaVuSans-176"/>
      </defs>
      <use xlink:href="#DejaVuSans-107"/>
      <use x="57.910156" xlink:href="#DejaVuSans-261"/>
      <use x="119.189453" xlink:href="#DejaVuSans-116"/>
      <use x="158.398438" xlink:href="#DejaVuSans-32"/>
      <use x="190.185547" xlink:href="#DejaVuSans-111"/>
      <use x="251.367188" xlink:href="#DejaVuSans-100"/>
      <use x="314.84375" xlink:href="#DejaVuSans-99"/>
      <use x="369.824219" xlink:href="#DejaVuSans-104"/>
      <use x="433.203125" xlink:href="#DejaVuSans-121"/>
      <use x="492.382812" xlink:href="#DejaVuSans-108"/>
      <use x="520.166016" xlink:href="#DejaVuSans-101"/>
      <use x="581.689453" xlink:href="#DejaVuSans-110"/>
      <use x="645.068359" xlink:href="#DejaVuSans-105"/>
      <use x="672.851562" xlink:href="#DejaVuSans-97"/>
      <use x="734.130859" xlink:href="#DejaVuSans-32"/>
      <use x="765.917969" xlink:href="#DejaVuSans-110"/>
      <use x="829.296875" xlink:href="#DejaVuSans-97"/>
      <use x="890.576172" xlink:href="#DejaVuSans-106"/>
      <use x="918.359375" xlink:href="#DejaVuSans-98"/>
      <use x="981.835938" xlink:href="#DejaVuSans-108"/>
      <use x="1009.619141" xlink:href="#DejaVuSans-105"/>
      <use x="1037.402344" xlink:href="#DejaVuSans-380"/>
      <use x="1089.892578" xlink:href="#DejaVuSans-115"/>
      <use x="1141.992188" xlink:href="#DejaVuSans-122"/>
      <use x="1194.482422" xlink:href="#DejaVuSans-101"/>
      <use x="1256.005859" xlink:href="#DejaVuSans-103"/>
      <use x="1319.482422" xlink:href="#DejaVuSans-111"/>
      <use x="1380.664062" xlink:href="#DejaVuSans-32"/>
      <use x="1412.451172" xlink:href="#DejaVuSans-112"/>
      <use x="1475.927734" xlink:href="#DejaVuSans-97"/>
      <use x="1537.207031" xlink:href="#DejaVuSans-115"/>
      <use x="1589.306641" xlink:href="#DejaVuSans-97"/>
      <use x="1650.585938" xlink:href="#DejaVuSans-58"/>
      <use x="1684.277344" xlink:href="#DejaVuSans-32"/>
      <use x="1716.064453" xlink:href="#DejaVuSans-49"/>
      <use x="1779.6875" xlink:href="#DejaVuSans-52"/>
      <use x="1843.310547" xlink:href="#DejaVuSans-55"/>
      <use x="1906.933594" xlink:href="#DejaVuSans-46"/>
      <use x="1938.720703" xlink:href="#DejaVuSans-56"/>
      <use x="2002.34375" xlink:href="#DejaVuSans-176"/>
     </g>
    </g>
   </g>
  </g>
 </g>
 <defs>
  <clipPath id="pc061ebd06e">
   <rect height="223.2" width="334.8" x="54" y="26.64"/>
  </clipPath>
 </defs>
</svg>
