<?xml version="1.0" encoding="utf-8" standalone="no"?>
<!DOCTYPE svg PUBLIC "-//W3C//DTD SVG 1.1//EN"
  "http://www.w3.org/Graphics/SVG/1.1/DTD/svg11.dtd">
<!-- Created with matplotlib (https://matplotlib.org/) -->
<svg height="288pt" version="1.1" viewBox="0 0 432 288" width="432pt" xmlns="http://www.w3.org/2000/svg" xmlns:xlink="http://www.w3.org/1999/xlink">
 <metadata>
  <rdf:RDF xmlns:cc="http://creativecommons.org/ns#" xmlns:dc="http://purl.org/dc/elements/1.1/" xmlns:rdf="http://www.w3.org/1999/02/22-rdf-syntax-ns#">
   <cc:Work>
    <dc:type rdf:resource="http://purl.org/dc/dcmitype/StillImage"/>
    <dc:date>2021-01-03T23:01:35.518757</dc:date>
    <dc:format>image/svg+xml</dc:format>
    <dc:creator>
     <cc:Agent>
      <dc:title>Matplotlib v3.3.3, https://matplotlib.org/</dc:title>
     </cc:Agent>
    </dc:creator>
   </cc:Work>
  </rdf:RDF>
 </metadata>
 <defs>
  <style type="text/css">*{stroke-linecap:butt;stroke-linejoin:round;}</style>
 </defs>
 <g id="figure_1">
  <g id="patch_1">
   <path d="M 0 288 
L 432 288 
L 432 0 
L 0 0 
z
" style="fill:#ffffff;"/>
  </g>
  <g id="axes_1">
   <g id="patch_2">
    <path d="M 47.52 259.2 
L 401.76 259.2 
L 401.76 23.04 
L 47.52 23.04 
z
" style="fill:#ffffff;"/>
   </g>
   <g id="line2d_1">
    <path clip-path="url(#p4a07f226d3)" d="M 122.372928 82.033781 
L 120.709406 80.970195 
L 119.044357 79.908785 
L 117.379738 78.846788 
L 115.705504 77.799918 
L 114.030368 76.754484 
L 112.362555 75.697583 
L 110.698452 74.635241 
L 109.014988 73.603349 
L 107.334512 72.566509 
L 105.650753 71.535069 
L 103.964314 70.508059 
L 102.279792 69.477788 
L 100.5993 68.441074 
L 98.914086 67.412129 
L 97.23004 66.381149 
L 95.531403 65.374441 
L 93.837751 64.359248 
L 92.1441 63.344056 
L 90.450442 62.328874 
L 88.757383 61.312741 
L 87.05843 60.306469 
L 85.359778 59.299685 
L 83.663609 58.28871 
L 81.967441 57.277736 
L 80.271273 56.266761 
L 78.569621 55.265218 
L 76.868512 54.262688 
L 75.169866 53.255877 
L 73.472043 52.247684 
L 71.774219 51.239491 
L 70.076396 50.231299 
L 68.37718 49.225466 
L 66.678409 48.219049 
L 64.9785 47.214784 
L 63.284556 46.200128 
L 61.582778 45.198633 
L 59.88129 44.196669 
L 58.182398 43.190363 
L 56.482862 42.185084 
L 54.786975 41.173633 
L 53.088122 40.167185 
L 51.386717 39.165043 
L 49.686135 38.161505 
L 47.98565 37.157803 
L 46.29226 36.142214 
L 44.601431 35.12233 
L 42.910222 34.103078 
L 41.219561 33.083008 
L 39.530071 32.060978 
L 37.837538 31.043923 
L 36.14322 30.029862 
L 34.455356 29.005152 
L 32.768651 27.978459 
L 31.082001 26.951677 
L 29.397587 25.921244 
L 27.715116 24.887805 
L 26.045155 23.83412 
L 24.370443 22.787993 
L 22.692246 21.747465 
L 21.012549 20.709347 
L 19.344866 19.652257 
L 17.673466 18.600877 
L 16.002483 17.54882 
L 14.333645 16.493565 
L 12.664981 15.437948 
L 11.005836 14.367789 
L 9.345871 13.298444 
L 7.700096 12.207596 
L 6.044104 11.132171 
L 4.383231 10.064314 
L 2.740779 8.968556 
L 1.095357 7.878234 
L -0.543285 6.778565 
L -1 6.475329 
" style="fill:none;stroke:#555555;stroke-linecap:square;stroke-width:1.5;"/>
   </g>
   <g id="line2d_2">
    <path clip-path="url(#p4a07f226d3)" style="fill:none;stroke:#bfbfbf;stroke-linecap:square;stroke-width:1.5;"/>
   </g>
   <g id="line2d_3">
    <path clip-path="url(#p4a07f226d3)" d="M 0 0 
" style="fill:none;stroke:#515151;stroke-linecap:square;stroke-width:1.5;"/>
   </g>
   <g id="line2d_4">
    <path clip-path="url(#p4a07f226d3)" style="fill:none;stroke:#9a9a9a;stroke-linecap:square;stroke-width:1.5;"/>
   </g>
   <g id="line2d_5">
    <path clip-path="url(#p4a07f226d3)" d="M 0 0 
" style="fill:none;stroke:#484848;stroke-linecap:square;stroke-width:1.5;"/>
   </g>
   <g id="line2d_6">
    <path clip-path="url(#p4a07f226d3)" d="M 433 146.57206 
L 386.559951 114.797519 
L 386.559951 114.797519 
" style="fill:none;stroke:#bbbbbb;stroke-linecap:square;stroke-width:1.5;"/>
   </g>
   <g id="line2d_7">
    <path clip-path="url(#p4a07f226d3)" d="M 44.979912 -1 
L 44.853098 -0.805973 
L 43.756562 0.864168 
L 42.662269 2.535806 
L 41.571215 4.209518 
L 40.481433 5.884088 
L 39.390191 7.557746 
L 38.29065 9.225711 
L 37.210907 10.906799 
L 36.105866 12.571341 
L 35.015159 14.245211 
L 33.924258 15.918805 
L 32.840122 17.597025 
L 31.750124 19.271394 
L 30.65802 20.944371 
L 29.567835 22.618689 
L 28.470135 24.288111 
L 27.382263 25.963907 
L 26.29673 27.641243 
L 25.19986 29.310897 
L 24.10982 30.98536 
L 23.012979 32.655267 
L 21.930628 34.334597 
L 20.848803 36.014278 
L 19.751515 37.683881 
L 18.659649 39.357162 
L 17.567953 41.030532 
L 16.477116 42.704416 
L 15.386541 44.378465 
L 14.302972 46.05695 
L 13.211475 47.73037 
L 12.115871 49.401165 
L 11.022454 51.073362 
L 9.933598 52.748532 
L 8.842367 54.422208 
L 7.761596 56.102454 
L 6.671738 57.776923 
L 5.571169 59.444448 
L 4.463939 61.107029 
L 3.373028 62.780417 
L 2.277472 64.451224 
L 1.17653 66.11847 
L 0.074856 67.78518 
L -1 69.410833 
" style="fill:none;stroke:#969696;stroke-linecap:square;stroke-width:1.5;"/>
   </g>
   <g id="line2d_8">
    <path clip-path="url(#p4a07f226d3)" d="M 385.882869 250.451868 
L 384.22797 249.386678 
L 382.573071 248.321488 
L 380.919045 247.254942 
L 379.266354 246.186621 
L 377.611226 245.122512 
L 375.961343 244.049763 
L 374.308155 242.981921 
L 372.645307 241.929499 
L 370.98729 240.869412 
L 369.341008 239.791774 
L 367.684862 238.728638 
L 366.028716 237.665503 
L 364.366396 236.61197 
L 362.718507 235.536333 
L 361.053683 234.487532 
L 359.405427 233.412101 
L 357.753094 232.343029 
L 356.098854 231.276934 
L 354.437112 230.222632 
L 352.78148 229.159139 
L 351.127171 228.093487 
L 349.472678 227.027806 
L 347.813758 225.969185 
L 346.164917 224.894713 
L 344.510417 223.828909 
L 342.855917 222.763106 
L 341.201662 221.696921 
L 339.547776 220.630161 
L 337.89171 219.566789 
L 336.234852 218.504674 
L 334.586491 217.429585 
L 332.922973 216.379554 
L 331.275938 215.302299 
L 329.624554 214.231728 
L 327.970753 213.164847 
L 326.318996 212.094807 
L 324.668338 211.023083 
L 323.023612 209.942256 
L 321.367743 208.878764 
L 319.717552 207.806325 
L 318.067948 206.732963 
L 316.415687 205.663851 
L 314.775692 204.57616 
L 313.134716 203.489985 
L 311.484917 202.417407 
L 309.861014 201.306816 
L 308.231061 200.204834 
L 306.566067 199.157142 
L 304.910567 198.092974 
L 303.262085 197.018009 
L 301.604611 195.957416 
L 299.951376 194.889651 
L 298.298141 193.821886 
L 296.645725 192.752858 
L 294.997151 191.677912 
L 293.342289 190.612803 
" style="fill:none;stroke:#4e4e4e;stroke-linecap:square;stroke-width:1.5;"/>
   </g>
   <g id="line2d_9">
    <path clip-path="url(#p4a07f226d3)" d="M 433 264.063494 
L 432.302031 263.619864 
L 430.630043 262.55688 
L 428.957594 261.494623 
L 427.285158 260.432346 
L 425.612778 259.369979 
L 423.940398 258.307612 
L 422.268019 257.245245 
L 420.595639 256.182877 
L 418.923259 255.12051 
L 417.25088 254.058143 
L 415.578111 252.996395 
L 413.903975 251.936818 
L 412.22984 250.87724 
L 410.559532 249.811671 
L 408.889715 248.745518 
L 407.213087 247.690192 
L 405.542452 246.625074 
L 403.871656 245.560209 
L 402.198257 244.499462 
L 400.523764 243.440433 
L 398.848462 242.382674 
L 397.173161 241.324915 
L 395.498085 240.266806 
L 393.822809 239.209022 
L 392.14718 238.15182 
L 390.471926 237.094031 
L 388.796508 236.036498 
L 387.122355 234.976956 
L 385.453543 233.908997 
L 383.786747 232.837896 
L 382.118032 231.769818 
L 380.447565 230.704456 
L 378.775901 229.640961 
L 377.104237 228.577466 
L 375.432865 227.51351 
L 373.761288 226.44987 
L 372.0874 225.389886 
L 370.410074 224.335338 
L 368.741436 223.267203 
L 367.069026 222.204874 
L 365.396616 221.142544 
L 363.724014 220.080522 
L 362.053836 219.014967 
L 360.376185 217.961008 
L 358.704859 216.897006 
L 357.033534 215.833004 
L 355.362207 214.769004 
L 353.688033 213.709531 
L 352.016169 212.646377 
L 350.344596 211.58276 
L 348.671161 210.522074 
L 346.995108 209.465509 
L 345.31883 208.409304 
L 343.642315 207.353498 
L 341.96718 206.295483 
L 340.295579 205.231882 
L 338.623978 204.16828 
L 336.958638 203.095273 
L 335.286478 202.032549 
L 333.614446 200.969624 
L 331.940806 199.909249 
L 330.266122 198.850523 
L 328.592004 197.790954 
L 326.922352 196.724303 
L 325.249477 195.662753 
L 323.576419 194.60146 
L 321.902689 193.541325 
L 320.234282 192.472786 
L 318.562555 191.40939 
L 316.890827 190.345993 
L 315.21548 189.288359 
L 313.545838 188.221948 
L 311.871717 187.162322 
L 310.195958 186.105301 
L 308.518424 185.051133 
L 306.844076 183.991941 
L 305.173027 182.927481 
L 303.498883 181.867904 
L 301.824739 180.808326 
L 300.150595 179.748748 
" style="fill:none;stroke:#9d9d9d;stroke-linecap:square;stroke-width:1.5;"/>
   </g>
   <g id="line2d_10">
    <path clip-path="url(#p4a07f226d3)" style="fill:none;stroke:#a5a5a5;stroke-linecap:square;stroke-width:1.5;"/>
   </g>
   <g id="line2d_11">
    <path clip-path="url(#p4a07f226d3)" d="M -1 214.696692 
L 7.137648 202.427469 
L 7.137648 202.427469 
" style="fill:none;stroke:#949494;stroke-linecap:square;stroke-width:1.5;"/>
   </g>
   <g id="line2d_12">
    <path clip-path="url(#p4a07f226d3)" style="fill:none;stroke:#757575;stroke-linecap:square;stroke-width:1.5;"/>
   </g>
   <g id="line2d_13">
    <path clip-path="url(#p4a07f226d3)" d="M -1 22.317206 
L 0.304894 23.043474 
L 1.915734 23.946445 
L 3.526724 24.849204 
L 5.153615 25.722602 
L 6.786377 26.585277 
L 8.449722 27.386794 
L 10.118565 28.1777 
L 11.788725 28.96556 
L 13.474232 29.717491 
L 15.1728 30.442363 
L 16.879984 31.146752 
L 18.593958 31.83356 
L 20.321988 32.482421 
L 22.060478 33.105052 
L 23.80753 33.701691 
L 25.572963 34.243402 
L 27.33693 34.790025 
L 29.105769 35.318046 
L 30.898004 35.761699 
L 32.684978 36.2265 
L 34.488205 36.62322 
L 36.298349 36.9876 
L 38.114351 37.321946 
L 39.931635 37.64993 
L 41.760571 37.898257 
L 43.594645 38.114313 
L 45.431087 38.299403 
L 47.270711 38.460988 
L 49.113165 38.563291 
L 50.958904 38.623122 
L 52.804435 38.642436 
L 54.650558 38.605663 
L 56.495671 38.550847 
L 58.338166 38.426425 
L 60.178729 38.287658 
L 62.009708 38.051395 
L 63.841171 37.820813 
L 65.661071 37.512113 
L 67.481064 37.20058 
L 69.281324 36.792568 
L 71.077764 36.364578 
L 72.850929 35.851993 
L 74.620361 35.324619 
L 76.367205 34.72959 
L 78.100858 34.093674 
L 79.812625 33.403702 
L 81.503308 32.660982 
L 83.177285 31.883211 
L 84.814178 31.029629 
L 86.427413 30.131269 
L 88.02695 29.209854 
L 89.573624 28.200965 
L 91.113615 27.182191 
L 92.594343 26.07896 
L 94.0669 24.964978 
L 95.47386 23.769732 
L 96.863389 22.554073 
L 98.193887 21.273738 
L 99.494042 19.96298 
L 100.72178 18.583436 
L 101.92842 17.185914 
L 103.065535 15.730815 
L 104.173275 14.253591 
L 105.206102 12.722623 
" style="fill:none;stroke:#8c8c8c;stroke-linecap:square;stroke-width:1.5;"/>
   </g>
   <g id="line2d_14">
    <path clip-path="url(#p4a07f226d3)" style="fill:none;stroke:#9b9b9b;stroke-linecap:square;stroke-width:1.5;"/>
   </g>
   <g id="line2d_15">
    <path clip-path="url(#p4a07f226d3)" d="M 61.368493 121.615953 
L 62.47006 119.974779 
L 63.58182 118.340514 
L 64.694216 116.706673 
L 65.805755 115.072322 
L 66.910292 113.433137 
L 68.015468 111.794387 
L 69.122391 110.156825 
L 70.228806 108.518908 
L 71.337767 106.882732 
L 72.465574 105.259964 
L 73.576231 103.624921 
L 74.686888 101.989877 
L 75.797545 100.354834 
L 76.908273 98.71984 
L 78.021909 97.086843 
L 79.135166 95.453591 
L 80.256212 93.825698 
L 81.384536 92.202852 
L 82.516734 90.583057 
L 83.634564 88.952926 
L 84.750837 87.321717 
L 85.869922 85.692437 
L 86.989847 84.063738 
L 88.109773 82.435038 
L 89.225259 80.803345 
L 90.348051 79.176612 
L 91.469764 77.54914 
L 92.593856 75.923301 
L 93.713726 74.294563 
L 94.831846 72.664632 
L 95.950193 71.034859 
L 97.06854 69.405085 
L 98.187636 67.775823 
L 99.308103 66.147484 
L 100.42742 64.51835 
L 101.542894 62.886595 
L 102.657339 61.254137 
L 103.771097 59.62126 
L 104.889448 57.991486 
L 106.004748 56.359609 
L 107.120048 54.727732 
L 108.221805 53.086719 
L 109.318541 51.442334 
L 110.417331 49.79931 
L 111.51826 48.157704 
L 112.61919 46.516099 
L 113.715985 44.871761 
L 114.810302 43.225787 
L 115.904277 41.579583 
L 117.006536 39.938888 
L 118.103244 38.294552 
L 119.184305 36.639821 
L 120.267687 34.986578 
L 121.351153 33.33339 
L 122.43461 31.680195 
L 123.518339 30.027181 
L 124.601903 28.374087 
L 125.678579 26.716479 
L 126.756639 25.059761 
" style="fill:none;stroke:#848484;stroke-linecap:square;stroke-width:1.5;"/>
   </g>
   <g id="line2d_16">
    <path clip-path="url(#p4a07f226d3)" d="M -1 137.828172 
L -0.217902 136.640657 
L 0.888188 134.974915 
L 2.002759 133.314746 
L 3.109721 131.649529 
L 4.221866 129.987737 
L 5.308879 128.30962 
L 6.416926 126.64513 
L 7.530256 124.984116 
L 8.639024 123.320107 
L 9.749351 121.657103 
L 10.869762 120.000962 
L 11.985273 118.341442 
L 13.097891 116.679945 
L 14.209752 115.01794 
L 15.321613 113.355936 
L 16.433436 111.693958 
L 17.54417 110.031226 
L 18.664037 108.374617 
L 19.781149 106.716163 
L 20.896321 105.056396 
L 22.011931 103.396925 
L 23.125828 101.736486 
L 24.230661 100.070091 
" style="fill:none;stroke:#969696;stroke-linecap:square;stroke-width:1.5;"/>
   </g>
   <g id="line2d_17">
    <path clip-path="url(#p4a07f226d3)" d="M 117.395007 95.00333 
L 119.078322 96.040112 
L 120.738393 97.114128 
L 122.397977 98.189041 
L 124.058034 99.263263 
L 125.714745 100.342584 
L 127.374589 101.417151 
L 129.034433 102.491719 
L 130.69669 103.562538 
L 132.355657 104.638433 
L 134.01403 105.715266 
L 135.682367 106.776359 
L 137.348102 107.841611 
L 139.014709 108.905636 
L 140.680438 109.971044 
L 142.345187 111.037988 
L 144.013562 112.099122 
L 145.672044 113.17558 
L 147.336811 114.24164 
L 149.011656 115.292354 
L 150.67993 116.352467 
L 152.353987 117.404586 
L 154.030464 118.452382 
L 155.686941 119.531583 
L 157.344935 120.608469 
L 159.010434 121.672881 
L 160.674725 122.738832 
L 162.345586 123.795551 
L 164.008484 124.865372 
L 165.674497 125.929703 
L 167.332929 127.006232 
L 168.992045 128.081916 
L 170.648817 129.16112 
L 172.306432 130.239042 
L 173.966639 131.312659 
L 175.625125 132.388413 
L 177.27393 133.478816 
L 178.94471 134.535421 
L 180.613499 135.595997 
L 182.285134 136.651996 
L 183.947901 137.7215 
L 185.606667 138.797477 
L 187.259516 139.882401 
L 188.903992 140.979674 
L 190.568339 142.046701 
L 192.243927 143.096377 
L 193.912035 144.157873 
L 195.576213 145.225605 
L 197.230872 146.307527 
L 198.90261 147.363488 
L 200.574247 148.419608 
L 202.246042 149.475465 
L 203.918724 150.529874 
L 205.591845 151.583615 
L 207.255719 152.651623 
L 208.92082 153.717748 
L 210.593544 154.771717 
L 212.262628 155.831737 
L 213.938533 156.880917 
L 215.612136 157.933841 
L 217.27275 159.006958 
L 218.937934 160.073099 
L 220.604168 161.137684 
L 222.272639 162.198801 
L 223.945508 163.251628 
L 225.622848 164.297516 
L 227.286821 165.365669 
L 228.955762 166.425897 
L 230.619536 167.494297 
L 232.283576 168.562184 
L 233.961905 169.60679 
L 235.643533 170.646362 
L 237.32555 171.68538 
L 238.997383 172.740201 
L 240.670756 173.792364 
L 242.350452 174.834225 
L 244.018127 175.89597 
L 245.685566 176.958147 
L 247.369562 177.993431 
L 249.034908 179.059302 
L 250.701322 180.123594 
L 252.360824 181.19858 
L 254.025213 182.265736 
L 255.678902 183.349437 
L 257.34724 184.409955 
L 259.011994 185.476647 
L 260.677973 186.541546 
L 262.337894 187.61598 
L 264.000336 188.686503 
L 265.662546 189.757225 
L 267.339445 190.804837 
L 269.007569 191.866191 
L 270.657703 192.955224 
L 272.321704 194.023025 
L 273.984014 195.093767 
L 275.645892 196.165171 
L 277.316579 197.222626 
L 278.982843 198.287079 
L 280.644495 199.358599 
L 282.334513 200.383969 
L 284.037679 201.387932 
L 285.746837 202.382136 
" style="fill:none;stroke:#818181;stroke-linecap:square;stroke-width:1.5;"/>
   </g>
   <g id="line2d_18">
    <path clip-path="url(#p4a07f226d3)" d="M 116.483281 19.668518 
L 129.887878 -1 
L 129.887878 -1 
" style="fill:none;stroke:#7d7d7d;stroke-linecap:square;stroke-width:1.5;"/>
   </g>
   <g id="line2d_19">
    <path clip-path="url(#p4a07f226d3)" d="M 386.559951 114.797519 
L 385.36524 113.781915 
L 384.170529 112.766311 
L 383.096317 111.633116 
L 382.11288 110.411902 
L 381.247586 109.11199 
L 380.500901 107.733142 
L 379.827797 106.32338 
L 379.365897 104.824905 
L 378.905193 103.326191 
L 378.745767 101.766421 
L 378.587879 100.206339 
L 378.642121 98.643936 
L 378.765686 97.080764 
L 379.078828 95.549832 
L 379.481708 94.034683 
L 380.012314 92.566649 
L 380.697157 91.156058 
L 381.381999 89.745466 
" style="fill:none;stroke:#a0a0a0;stroke-linecap:square;stroke-width:1.5;"/>
   </g>
   <g id="line2d_20">
    <path clip-path="url(#p4a07f226d3)" style="fill:none;stroke:#bababa;stroke-linecap:square;stroke-width:1.5;"/>
   </g>
   <g id="line2d_21">
    <path clip-path="url(#p4a07f226d3)" d="M 39.798268 109.042695 
L 40.932815 107.427916 
L 42.052404 105.802868 
L 43.177739 104.181738 
L 44.305433 102.562169 
L 45.431956 100.941781 
L 46.555772 99.319528 
L 47.679587 97.697275 
L 48.799214 96.072162 
L 49.936106 94.459598 
L 51.057265 92.835493 
L 52.177519 91.210781 
L 53.292776 89.582843 
L 54.428391 87.968835 
L 55.558247 86.350801 
L 56.688103 84.732768 
L 57.815132 83.112795 
L 58.9421 81.492747 
L 60.065516 79.870227 
L 61.183871 78.244234 
L 62.299431 76.616288 
L 63.416 74.98903 
L 64.529324 73.359569 
L 65.642648 71.730108 
L 66.755235 70.100138 
L 67.866647 68.469358 
L 68.978059 66.838578 
L 70.089471 65.207798 
L 71.20137 63.577347 
L 72.314267 61.947586 
L 73.433838 60.322462 
L 74.549096 58.694327 
L 75.663314 57.065452 
L 76.770701 55.43195 
L 77.872596 53.794726 
L 78.974492 52.157502 
L 80.077955 50.521325 
L 81.181458 48.885174 
L 82.28496 47.249024 
L 83.388235 45.612719 
L 84.491117 43.976147 
L 85.592195 42.338377 
L 86.689147 40.697864 
L 87.786085 39.05734 
L 88.883358 37.417038 
L 89.983078 35.778356 
L 91.082949 34.139773 
L 92.17665 32.49705 
L 93.267594 30.852492 
L 94.352095 29.203696 
L 95.436995 27.555174 
L 96.526625 25.910305 
L 97.620843 24.26809 
L 98.702737 22.617567 
L 99.78463 20.967045 
L 100.860385 19.312706 
L 101.946479 17.664972 
L 103.03302 16.017522 
L 104.119561 14.370072 
L 105.206102 12.722623 
" style="fill:none;stroke:#747474;stroke-linecap:square;stroke-width:1.5;"/>
   </g>
   <g id="line2d_22">
    <path clip-path="url(#p4a07f226d3)" d="M 126.756639 25.059761 
L 141.738226 1.903417 
L 143.625459 -1 
L 143.625459 -1 
" style="fill:none;stroke:#8b8b8b;stroke-linecap:square;stroke-width:1.5;"/>
   </g>
   <g id="line2d_23">
    <path clip-path="url(#p4a07f226d3)" style="fill:none;stroke:#717171;stroke-linecap:square;stroke-width:1.5;"/>
   </g>
   <g id="line2d_24">
    <path clip-path="url(#p4a07f226d3)" style="fill:none;stroke:#5e5e5e;stroke-linecap:square;stroke-width:1.5;"/>
   </g>
   <g id="line2d_25">
    <path clip-path="url(#p4a07f226d3)" d="M -1 49.35795 
L 0.22131 50.266064 
L 1.849444 51.404522 
L 3.477644 52.542548 
L 5.10383 53.683195 
L 6.764446 54.773853 
L 8.436903 55.845586 
L 10.117884 56.904118 
L 11.809328 57.94657 
L 13.502012 58.98665 
L 15.197186 60.021677 
L 16.906261 61.033312 
L 18.624231 62.030989 
L 20.348803 63.017607 
L 22.075346 64.000908 
L 23.821729 64.947364 
L 25.563873 65.902365 
L 27.311172 66.84766 
L 29.060707 67.788962 
L 30.816885 68.718243 
L 32.578747 69.636335 
L 34.345459 70.545125 
L 36.113281 71.451648 
L 37.893202 72.334805 
L 39.679423 73.204315 
L 41.466396 74.072156 
L 43.253012 74.940691 
L 45.036471 75.815376 
L 46.819569 76.691518 
L 48.606048 77.561046 
L 50.396662 78.421648 
L 52.189246 79.277997 
L 53.97988 80.138341 
L 55.770462 80.998994 
L 57.562569 81.85639 
L 59.355141 82.712858 
L 61.15272 83.558484 
L 62.946632 84.412426 
L 64.734358 85.278645 
L 66.526069 86.137021 
L 68.318283 86.994286 
L 70.113385 87.845187 
L 71.907547 88.697939 
L 73.688015 89.578178 
L 75.471026 90.454106 
L 77.245627 91.346968 
L 79.020318 92.239618 
L 80.803311 93.116136 
L 82.572804 94.018272 
L 84.337629 94.929908 
L 86.101188 95.844441 
L 87.858258 96.771704 
L 89.607449 97.713062 
L 91.359376 98.649676 
L 93.09877 99.609336 
L 94.828404 100.586795 
L 96.564968 101.551453 
L 98.277774 102.557317 
L 99.985871 103.571811 
L 101.69866 104.578644 
L 103.402447 105.598491 
L 105.094447 106.639173 
L 106.770634 107.705586 
L 108.441764 108.780013 
" style="fill:none;stroke:#c8c8c8;stroke-linecap:square;stroke-width:1.5;"/>
   </g>
   <g id="line2d_26">
    <path clip-path="url(#p4a07f226d3)" d="M 76.65296 -1 
L 76.087636 -0.098831 
L 75.174171 1.449471 
L 74.27806 3.00764 
L 73.456908 4.605807 
L 72.664203 6.219081 
L 71.915028 7.852434 
L 71.202772 9.502792 
L 70.529615 11.168644 
L 69.926233 12.862109 
L 69.338787 14.560745 
L 68.827252 16.283925 
L 68.315716 18.007106 
L 67.908277 19.757599 
L 67.502529 21.508498 
L 67.179003 23.276393 
L 66.872043 25.04776 
L 66.618255 26.826622 
L 66.402107 28.611133 
L 66.233942 30.399808 
L 66.120527 32.193617 
L 66.023253 33.988012 
L 66.008728 35.785456 
L 66.004497 37.582263 
L 66.078188 39.378442 
L 66.157153 41.174349 
L 66.306802 42.965222 
L 66.469901 44.755351 
L 66.707902 46.536478 
L 66.961761 48.315695 
L 67.268186 50.086389 
L 67.619295 51.849542 
L 67.999993 53.605802 
L 68.442806 55.347854 
L 68.895871 57.08699 
L 69.41674 58.80754 
L 69.940976 60.526956 
L 70.540927 62.221248 
L 71.144591 63.91441 
L 71.822284 65.578176 
L 72.501961 67.242456 
L 73.234452 68.883262 
L 74.004098 70.507745 
L 74.800687 72.118296 
L 75.648866 73.703428 
L 76.498782 75.286673 
L 77.402415 76.840313 
L 78.309207 78.391848 
L 79.289677 79.898261 
L 80.265719 81.407974 
L 81.294111 82.880942 
L 82.35138 84.334461 
L 83.41944 85.780702 
L 84.530759 87.192947 
L 85.666329 88.586064 
L 86.823913 89.960901 
L 88.008784 91.31272 
L 89.20218 92.656072 
L 90.457531 93.942873 
L 91.712202 95.230101 
L 92.992938 96.490619 
L 94.285483 97.739965 
L 95.628895 98.933505 
L 96.978415 100.121137 
L 98.341818 101.29118 
L 99.736283 102.424757 
L 101.12833 103.560336 
L 102.56802 104.636905 
L 104.000936 105.720525 
L 105.482116 106.73921 
L 106.96373 107.756824 
L 108.441764 108.780013 
" style="fill:none;stroke:#5e5e5e;stroke-linecap:square;stroke-width:1.5;"/>
   </g>
   <g id="line2d_27">
    <path clip-path="url(#p4a07f226d3)" d="M 76.646049 -1 
L 76.059295 -0.080962 
L 75.167613 1.514095 
L 74.314205 3.129949 
L 73.55261 4.790905 
L 72.82365 6.466648 
L 72.191087 8.180724 
L 71.597293 9.909182 
L 71.069135 11.658643 
L 70.628902 13.431422 
L 70.253042 15.220097 
L 69.925612 17.017165 
L 69.668328 18.826433 
L 69.471437 20.642199 
L 69.344074 22.464679 
L 69.269844 24.289578 
L 69.282756 26.116371 
L 69.330024 27.943199 
L 69.438285 29.765894 
L 69.62478 31.58399 
L 69.830032 33.397854 
L 70.132588 35.200107 
L 70.433278 37.001971 
L 70.815946 38.788093 
L 71.272729 40.557354 
L 71.754408 42.319311 
L 72.323198 44.055056 
L 72.914917 45.783722 
L 73.549363 47.497051 
L 74.212393 49.19999 
L 74.952331 50.869262 
L 75.727012 52.523784 
L 76.533512 54.163924 
L 77.389394 55.777581 
L 78.286856 57.369633 
L 79.21424 58.94343 
L 80.190348 60.488542 
L 81.186083 62.019986 
L 82.23589 63.51577 
L 83.296964 65.003253 
L 84.401812 66.458877 
L 85.520717 67.903645 
L 86.691147 69.30686 
L 87.873008 70.700746 
L 89.105743 72.049262 
L 90.329828 73.406169 
L 91.599977 74.718949 
L 92.877721 76.025696 
L 94.176935 77.309898 
L 95.509962 78.560329 
L 96.864584 79.786531 
L 98.240327 80.989554 
L 99.616152 82.192497 
L 101.028785 83.351899 
L 102.445116 84.506732 
L 103.889599 85.626277 
L 105.338483 86.739447 
L 106.815384 87.81608 
L 108.296384 88.886747 
L 109.777346 89.957121 
L 111.283813 90.992022 
L 112.799702 92.012815 
L 114.330389 93.011473 
L 115.865722 94.003075 
L 117.395007 95.00333 
" style="fill:none;stroke:#737373;stroke-linecap:square;stroke-width:1.5;"/>
   </g>
   <g id="line2d_28">
    <path clip-path="url(#p4a07f226d3)" d="M 379.672818 124.854592 
L 389.422842 131.55652 
L 430.088489 159.402067 
L 433 161.384346 
L 433 161.384346 
" style="fill:none;stroke:#8c8c8c;stroke-linecap:square;stroke-width:1.5;"/>
   </g>
   <g id="line2d_29">
    <path clip-path="url(#p4a07f226d3)" d="M 300.130916 179.76843 
L 298.454241 178.710453 
L 296.781831 177.645576 
L 295.111672 176.576982 
L 293.440821 175.509455 
L 291.76997 174.441928 
L 290.099119 173.374402 
L 288.428268 172.306875 
L 286.757417 171.239349 
L 285.085017 170.174267 
L 283.409181 169.114608 
L 281.738359 168.047055 
L 280.066276 166.981457 
L 278.394193 165.91586 
L 276.719582 164.854273 
L 275.050596 163.783874 
L 273.380363 162.715397 
L 271.705776 161.653814 
L 270.03578 160.585896 
L 268.383292 159.491108 
L 266.71026 158.427035 
L 265.037228 157.362961 
L 263.36554 156.296834 
L 261.690725 155.235652 
L 260.012166 154.180354 
L 258.347153 153.105344 
L 256.670098 152.048097 
L 254.992193 150.99197 
L 253.322663 149.922896 
L 251.649948 148.858687 
L 249.987816 147.777675 
L 248.309524 146.722288 
L 246.64259 145.648782 
L 244.967534 144.587972 
L 243.291695 143.528383 
L 241.616103 142.468343 
L 239.940894 141.407674 
L 238.269618 140.340834 
L 236.600646 139.270371 
L 234.931675 138.199908 
L 233.259772 137.134076 
L 231.586229 136.070814 
L 229.914053 135.00537 
L 228.245153 133.934884 
L 226.576219 132.864418 
L 224.905882 131.796086 
L 223.235546 130.727753 
L 221.562061 129.664444 
L 219.888763 128.600774 
L 218.21188 127.543128 
L 216.53079 126.49244 
L 214.864248 125.418214 
L 213.188735 124.358064 
L 211.511102 123.301228 
L 209.83305 122.245139 
L 208.161586 121.178659 
L 206.488811 120.114238 
L 204.811084 119.057569 
L 203.136902 117.995291 
L 201.4636 116.93163 
L 199.785771 115.875199 
L 198.110438 114.814749 
L 196.435168 113.754206 
L 194.755179 112.701195 
L 193.086491 111.630687 
L 191.428559 110.543401 
L 189.750139 109.488477 
L 188.061413 108.449475 
L 186.387552 107.387296 
L 184.710355 106.329841 
L 183.034171 105.270788 
L 181.360349 104.208001 
L 179.688934 103.141385 
L 178.015108 102.07855 
L 176.339024 101.019272 
L 174.662003 99.961556 
L 172.991911 98.892862 
L 171.3268 97.81671 
L 169.644958 96.767099 
L 167.966886 95.711149 
L 166.282436 94.665416 
L 164.606329 93.607907 
L 162.941346 92.531606 
L 161.256218 91.487501 
L 159.586061 90.419113 
L 157.909591 89.360514 
L 156.236487 88.296555 
L 154.563383 87.232596 
L 152.886168 86.1751 
L 151.214181 85.109425 
L 149.542599 84.04311 
L 147.86811 82.981308 
L 146.193895 81.919073 
L 144.518734 80.858339 
L 142.843305 79.79803 
L 141.16776 78.737905 
L 139.490521 77.680464 
L 137.816905 76.61732 
L 136.149126 75.545081 
L 134.486624 74.464623 
L 132.82446 73.38364 
L 131.162849 72.301828 
L 129.49613 71.228771 
" style="fill:none;stroke:#535353;stroke-linecap:square;stroke-width:1.5;"/>
   </g>
   <g id="line2d_30">
    <path clip-path="url(#p4a07f226d3)" d="M 433 248.853919 
L 432.555962 248.572282 
L 430.886099 247.506241 
L 429.214607 246.442743 
L 427.539197 245.385363 
L 425.863788 244.327983 
L 424.188482 243.27044 
L 422.517378 242.206314 
L 420.845097 241.144016 
L 419.171956 240.08306 
L 417.498815 239.022104 
L 415.825674 237.961148 
L 414.154546 236.897023 
L 412.488003 235.825911 
L 410.815039 234.764714 
L 409.141772 233.703988 
L 407.468249 232.643661 
L 405.79244 231.587014 
L 404.128146 230.512618 
L 402.455712 229.450559 
L 400.779891 228.393857 
L 399.10139 227.341393 
L 397.427177 226.28214 
L 395.753744 225.221652 
L 394.080311 224.161163 
L 392.406878 223.100674 
L 390.732721 222.041322 
L 389.059833 220.979954 
L 387.387058 219.918408 
L 385.710602 218.862871 
L 384.034267 217.807157 
L 382.360138 216.74775 
L 380.686009 215.688343 
L 379.011263 214.629917 
L 377.332881 213.577327 
L 375.65904 212.517512 
L 373.988756 211.452096 
L 372.316777 210.389317 
L 370.644797 209.326537 
L 368.972817 208.263758 
L 367.300838 207.200978 
L 365.628946 206.138059 
L 363.957143 205.074999 
L 362.284406 204.013403 
L 360.611611 202.951897 
L 358.940554 201.887674 
L 357.269497 200.823451 
L 355.599912 199.756915 
L 353.927842 198.694348 
L 352.257913 197.628387 
L 350.580485 196.574576 
L 348.910922 195.507991 
L 347.239511 194.444301 
L 345.567501 193.381551 
L 343.89549 192.318801 
L 342.22348 191.256051 
L 340.551728 190.192899 
L 338.888165 189.117016 
L 337.21042 188.063444 
L 335.532938 187.009447 
L 333.855455 185.95545 
L 332.183265 184.893564 
L 330.503844 183.842975 
L 328.834356 182.77627 
L 327.164868 181.709565 
L 325.49538 180.642859 
L 323.825892 179.576154 
L 322.156373 178.509496 
L 320.48554 177.444897 
L 318.814706 176.380298 
L 317.143873 175.315699 
L 315.473039 174.2511 
L 313.801279 173.187957 
L 312.126456 172.129706 
L 310.448128 171.077053 
L 308.772221 170.020501 
L 307.096662 168.963389 
" style="fill:none;stroke:#646464;stroke-linecap:square;stroke-width:1.5;"/>
   </g>
   <g id="line2d_31">
    <path clip-path="url(#p4a07f226d3)" d="M 433 274.91029 
L 431.497481 274.219979 
L 429.698642 273.393646 
L 427.899804 272.567313 
L 426.100965 271.74098 
L 424.302126 270.914646 
L 422.505673 270.084103 
L 420.714497 269.244216 
L 418.929382 268.388389 
L 417.144266 267.532562 
L 415.360708 266.674071 
L 413.582101 265.8064 
L 411.808132 264.927096 
L 410.037332 264.042583 
L 408.276683 263.140528 
L 406.517873 262.233341 
L 404.755047 261.33266 
L 402.994628 260.428167 
L 401.251123 259.492842 
L 399.513918 258.543088 
L 397.780073 257.588375 
L 396.074029 256.587114 
L 394.364658 255.587198 
L 392.647499 254.600806 
L 390.935209 253.609602 
L 389.249446 252.573482 
L 387.566159 251.532355 
L 385.882872 250.491228 
" style="fill:none;stroke:#333333;stroke-linecap:square;stroke-width:1.5;"/>
   </g>
   <g id="line2d_32">
    <path clip-path="url(#p4a07f226d3)" d="M -1 191.794536 
L -0.266614 190.726625 
L 0.853038 189.093071 
L 1.980359 187.464693 
L 3.097472 185.829285 
L 4.215642 184.194593 
L 5.34107 182.564814 
L 6.469415 180.93734 
L 7.577239 179.295656 
L 8.69541 177.660933 
L 9.814584 176.026954 
L 10.933758 174.392974 
L 12.052932 172.758995 
L 13.17384 171.126184 
L 14.296865 169.4948 
L 15.417183 167.861589 
L 16.5382 166.228844 
L 17.65067 164.590355 
L 18.770654 162.956848 
L 19.893762 161.325531 
L 21.014032 159.692237 
L 22.128685 158.055283 
L 23.24773 156.421204 
L 24.366774 154.787125 
L 25.485819 153.153047 
L 26.60606 151.519773 
L 27.726807 149.886839 
L 28.847555 148.253905 
L 29.968302 146.620972 
L 31.089418 144.98825 
L 32.206902 143.353096 
L 33.326343 141.719289 
L 34.446753 140.086127 
L 35.561743 138.449205 
L 36.687712 136.81996 
L 37.811064 135.188891 
L 38.924909 133.551206 
L 40.040656 131.914863 
L 41.15821 130.279819 
L 42.278735 128.646774 
L 43.400136 127.014257 
L 44.515455 125.377568 
L 45.632793 123.742341 
L 46.748333 122.105834 
L 47.865061 120.470147 
L 48.983455 118.835614 
L 50.106996 117.204637 
L 51.232847 115.575284 
" style="fill:none;stroke:#4e4e4e;stroke-linecap:square;stroke-width:1.5;"/>
   </g>
   <g id="line2d_33">
    <path clip-path="url(#p4a07f226d3)" style="fill:none;stroke:#b8b8b8;stroke-linecap:square;stroke-width:1.5;"/>
   </g>
   <g id="line2d_34">
    <path clip-path="url(#p4a07f226d3)" style="fill:none;stroke:#383838;stroke-linecap:square;stroke-width:1.5;"/>
   </g>
   <g id="line2d_35">
    <path clip-path="url(#p4a07f226d3)" d="M 0 0 
" style="fill:none;stroke:#595959;stroke-linecap:square;stroke-width:1.5;"/>
   </g>
   <g id="line2d_36">
    <path clip-path="url(#p4a07f226d3)" d="M 0 0 
" style="fill:none;stroke:#4b4b4b;stroke-linecap:square;stroke-width:1.5;"/>
   </g>
   <g id="line2d_37">
    <path clip-path="url(#p4a07f226d3)" style="fill:none;stroke:#636363;stroke-linecap:square;stroke-width:1.5;"/>
   </g>
   <g id="line2d_38">
    <path clip-path="url(#p4a07f226d3)" d="M 122.372928 82.033781 
L 120.807314 81.043209 
L 119.243017 80.050442 
L 117.672974 79.066788 
L 116.084891 78.112744 
L 114.495367 77.161019 
L 112.902702 76.21442 
L 111.302179 75.281668 
L 109.691414 74.366322 
L 108.071498 73.46713 
L 106.447275 72.575878 
L 104.809847 71.709035 
L 103.169747 70.847536 
L 101.514919 70.01472 
L 99.849729 69.202459 
L 98.18355 68.392168 
L 96.50727 67.603575 
L 94.817641 66.843565 
L 93.127107 66.085404 
L 91.422143 65.361028 
L 89.705981 64.662843 
L 87.990017 63.964177 
L 86.264606 63.290138 
L 84.524362 62.654365 
L 82.777158 62.039167 
L 81.013248 61.472396 
L 79.249337 60.905626 
L 77.481241 60.352989 
L 75.700184 59.843149 
L 73.913905 59.352452 
L 72.115072 58.909919 
L 70.31291 58.479919 
L 68.508421 58.061072 
L 66.692333 57.696958 
L 64.870923 57.35837 
L 63.042481 57.062111 
L 61.209461 56.79261 
L 59.375673 56.528639 
L 57.536273 56.313131 
L 55.691481 56.141726 
L 53.844065 56.010665 
L 51.993896 55.915568 
L 50.143113 55.851619 
L 48.290696 55.829772 
L 46.438617 55.836851 
L 44.587047 55.895574 
L 42.736253 55.978052 
L 40.888342 56.098752 
L 39.043683 56.265343 
L 37.202703 56.467712 
L 35.36842 56.723711 
L 33.538445 57.010295 
L 31.719698 57.361264 
L 29.90448 57.731183 
L 28.102285 58.158056 
L 26.304903 58.60729 
L 24.522229 59.109307 
L 22.760003 59.67875 
L 21.006136 60.275542 
L 19.270066 60.919704 
L 17.551124 61.610919 
L 15.847916 62.338197 
L 14.170984 63.125709 
L 12.507887 63.940867 
L 10.869688 64.80607 
L 9.24403 65.69301 
L 7.661682 66.656167 
L 6.102677 67.656845 
L 4.57364 68.701968 
L 3.07054 69.785211 
L 1.597978 70.908679 
L 0.170072 72.08924 
L -1 73.091211 
" style="fill:none;stroke:#999999;stroke-linecap:square;stroke-width:1.5;"/>
   </g>
   <g id="line2d_39">
    <path clip-path="url(#p4a07f226d3)" style="fill:none;stroke:#6e6e6e;stroke-linecap:square;stroke-width:1.5;"/>
   </g>
   <g id="line2d_40">
    <path clip-path="url(#p4a07f226d3)" d="M 51.232847 115.575284 
L 52.382443 113.938645 
L 53.516894 112.291455 
L 54.646206 110.640717 
L 55.77449 108.989269 
L 56.908486 107.341789 
L 58.047378 105.697721 
L 59.184261 104.052238 
L 60.321651 102.407146 
L 61.455918 100.75988 
L 62.587089 99.110449 
L 63.721271 97.463098 
L 64.857353 95.817022 
L 65.994653 94.171778 
L 67.131953 92.526534 
L 68.266056 90.879111 
L 69.399727 89.231394 
L 70.533398 87.583677 
L 71.667245 85.936084 
L 72.802402 84.28941 
L 73.929647 82.637444 
L 75.062464 80.989103 
L 76.208226 79.350064 
L 77.342756 77.702906 
L 78.477286 76.055748 
L 79.612169 74.408836 
L 80.749028 72.763297 
L 81.88302 71.115806 
L 83.015103 69.467016 
L 84.147186 67.818226 
L 85.275896 66.167141 
L 86.398022 64.511543 
L 87.524566 62.858942 
L 88.651109 61.20634 
L 89.777653 59.553738 
L 90.906239 57.902517 
L 92.034538 56.251093 
L 93.162757 54.599613 
L 94.288211 52.946281 
L 95.407529 51.288835 
L 96.523622 49.629164 
L 97.641292 47.970542 
L 98.759595 46.312342 
L 99.879376 44.655131 
L 100.998852 42.997716 
L 102.114885 41.338008 
L 103.228067 39.676412 
L 104.341495 38.014983 
L 105.454771 36.353471 
L 106.563389 34.688847 
L 107.665718 33.019979 
L 108.768046 31.351111 
L 109.870374 29.682243 
L 110.972702 28.013376 
L 112.075034 26.34451 
L 113.176215 24.674893 
L 114.286115 23.011195 
L 115.38553 21.340409 
L 116.483281 19.668518 
" style="fill:none;stroke:#7f7f7f;stroke-linecap:square;stroke-width:1.5;"/>
   </g>
   <g id="line2d_41">
    <path clip-path="url(#p4a07f226d3)" style="fill:none;stroke:#737373;stroke-linecap:square;stroke-width:1.5;"/>
   </g>
   <g id="line2d_42">
    <path clip-path="url(#p4a07f226d3)" d="M 129.49613 71.228771 
L 127.836803 70.143973 
L 126.184148 69.049107 
L 124.508706 67.989886 
L 122.850643 66.903094 
L 121.184252 65.829341 
L 119.520783 64.751277 
L 117.862322 63.66519 
L 116.199917 62.585042 
L 114.539311 61.502327 
L 112.866637 60.439003 
L 111.188493 59.383414 
L 109.516625 58.31842 
L 107.842114 57.257246 
L 106.170277 56.191983 
L 104.501319 55.122005 
L 102.823304 54.066811 
L 101.149486 53.004604 
L 99.475762 51.942253 
L 97.803058 50.878593 
L 96.124417 49.82405 
L 94.44874 48.76475 
L 92.768765 47.712312 
L 91.088797 46.659861 
L 89.406651 45.610801 
L 87.728853 44.554687 
L 86.053026 43.495815 
L 84.379565 42.43294 
L 82.690905 41.394649 
L 81.008118 40.346714 
L 79.324407 39.300325 
L 77.643156 38.24983 
L 75.96192 37.199311 
L 74.280711 36.148751 
L 72.599502 35.098191 
L 70.918293 34.047632 
L 69.237083 32.997072 
L 67.557335 31.944282 
L 65.87717 30.892027 
L 64.195833 29.841542 
L 62.514183 28.791685 
L 60.830411 27.745404 
L 59.147643 26.697542 
L 57.466289 25.647163 
L 55.782564 24.600632 
L 54.10216 23.548903 
L 52.421756 22.497174 
L 50.741352 21.445445 
L 49.059105 20.396834 
L 47.382076 19.339485 
L 45.702397 18.286419 
L 44.020049 17.237663 
L 42.337844 16.188777 
L 40.657589 15.136755 
L 38.975008 14.088337 
L 37.294282 13.037029 
L 35.614665 11.983928 
L 33.935804 10.929588 
L 32.251298 9.884907 
L 30.579642 8.819171 
L 28.90397 7.759829 
L 27.22433 6.706833 
L 25.549439 5.646385 
L 23.881984 4.574489 
L 22.20589 3.516063 
L 20.535028 2.449012 
L 18.854195 1.398605 
L 17.186776 0.326073 
L 15.523121 -0.751949 
L 15.133571 -1 
" style="fill:none;stroke:#777777;stroke-linecap:square;stroke-width:1.5;"/>
   </g>
   <g id="line2d_43">
    <path clip-path="url(#p4a07f226d3)" style="fill:none;stroke:#7d7d7d;stroke-linecap:square;stroke-width:1.5;"/>
   </g>
   <g id="line2d_44">
    <path clip-path="url(#p4a07f226d3)" d="M 2.109722 92.967501 
L -1 97.690926 
L -1 97.690926 
" style="fill:none;stroke:#6f6f6f;stroke-linecap:square;stroke-width:1.5;"/>
   </g>
   <g id="line2d_45">
    <path clip-path="url(#p4a07f226d3)" d="M 30.810381 -1 
L 30.581252 -0.659461 
L 29.469862 1.001961 
L 28.365467 2.668026 
L 27.261564 4.334448 
L 26.15774 6.000883 
L 25.036889 7.655898 
L 23.925425 9.317147 
L 22.812233 10.977391 
L 21.696004 12.635602 
L 20.587543 14.298983 
L 19.482225 15.964349 
L 18.370365 17.625448 
L 17.264129 19.290278 
L 16.16032 20.956707 
L 15.041126 22.612819 
L 13.93002 24.274404 
L 12.821384 25.937614 
L 11.716752 27.603514 
L 10.611304 29.268925 
L 9.50224 30.931919 
L 8.383732 32.588589 
L 7.272052 34.249812 
L 6.153178 35.906174 
L 5.04623 37.570565 
L 3.937708 39.233923 
L 2.829185 40.897282 
L 1.725499 42.563817 
L 0.627628 44.234109 
L -0.480144 45.897962 
L -1 46.684691 
" style="fill:none;stroke:#575757;stroke-linecap:square;stroke-width:1.5;"/>
   </g>
   <g id="line2d_46">
    <path clip-path="url(#p4a07f226d3)" d="M -1 22.545616 
L 0.153949 23.27672 
L 1.740054 24.220521 
L 3.318743 25.177054 
L 4.904205 26.122192 
L 6.5066 27.037777 
L 8.113811 27.944612 
L 9.713957 28.864473 
L 11.347149 29.723999 
L 12.985962 30.573136 
L 14.616634 31.438117 
L 16.261349 32.275965 
L 17.911958 33.102148 
L 19.564984 33.923241 
L 21.254012 34.66758 
L 22.943376 35.411406 
L 24.623315 36.175971 
L 26.328356 36.882266 
L 28.031635 37.593003 
L 29.756682 38.248083 
L 31.492897 38.874445 
L 33.229345 39.50012 
L 34.975279 40.097696 
L 36.731506 40.665631 
L 38.496203 41.204789 
L 40.273202 41.70313 
L 42.056739 42.175459 
L 43.852529 42.601977 
L 45.647112 43.030238 
L 47.460519 43.374064 
L 49.271792 43.727748 
L 51.0907 44.036569 
L 52.916431 44.306546 
L 54.745165 44.555785 
L 56.581046 44.740544 
L 58.417966 44.917727 
L 60.259999 45.020157 
L 62.103869 45.100859 
L 63.948078 45.134706 
L 65.793613 45.134759 
L 67.63716 45.07402 
L 69.479477 44.9624 
L 71.318371 44.818588 
L 73.15571 44.651509 
L 74.987559 44.43038 
L 76.812473 44.160549 
L 78.629717 43.839768 
L 80.434823 43.460415 
L 82.233004 43.044032 
L 84.012575 42.558158 
L 85.783179 42.036855 
L 87.533896 41.457376 
L 89.272356 40.837033 
L 90.993363 40.173264 
L 92.690121 39.446624 
L 94.370626 38.686255 
L 96.018176 37.854461 
L 97.653793 37.00175 
L 99.236995 36.052969 
L 100.8148 35.096048 
L 102.332552 34.045772 
L 103.849963 32.994949 
L 105.294641 31.846279 
L 106.736407 30.693725 
L 108.106806 29.458031 
L 109.462912 28.206026 
L 110.758597 26.891871 
L 112.020199 25.545091 
L 113.191488 24.118762 
L 114.335665 22.670359 
L 115.430943 21.184993 
L 116.483281 19.668518 
" style="fill:none;stroke:#424242;stroke-linecap:square;stroke-width:1.5;"/>
   </g>
   <g id="line2d_47">
    <path clip-path="url(#p4a07f226d3)" d="M 61.368493 121.615953 
L 62.277215 120.249633 
L 63.264414 118.938619 
L 64.299247 117.664601 
L 65.371747 116.418759 
L 66.497364 115.224764 
L 67.663158 114.066669 
L 68.873668 112.955431 
L 70.140444 111.910029 
L 71.440956 110.90255 
L 72.789029 109.96101 
L 74.181091 109.084826 
L 75.603966 108.258865 
L 77.059419 107.4928 
L 78.551726 106.803051 
L 80.079152 106.190338 
L 81.627916 105.635569 
L 83.201872 105.157898 
L 84.796078 104.749715 
L 86.406704 104.415868 
L 88.036248 104.196094 
L 89.673369 104.02856 
L 91.315813 103.943878 
L 92.960209 103.96112 
L 94.602849 104.041921 
L 96.236047 104.236315 
L 97.858949 104.498968 
L 99.467637 104.836148 
L 101.049415 105.282391 
L 102.603274 105.815489 
L 104.127761 106.425414 
L 105.613797 107.124134 
L 107.055679 107.903843 
L 108.441764 108.780013 
" style="fill:none;stroke:#c4c4c4;stroke-linecap:square;stroke-width:1.5;"/>
   </g>
   <g id="line2d_48">
    <path clip-path="url(#p4a07f226d3)" d="M 105.206102 12.722623 
L 114.251033 -1 
L 114.251033 -1 
" style="fill:none;stroke:#6e6e6e;stroke-linecap:square;stroke-width:1.5;"/>
   </g>
   <g id="line2d_49">
    <path clip-path="url(#p4a07f226d3)" style="fill:none;stroke:#c2c2c2;stroke-linecap:square;stroke-width:1.5;"/>
   </g>
   <g id="line2d_50">
    <path clip-path="url(#p4a07f226d3)" d="M 381.381999 89.745466 
L 404.049385 53.728276 
L 405.132666 52.345917 
L 410.339415 53.244547 
L 413.866668 54.167277 
L 417.376208 55.534389 
L 420.793136 57.26514 
L 422.460443 58.226204 
L 433 65.424404 
L 433 65.424404 
" style="fill:none;stroke:#b4b4b4;stroke-linecap:square;stroke-width:1.5;"/>
   </g>
   <g id="line2d_51">
    <path clip-path="url(#p4a07f226d3)" style="fill:none;stroke:#959595;stroke-linecap:square;stroke-width:1.5;"/>
   </g>
   <g id="line2d_52">
    <path clip-path="url(#p4a07f226d3)" style="fill:none;stroke:#5a5a5a;stroke-linecap:square;stroke-width:1.5;"/>
   </g>
   <g id="line2d_53">
    <path clip-path="url(#p4a07f226d3)" style="fill:none;stroke:#595959;stroke-linecap:square;stroke-width:1.5;"/>
   </g>
   <g id="line2d_54">
    <path clip-path="url(#p4a07f226d3)" d="M 293.342289 190.612803 
L 291.682645 189.557525 
L 290.024324 188.500179 
L 288.370144 187.436382 
L 286.713216 186.376915 
L 285.061766 185.308846 
L 283.405656 184.248085 
L 281.748115 183.189562 
L 280.084364 182.140754 
L 278.421182 181.091045 
L 276.759793 180.038503 
L 275.098404 178.985961 
L 273.436322 177.93452 
L 271.773869 176.883668 
L 270.118369 175.822166 
L 268.459378 174.766095 
L 266.78958 173.727284 
L 265.12846 172.674423 
L 263.468965 171.618985 
L 261.804811 170.57096 
L 260.142211 169.520396 
L 258.476085 168.475453 
L 256.810999 167.429039 
L 255.161847 166.358094 
L 253.503626 165.300671 
L 251.83912 164.253208 
L 250.165943 163.219662 
L 248.513525 162.153759 
L 246.853466 161.099188 
L 245.18591 160.056518 
L 243.528196 158.998498 
L 241.863624 157.952156 
L 240.197393 156.907681 
L 238.537593 155.853008 
L 236.874115 154.803823 
L 235.216534 153.745375 
L 233.568136 152.672765 
L 231.891578 151.645148 
L 230.226868 150.597876 
L 228.562443 149.550141 
L 226.904008 148.493064 
L 225.24619 147.435515 
L 223.584876 146.383284 
L 221.917168 145.341332 
L 220.253904 144.291994 
L 218.598739 143.229715 
L 216.932052 142.185659 
L 215.274568 141.12714 
L 213.622517 140.060003 
L 211.964921 139.001519 
L 210.296331 137.960747 
L 208.646768 136.890015 
L 206.999774 135.81529 
L 205.319505 134.793345 
L 203.654084 133.747598 
L 202.009045 132.669739 
L 200.342758 131.625478 
L 198.682899 130.570693 
L 197.020147 129.520726 
L 195.363976 128.460181 
L 193.686538 127.434356 
L 192.038752 126.361008 
L 190.376809 125.309429 
L 188.711059 124.26395 
L 187.061038 123.194129 
L 185.398976 122.142782 
L 183.740007 121.086654 
L 182.084088 120.027395 
L 180.421903 118.976741 
L 178.761271 117.923316 
L 177.10034 116.870049 
L 175.440555 115.816059 
L 173.78678 114.753404 
L 172.129036 113.695134 
L 170.467881 112.642352 
L 168.801716 111.597549 
L 167.14161 110.543105 
L 165.479343 109.491955 
L 163.818927 108.437873 
L 162.170855 107.364924 
L 160.516865 106.301061 
L 158.849862 105.257433 
L 157.186565 104.208298 
L 155.536029 103.139432 
L 153.870362 102.094375 
L 152.200186 101.056259 
L 150.547487 99.990508 
L 148.886725 98.93707 
L 147.239897 97.862142 
L 145.577957 96.812207 
L 143.911272 95.768738 
L 142.241541 94.730392 
L 140.59961 93.648176 
L 138.939899 92.59303 
L 137.28181 91.535297 
L 135.624323 90.476619 
L 133.966835 89.417941 
L 132.305707 88.365005 
L 130.646953 87.308325 
L 128.989731 86.24923 
L 127.332276 85.1905 
L 125.674436 84.132372 
L 124.024427 83.062258 
L 122.372925 81.994421 
" style="fill:none;stroke:#979797;stroke-linecap:square;stroke-width:1.5;"/>
   </g>
   <g id="line2d_55">
    <path clip-path="url(#p4a07f226d3)" d="M 307.096662 168.963389 
L 305.430848 167.910316 
L 303.765033 166.857243 
L 302.099222 165.804165 
L 300.433829 164.750429 
L 298.773642 163.688477 
L 297.113456 162.626525 
L 295.453269 161.564574 
L 293.793083 160.502622 
L 292.132896 159.440671 
L 290.47271 158.378719 
L 288.812523 157.316768 
L 287.152337 156.254816 
L 285.490724 155.19512 
L 283.826405 154.139703 
L 282.170804 153.070722 
L 280.512796 152.005477 
L 278.848417 150.950115 
L 277.17804 149.904505 
L 275.52022 148.838907 
L 273.862486 147.773173 
L 272.204196 146.708296 
L 270.545566 145.643943 
L 268.884403 144.583666 
L 267.206395 143.550495 
L 265.5477 142.48635 
L 263.885346 141.427812 
L 262.221393 140.371769 
L 260.553382 139.322242 
L 258.894203 138.258733 
L 257.233671 137.197339 
L 255.569995 136.140863 
L 253.906318 135.084387 
L 252.242899 134.027505 
L 250.580563 132.968919 
L 248.919592 131.9082 
L 247.256353 130.851154 
L 245.597039 129.788078 
L 243.943965 128.715222 
L 242.28495 127.651632 
L 240.630657 126.580527 
L 238.975325 125.511046 
L 237.309213 124.458474 
L 235.643208 123.405736 
L 233.985279 122.340363 
L 232.320866 121.285119 
L 230.657936 120.227587 
L 228.998333 119.165018 
L 227.335655 118.106979 
L 225.672327 117.049958 
L 224.007895 115.994713 
L 222.345197 114.93674 
L 220.678464 113.885129 
L 219.010355 112.835691 
L 217.341912 111.78679 
L 215.67084 110.742079 
L 214.00183 109.694047 
L 212.332884 108.645914 
L 210.66291 107.599468 
L 208.999022 106.543333 
L 207.335549 105.486541 
L 205.673596 104.42737 
L 204.011644 103.368199 
L 202.349691 102.309028 
L 200.684431 101.255054 
L 199.0182 100.202609 
L 197.351838 99.150371 
L 195.68535 98.098333 
L 194.018507 97.046858 
L 192.351665 95.995382 
L 190.684822 94.943907 
L 189.017397 93.893355 
L 187.349418 92.843683 
L 185.681439 91.794012 
L 184.014344 90.742946 
L 182.349868 89.687752 
L 180.684762 88.633561 
L 179.018395 87.58135 
L 177.354611 86.525047 
L 175.691003 85.468462 
L 174.025476 84.414912 
L 172.359949 83.361362 
L 170.694422 82.307812 
L 169.039553 81.23771 
L 167.384999 80.167119 
L 165.730445 79.096528 
L 164.075892 78.025937 
L 162.421338 76.955345 
L 160.767608 75.883555 
L 159.134087 74.782515 
L 157.500302 73.681893 
L 155.878996 72.564485 
L 154.289969 71.407718 
L 152.736596 70.208923 
L 151.182724 69.01092 
L 149.695905 67.751903 
L 148.258775 66.44751 
L 146.825115 65.137703 
L 145.396454 63.820091 
L 144.039672 62.455198 
L 142.718746 61.069846 
L 141.396833 59.685062 
L 140.073607 58.301043 
L 138.744449 56.92048 
" style="fill:none;stroke:#bfbfbf;stroke-linecap:square;stroke-width:1.5;"/>
   </g>
   <g id="line2d_56">
    <path clip-path="url(#p4a07f226d3)" d="M 51.232847 115.575284 
L 52.220518 114.216819 
L 53.285477 112.919316 
L 54.410084 111.673128 
L 55.591602 110.482202 
L 56.828145 109.348961 
L 58.119248 108.276879 
L 59.457404 107.260913 
L 60.851744 106.32547 
L 62.284922 105.45109 
L 63.766895 104.666319 
L 65.275935 103.930455 
L 66.815868 103.262861 
L 68.385204 102.667963 
L 69.977436 102.141487 
L 71.601137 101.716706 
L 73.233822 101.32152 
L 74.88245 101.015501 
L 76.542196 100.760874 
L 78.211467 100.590053 
L 79.885404 100.476823 
L 81.563011 100.441304 
L 83.241019 100.476847 
L 84.91841 100.554111 
L 86.587329 100.726161 
L 88.254386 100.929722 
L 89.90621 101.219889 
L 91.551179 101.549535 
L 93.180805 101.950098 
L 94.79385 102.413551 
L 96.394726 102.920741 
L 97.972533 103.491025 
L 99.54138 104.089785 
L 101.079601 104.759288 
L 102.602593 105.46664 
L 104.101325 106.226246 
L 105.567909 107.041776 
L 107.00497 107.910929 
L 108.441764 108.780013 
" style="fill:none;stroke:#363636;stroke-linecap:square;stroke-width:1.5;"/>
   </g>
   <g id="line2d_57">
    <path clip-path="url(#p4a07f226d3)" d="M 24.230661 100.070091 
L 25.205016 98.523032 
L 26.179371 96.975973 
L 27.083013 95.386495 
L 27.980684 93.793583 
L 28.823101 92.171393 
L 29.641038 90.536144 
L 30.402535 88.874412 
L 31.139486 87.201143 
L 31.841487 85.513267 
L 32.500782 83.80801 
L 33.142445 82.096242 
L 33.730127 80.364827 
L 34.29423 78.625666 
L 34.79818 76.868229 
L 35.273131 75.102876 
L 35.68861 73.322337 
L 36.088259 71.538168 
L 36.432744 69.742721 
L 36.754263 67.943167 
L 37.028778 66.135523 
L 37.251618 64.320916 
L 37.429198 62.501395 
L 37.579563 60.679209 
L 37.681158 58.853719 
L 37.741552 57.026255 
L 37.755267 55.198146 
L 37.715989 53.370101 
L 37.668675 51.542199 
L 37.552015 49.71751 
L 37.404311 47.895196 
L 37.201344 46.078205 
L 36.963938 44.265497 
L 36.672372 42.460544 
L 36.354106 40.660081 
L 35.987796 38.868874 
L 35.594812 37.083355 
L 35.143933 35.31159 
L 34.661195 33.548153 
L 34.116809 31.802776 
L 33.542079 30.066983 
L 32.931258 28.343653 
L 32.273123 26.638086 
L 31.566246 24.951836 
L 30.831189 23.27753 
L 30.050831 21.624239 
L 29.220642 19.995215 
L 28.370344 18.376572 
L 27.481777 16.778723 
L 26.554673 15.202964 
L 25.580999 13.655422 
L 24.582816 12.123686 
L 23.52478 10.632359 
L 22.440637 9.160305 
L 21.314025 7.720027 
L 20.172649 6.292036 
L 18.974999 4.910356 
L 17.760927 3.543354 
L 16.493924 2.225211 
L 15.214743 0.918648 
L 13.903853 -0.355923 
L 13.200652 -1 
" style="fill:none;stroke:#545454;stroke-linecap:square;stroke-width:1.5;"/>
   </g>
   <g id="line2d_58">
    <path clip-path="url(#p4a07f226d3)" d="M -1 167.446172 
L -0.867917 167.25865 
L 0.257938 165.638956 
L 1.384904 164.019994 
L 2.515211 162.403346 
L 3.645519 160.786697 
L 4.775827 159.170048 
L 5.906062 157.553349 
L 7.035599 155.936164 
L 8.165137 154.318979 
L 9.29452 152.701687 
L 10.423523 151.084131 
L 11.552527 149.466575 
L 12.681629 147.849087 
L 13.811641 146.232232 
L 14.941653 144.615378 
L 16.071665 142.998523 
L 17.201677 141.381668 
L 18.331492 139.764677 
L 19.470301 138.154241 
L 20.598683 136.536249 
L 21.727066 134.918258 
L 22.856249 133.300823 
L 23.985431 131.683388 
L 25.114614 130.065953 
L 26.243796 128.448518 
L 27.372262 126.830585 
L 28.511821 125.220668 
L 29.641511 123.603672 
L 30.767922 121.984315 
L 31.894333 120.364958 
L 33.021368 118.746032 
L 34.148471 117.127154 
L 35.279437 115.51097 
L 36.40967 113.894268 
L 37.539203 112.277077 
L 38.668735 110.659886 
L 39.798268 109.042695 
" style="fill:none;stroke:#4f4f4f;stroke-linecap:square;stroke-width:1.5;"/>
   </g>
   <g id="line2d_59">
    <path clip-path="url(#p4a07f226d3)" d="M 108.441764 108.780013 
L 110.106612 109.853717 
L 111.768779 110.931545 
L 113.439911 111.995237 
L 115.108794 113.062555 
L 116.772226 114.13844 
L 118.435326 115.214847 
L 120.102944 116.284218 
L 121.767834 117.357603 
L 123.423385 118.445589 
L 125.080352 119.531419 
L 126.70776 120.658095 
L 128.313208 121.815118 
L 129.918656 122.97214 
L 131.524104 124.129163 
L 133.140734 125.268318 
L 134.757787 126.407123 
L 136.365314 127.560844 
L 137.977342 128.707056 
L 139.589336 129.853953 
L 141.196265 131.007695 
L 142.804356 132.160072 
L 144.405973 133.322765 
L 146.020477 134.465739 
L 147.631009 135.61499 
L 149.230168 136.780525 
L 150.851733 137.910472 
L 152.473739 139.042517 
L 154.085715 140.190707 
L 155.704964 141.326041 
L 157.320782 142.467188 
L 158.933991 143.61247 
L 160.5472 144.757751 
L 162.159125 145.904608 
L 163.772289 147.049205 
L 165.384706 148.194695 
L 166.996546 149.340195 
L 168.611143 150.478641 
L 170.210266 151.641745 
L 171.816693 152.797394 
L 173.430961 153.941851 
L 175.042954 155.089356 
L 176.66436 156.22248 
L 178.28254 157.360773 
L 179.897913 158.502229 
L 181.514204 159.64148 
L 183.123653 160.791379 
L 184.731022 161.943395 
L 186.334341 163.100608 
L 187.949317 164.243498 
L 189.566685 165.383396 
L 191.164399 166.547455 
L 192.773528 167.697341 
L 194.395072 168.831878 
L 196.008803 169.976521 
L 197.618113 171.126703 
L 199.230746 172.271346 
L 200.839441 173.422452 
L 202.447521 174.574687 
L 204.055601 175.726921 
L 205.661193 176.882856 
L 207.273007 178.028844 
L 208.88107 179.181074 
L 210.492257 180.328416 
L 212.097723 181.48386 
L 213.700077 182.643219 
L 215.307334 183.79669 
L 216.921894 184.941492 
L 218.530691 186.095261 
L 220.156896 187.221918 
L 221.772267 188.364369 
L 223.390342 189.502606 
L 225.01894 190.627739 
L 226.691407 191.688457 
L 228.383907 192.717681 
L 230.071185 193.755502 
L 231.741013 194.82077 
L 233.401916 195.90036 
L 235.063055 196.977821 
L 236.74149 198.029088 
L 238.415064 199.088562 
L 240.084985 200.154302 
L 241.754998 201.219844 
L 243.42459 202.286024 
L 245.091828 203.355857 
L 246.759497 204.424993 
L 248.43555 205.481095 
L 250.111155 206.537937 
L 251.780304 207.604925 
L 253.448726 208.673049 
L 255.119344 209.737731 
L 256.786153 210.808382 
L 258.455914 211.874421 
L 260.127869 212.937025 
L 261.798747 214.001315 
L 263.467954 215.068223 
L 265.138495 216.133052 
L 266.810805 217.195088 
L 268.480139 218.261611 
L 270.144715 219.335697 
L 271.804699 220.416701 
L 273.468103 221.492296 
" style="fill:none;stroke:#545454;stroke-linecap:square;stroke-width:1.5;"/>
   </g>
   <g id="line2d_60">
    <path clip-path="url(#p4a07f226d3)" style="fill:none;stroke:#393939;stroke-linecap:square;stroke-width:1.5;"/>
   </g>
   <g id="line2d_61">
    <path clip-path="url(#p4a07f226d3)" d="M 0 0 
" style="fill:none;stroke:#a1a1a1;stroke-linecap:square;stroke-width:1.5;"/>
   </g>
   <g id="line2d_62">
    <path clip-path="url(#p4a07f226d3)" d="M 371.04944 83.232284 
L 370.311311 84.735652 
L 369.573182 86.239019 
L 368.835052 87.742387 
L 368.188763 89.280826 
L 367.740091 90.894386 
L 367.29142 92.507947 
L 366.842748 94.121507 
L 366.699266 95.789892 
L 366.558461 97.458761 
L 366.417657 99.127629 
L 366.434464 100.794927 
L 366.608474 102.46065 
L 366.782484 104.126373 
L 366.956504 105.792095 
L 367.449776 107.392335 
L 367.9456 108.992051 
L 368.441424 110.591767 
L 369.083162 112.130576 
L 369.871891 113.608018 
L 370.660621 115.085461 
L 371.489793 116.53647 
L 372.536263 117.843857 
L 373.583953 119.150428 
L 374.631644 120.456998 
L 375.833499 121.613628 
L 377.113272 122.693949 
L 378.393045 123.774271 
L 379.672818 124.854592 
" style="fill:none;stroke:#666666;stroke-linecap:square;stroke-width:1.5;"/>
   </g>
   <g id="line2d_63">
    <path clip-path="url(#p4a07f226d3)" style="fill:none;stroke:#b5b5b5;stroke-linecap:square;stroke-width:1.5;"/>
   </g>
   <g id="line2d_64">
    <path clip-path="url(#p4a07f226d3)" d="M 378.464552 262.339278 
L 380.096939 263.429845 
L 381.731436 264.516652 
L 383.361259 265.611737 
L 384.98527 266.714309 
L 386.595593 267.836677 
L 388.190213 268.978474 
L 389.776622 270.133857 
L 391.36098 271.292633 
L 392.945337 272.45141 
L 394.512356 273.634661 
L 396.060326 274.841167 
L 397.608296 276.047673 
L 399.156266 277.254179 
L 400.70579 278.458983 
L 402.242228 279.680451 
L 403.767594 280.915298 
L 405.29296 282.150145 
L 406.805355 283.401131 
L 408.305084 284.667307 
L 409.804814 285.933483 
L 411.293981 287.211937 
L 412.773341 288.501754 
L 413.344806 289 
" style="fill:none;stroke:#c2c2c2;stroke-linecap:square;stroke-width:1.5;"/>
   </g>
   <g id="line2d_65">
    <path clip-path="url(#p4a07f226d3)" d="M -1 22.650885 
L -0.781158 22.790853 
L 0.883591 23.859676 
L 2.559755 24.910962 
L 4.225512 25.978629 
L 5.886862 27.052291 
L 7.56203 28.104642 
L 9.233137 29.163926 
L 10.906032 30.220458 
L 12.583291 31.269221 
L 14.252189 32.331315 
L 15.924099 33.389359 
L 17.613713 34.418094 
L 19.289742 35.469689 
L 20.972319 36.510723 
L 22.650794 37.55837 
L 24.33086 38.60352 
L 26.01925 39.635131 
L 27.711252 40.66085 
L 29.408039 41.678595 
L 31.096234 42.710556 
L 32.781489 43.747339 
L 34.477199 44.766921 
L 36.16619 45.797563 
L 37.855863 46.827108 
L 39.546399 47.855267 
L 41.237349 48.882735 
L 42.927007 49.912219 
L 44.616959 50.941329 
L 46.315191 51.956526 
L 48.01087 52.976179 
L 49.708587 53.992446 
L 51.401015 55.017406 
L 53.100132 56.031251 
L 54.801223 57.041836 
L 56.496698 58.061838 
L 58.192173 59.08184 
L 59.887678 60.10178 
L 61.583453 61.121254 
L 63.282966 62.134515 
L 64.981306 63.149736 
L 66.678966 64.166091 
L 68.373388 65.18783 
L 70.066929 66.211037 
L 71.760469 67.234244 
L 73.455823 68.254436 
L 75.15422 69.269568 
L 76.852617 70.284699 
L 78.551014 71.29983 
L 80.246162 72.320348 
L 81.94133 73.340816 
L 83.634905 74.363926 
L 85.331334 75.382309 
L 87.03589 76.38672 
L 88.72799 77.412207 
L 90.426413 78.426625 
L 92.11919 79.450769 
L 93.815281 80.469379 
L 95.501172 81.505131 
L 97.18983 82.536283 
L 98.889209 83.549713 
L 100.570963 84.59197 
L 102.2612 85.620617 
L 103.946698 86.656904 
L 105.638306 87.682309 
L 107.317377 88.729049 
L 109.003186 89.764771 
L 110.680472 90.814393 
L 112.361127 91.858514 
L 114.043515 92.899765 
L 115.722749 93.946215 
L 117.395007 95.00333 
" style="fill:none;stroke:#848484;stroke-linecap:square;stroke-width:1.5;"/>
   </g>
   <g id="line2d_66">
    <path clip-path="url(#p4a07f226d3)" style="fill:none;stroke:#c7c7c7;stroke-linecap:square;stroke-width:1.5;"/>
   </g>
   <g id="line2d_67">
    <path clip-path="url(#p4a07f226d3)" d="M 122.372928 82.033781 
L 120.846876 81.057043 
L 119.30134 80.110126 
L 117.74794 79.177027 
L 116.183428 78.262255 
L 114.607124 77.367947 
L 113.010908 76.509491 
L 111.404591 75.670265 
L 109.800448 74.827128 
L 108.1773 74.021016 
L 106.539837 73.243845 
L 104.894642 72.483134 
L 103.23399 71.75742 
L 101.571331 71.036782 
L 99.896381 70.344657 
L 98.209542 69.68139 
L 96.515334 69.037495 
L 94.804811 68.437725 
L 93.087839 67.857063 
L 91.360596 67.30711 
L 89.629365 66.770568 
L 87.88188 66.288936 
L 86.127093 65.835672 
L 84.370984 65.38765 
L 82.602053 64.992231 
L 80.830531 64.608782 
L 79.047689 64.281324 
L 77.262283 63.96929 
L 75.468776 63.707049 
L 73.673467 63.45733 
L 71.871456 63.263188 
L 70.067681 63.084609 
L 68.260515 62.946456 
L 66.450275 62.856049 
L 64.638635 62.797475 
L 62.826563 62.762129 
L 61.014131 62.781083 
L 59.202503 62.832633 
L 57.392683 62.930287 
L 55.583987 63.048992 
L 53.779599 63.219569 
L 51.977001 63.410453 
L 50.182116 63.661734 
L 48.396903 63.976094 
L 46.61169 64.290453 
L 44.835371 64.647733 
L 43.072645 65.070321 
L 41.315601 65.514986 
L 39.569287 66.000936 
L 37.831302 66.513625 
L 36.118664 67.106464 
L 34.415885 67.727408 
L 32.730905 68.39532 
L 31.050332 69.074468 
L 29.399433 69.822184 
L 27.754992 70.58484 
L 26.14397 71.414338 
L 24.548832 72.275211 
L 22.986303 73.192782 
L 21.445169 74.147103 
L 19.92563 75.134377 
L 18.436023 76.167286 
L 16.963739 77.22362 
L 15.539293 78.344659 
L 14.12416 79.476818 
L 12.771294 80.683217 
L 11.423425 81.894963 
L 10.138617 83.173223 
L 8.86419 84.462131 
L 7.648133 85.805794 
L 6.453752 87.169079 
L 5.308396 88.572414 
L 4.204476 90.010065 
L 3.143888 91.478961 
L 2.109722 92.967501 
" style="fill:none;stroke:#3a3a3a;stroke-linecap:square;stroke-width:1.5;"/>
   </g>
   <g id="line2d_68">
    <path clip-path="url(#p4a07f226d3)" d="M 60.772814 -1 
L 60.462686 -0.520265 
L 59.394326 1.132566 
L 58.333593 2.79046 
L 57.272753 4.448045 
L 56.220868 6.111379 
L 55.167833 7.774019 
L 54.114799 9.436659 
L 53.059575 11.097846 
L 52.018394 12.767462 
L 50.987378 14.443455 
L 49.947231 16.114219 
L 48.907085 17.784984 
L 47.865948 19.455109 
L 46.826595 21.126384 
L 45.787591 22.797867 
L 44.75485 24.473154 
L 43.723043 26.149039 
L 42.691235 27.824924 
L 41.660029 29.501191 
L 40.631743 31.179314 
L 39.60214 32.856535 
L 38.575219 34.535367 
L 37.548298 36.214199 
L 36.523561 37.894459 
L 35.49484 39.572359 
L 34.46446 41.249208 
L 33.435224 42.926735 
L 32.406671 44.604668 
L 31.378118 46.282601 
L 30.351268 47.961548 
L 29.324809 49.64073 
L 28.30241 51.322459 
L 27.276727 53.00206 
L 26.249479 54.680618 
L 25.216211 56.355643 
L 24.178175 58.027845 
L 23.140659 59.699736 
L 22.101473 61.370777 
L 21.065645 63.044363 
L 20.032395 64.718967 
L 18.998319 66.393263 
L 17.964386 68.067756 
L 16.919774 69.735662 
L 15.870055 71.400441 
L 14.821664 73.066081 
L 13.779302 74.735326 
L 12.734979 76.403331 
L 11.677917 78.063355 
L 10.630801 79.729635 
L 9.579056 81.393024 
L 8.515968 83.049252 
L 7.453361 84.705749 
L 6.392367 86.363197 
L 5.318888 88.01265 
L 4.247069 89.662947 
L 3.176836 91.31395 
L 2.109722 92.967501 
" style="fill:none;stroke:#474747;stroke-linecap:square;stroke-width:1.5;"/>
   </g>
   <g id="line2d_69">
    <path clip-path="url(#p4a07f226d3)" style="fill:none;stroke:#c7c7c7;stroke-linecap:square;stroke-width:1.5;"/>
   </g>
   <g id="line2d_70">
    <path clip-path="url(#p4a07f226d3)" d="M 7.137648 202.427469 
L 8.222691 200.763926 
L 9.333799 199.117668 
L 10.442671 197.469896 
L 11.548298 195.819916 
L 12.654439 194.170253 
L 13.755953 192.51746 
L 14.861284 190.867274 
L 15.979022 189.225553 
L 17.086742 187.576921 
L 18.18755 185.923668 
L 19.290381 184.271779 
L 20.39805 182.623113 
L 21.505404 180.974233 
L 22.612753 179.325349 
L 23.726665 177.681128 
L 24.819523 176.022703 
L 25.929062 174.375408 
L 27.045571 172.732723 
L 28.158585 171.08766 
L 29.265137 169.438296 
L 30.3732 167.789931 
L 31.478459 166.139666 
L 32.576871 164.484838 
L 33.678974 162.833042 
L 34.786122 161.184027 
L 35.893991 159.5355 
L 36.99752 157.884099 
L 38.103386 156.234241 
L 39.208972 154.584198 
L 40.313295 152.933319 
L 41.427122 151.288791 
L 42.543466 149.645976 
L 43.653566 147.998998 
L 44.759652 146.349341 
L 45.869363 144.702086 
L 46.979989 143.055432 
L 48.084048 141.404335 
L 49.198568 139.76039 
L 50.30827 138.113079 
L 51.411361 136.461449 
L 52.51963 134.813171 
L 53.628449 133.16529 
L 54.733128 131.514823 
L 55.829706 129.858867 
L 56.945934 128.216015 
L 58.050009 126.565005 
L 59.156565 124.915586 
L 60.264786 123.267289 
L 61.368493 121.615953 
" style="fill:none;stroke:#3e3e3e;stroke-linecap:square;stroke-width:1.5;"/>
   </g>
   <g id="line2d_71">
    <path clip-path="url(#p4a07f226d3)" d="M 273.468102 221.472616 
L 275.128949 222.518421 
L 276.795745 223.554847 
L 278.467234 224.583106 
L 280.127467 225.629834 
L 281.791246 226.671082 
L 283.451708 227.717464 
L 285.114291 228.758952 
L 286.818635 229.728439 
L 288.524475 230.695552 
L 290.224139 231.672137 
L 291.925169 232.646694 
L 293.621204 233.629125 
L 295.33317 234.586158 
L 297.024653 235.575269 
L 298.727701 236.546752 
L 300.431877 237.51651 
L 302.13639 238.485731 
L 303.842005 239.453199 
L 305.537122 240.437015 
L 307.239864 241.409035 
L 308.949524 242.367218 
L 310.655985 243.33025 
L 312.36653 244.286801 
L 314.07414 245.247908 
L 315.783934 246.205737 
L 317.495342 247.161027 
L 319.203583 248.121282 
L 320.909533 249.085492 
L 322.614121 250.052468 
L 324.321174 251.015593 
L 326.031038 251.973187 
L 327.739069 252.933062 
L 329.455913 253.878514 
L 331.161848 254.841054 
L 332.878969 255.786446 
L 334.580489 256.756354 
L 336.29355 257.709368 
L 338.004667 258.665462 
L 339.713059 259.625875 
L 341.419995 260.588559 
L 343.125522 261.55344 
L 344.831049 262.518321 
L 346.536575 263.483202 
L 348.243097 264.446527 
L 349.951916 265.406268 
L 351.661735 266.363966 
L 353.372618 267.319488 
L 355.084353 268.275142 
L 356.792964 269.235931 
L 358.498364 270.201793 
L 360.205792 271.16351 
L 361.918008 272.116136 
L 363.628037 273.073589 
L 365.335969 274.035333 
L 367.043228 274.998126 
L 368.748261 275.963512 
L 370.455478 276.925086 
L 372.164545 277.883706 
L 373.872522 278.844494 
L 375.576297 279.813619 
L 377.285885 280.77117 
L 378.992255 281.735263 
L 380.703813 282.690635 
L 382.375093 283.719391 
L 384.037657 284.762639 
L 385.701111 285.804393 
L 387.367649 286.841091 
L 389.034186 287.877789 
L 390.700724 288.914487 
L 390.837878 289 
" style="fill:none;stroke:#343434;stroke-linecap:square;stroke-width:1.5;"/>
   </g>
   <g id="line2d_72">
    <path clip-path="url(#p4a07f226d3)" d="M 285.727157 202.382137 
L 287.386015 203.442999 
L 289.050565 204.495243 
L 290.711255 205.55362 
L 292.354685 206.638546 
L 294.00293 207.716337 
L 295.66011 208.780014 
L 297.316454 209.844231 
L 298.968817 210.914801 
L 300.633412 211.967118 
L 302.287235 213.036158 
L 303.932113 214.118925 
L 305.590514 215.179537 
L 307.24389 216.24918 
L 308.897612 217.318185 
L 310.546125 218.39478 
L 312.19367 219.472861 
L 313.823685 220.577702 
L 315.466627 221.661874 
L 317.106528 222.752167 
L 318.75259 223.83316 
L 320.399476 224.912871 
L 322.054129 225.980728 
L 323.709358 227.047753 
L 325.364853 228.114285 
L 327.018725 229.183183 
L 328.67614 230.246774 
L 330.330092 231.315781 
L 331.989124 232.37676 
L 333.645574 233.441895 
L 335.307377 234.498618 
L 336.968738 235.55603 
L 338.622183 236.625816 
L 340.27493 237.696675 
L 341.938077 238.750782 
L 343.591084 239.820903 
L 345.248534 240.88448 
L 346.90474 241.949996 
L 348.56805 243.004308 
L 350.224156 244.069815 
L 351.886608 245.125534 
L 353.540557 246.19449 
L 355.194781 247.263022 
L 356.8529 248.325536 
L 358.513774 249.383668 
L 360.171679 250.446529 
L 361.833149 251.503722 
L 363.489447 252.569096 
L 365.145743 253.634474 
L 366.802686 254.698843 
L 368.459931 255.762741 
L 370.118067 256.825225 
L 371.781355 257.879492 
L 373.436054 258.947311 
L 375.091684 260.013703 
L 376.748154 261.078776 
L 378.405495 262.142483 
" style="fill:none;stroke:#3b3b3b;stroke-linecap:square;stroke-width:1.5;"/>
   </g>
   <g id="line2d_73">
    <path clip-path="url(#p4a07f226d3)" d="M 433 50.792054 
L 416.507952 39.536542 
L 414.834144 38.651619 
L 413.103515 37.989162 
L 409.4299 37.305719 
L 405.816433 37.675795 
L 404.094847 38.119394 
L 402.511661 38.888628 
L 401.063296 39.809523 
L 396.789562 43.023665 
L 395.601117 44.415428 
L 371.06912 83.232283 
L 371.06912 83.232283 
" style="fill:none;stroke:#898989;stroke-linecap:square;stroke-width:1.5;"/>
   </g>
   <g id="line2d_74">
    <path clip-path="url(#p4a07f226d3)" style="fill:none;stroke:#9c9c9c;stroke-linecap:square;stroke-width:1.5;"/>
   </g>
   <g id="line2d_75">
    <path clip-path="url(#p4a07f226d3)" d="M 24.230661 100.070091 
L 25.178411 98.525537 
L 26.099027 96.964841 
L 26.971045 95.37659 
L 27.786264 93.759433 
L 28.526459 92.105513 
L 29.251518 90.444762 
L 29.938814 88.768737 
L 30.526667 87.055144 
L 31.06771 85.325615 
L 31.573985 83.586307 
L 32.007943 81.826856 
L 32.406692 80.059689 
L 32.724877 78.275644 
L 33.02394 76.488624 
L 33.249142 74.690821 
L 33.410188 72.886095 
L 33.549948 71.07945 
L 33.604651 69.268628 
L 33.625275 67.456624 
L 33.575519 65.645857 
L 33.492662 63.835554 
L 33.370657 62.027937 
L 33.183173 60.225776 
L 32.929634 58.43151 
L 32.644847 56.642367 
L 32.306275 54.862146 
L 31.921728 53.091627 
L 31.48144 51.333783 
L 31.026045 49.580071 
L 30.495941 47.847644 
L 29.909221 46.133226 
L 29.300532 44.42654 
L 28.640117 42.739481 
L 27.959074 41.060187 
L 27.228324 39.402387 
L 26.44912 37.766349 
L 25.629682 36.150286 
L 24.7685 34.556298 
L 23.86606 32.984888 
L 22.936561 31.429537 
L 21.953927 29.906944 
L 20.953937 28.396103 
L 19.900575 26.921816 
L 18.838718 25.453558 
L 17.7351 24.016629 
L 16.589188 22.612913 
L 15.425065 21.224146 
L 14.220901 19.870065 
L 13.002029 18.529142 
L 11.744289 17.225029 
L 10.462696 15.943911 
L 9.152736 14.6919 
L 7.816098 13.468663 
L 6.438225 12.291955 
L 5.059343 11.116163 
L 3.655661 9.970568 
L 2.224834 8.858522 
L 0.779874 7.765693 
L -0.701973 6.72292 
L -1 6.515076 
" style="fill:none;stroke:#a7a7a7;stroke-linecap:square;stroke-width:1.5;"/>
   </g>
   <g id="line2d_76">
    <path clip-path="url(#p4a07f226d3)" d="M 138.744449 56.92048 
L 137.616041 55.842144 
L 136.43918 54.770366 
L 135.301368 53.661222 
L 134.100214 52.618676 
L 132.88625 51.592538 
L 131.663446 50.574298 
L 130.43347 49.568002 
L 129.208475 48.553183 
L 127.969979 47.557902 
L 126.76628 46.52579 
L 125.566029 45.487214 
L 124.386595 44.428723 
L 123.245386 43.336235 
L 122.150778 42.203785 
L 121.080951 41.048335 
L 120.079808 39.831865 
L 119.123736 38.599279 
L 118.258391 37.299879 
L 117.455847 35.96741 
L 116.706972 34.611779 
L 116.099877 33.182009 
L 115.580936 31.72823 
L 115.170167 30.238356 
L 114.888628 28.715238 
L 114.742735 27.181017 
L 114.743479 25.635969 
L 114.927678 24.080415 
L 115.277121 22.569101 
L 115.806472 21.09572 
L 116.483281 19.668518 
" style="fill:none;stroke:#9a9a9a;stroke-linecap:square;stroke-width:1.5;"/>
   </g>
   <g id="line2d_77">
    <path clip-path="url(#p4a07f226d3)" d="M -1 141.12 
L 433 141.12 
" style="fill:none;stroke:#0424ff;stroke-dasharray:1.5,2.475;stroke-dashoffset:0;stroke-width:1.5;"/>
   </g>
   <g id="line2d_78">
    <path clip-path="url(#p4a07f226d3)" d="M 224.64 289 
L 224.64 -1 
" style="fill:none;stroke:#0424ff;stroke-dasharray:1.5,2.475;stroke-dashoffset:0;stroke-width:1.5;"/>
   </g>
   <g id="PathCollection_1">
    <defs>
     <path d="M 0 3 
C 0.795609 3 1.55874 2.683901 2.12132 2.12132 
C 2.683901 1.55874 3 0.795609 3 0 
C 3 -0.795609 2.683901 -1.55874 2.12132 -2.12132 
C 1.55874 -2.683901 0.795609 -3 0 -3 
C -0.795609 -3 -1.55874 -2.683901 -2.12132 -2.12132 
C -2.683901 -1.55874 -3 -0.795609 -3 0 
C -3 0.795609 -2.683901 1.55874 -2.12132 2.12132 
C -1.55874 2.683901 -0.795609 3 0 3 
z
" id="m3d2fd8c90c" style="stroke:#000000;"/>
    </defs>
    <g clip-path="url(#p4a07f226d3)">
     <use style="fill:#00ffff;stroke:#000000;" x="268.218756" xlink:href="#m3d2fd8c90c" y="168.146367"/>
    </g>
   </g>
   <g id="PathCollection_2">
    <g clip-path="url(#p4a07f226d3)">
     <use style="fill:#00ffff;stroke:#000000;" x="263.540432" xlink:href="#m3d2fd8c90c" y="165.325055"/>
    </g>
   </g>
   <g id="PathCollection_3">
    <g clip-path="url(#p4a07f226d3)">
     <use style="fill:#00ffff;stroke:#000000;" x="259.009852" xlink:href="#m3d2fd8c90c" y="162.556594"/>
    </g>
   </g>
   <g id="PathCollection_4">
    <g clip-path="url(#p4a07f226d3)">
     <use style="fill:#00ffff;stroke:#000000;" x="254.571762" xlink:href="#m3d2fd8c90c" y="159.673781"/>
    </g>
   </g>
   <g id="PathCollection_5">
    <g clip-path="url(#p4a07f226d3)">
     <use style="fill:#00ffff;stroke:#000000;" x="250.170428" xlink:href="#m3d2fd8c90c" y="156.92502"/>
    </g>
   </g>
   <g id="PathCollection_6">
    <g clip-path="url(#p4a07f226d3)">
     <use style="fill:#00ffff;stroke:#000000;" x="245.805369" xlink:href="#m3d2fd8c90c" y="154.266586"/>
    </g>
   </g>
   <g id="PathCollection_7">
    <g clip-path="url(#p4a07f226d3)">
     <use style="fill:#00ffff;stroke:#000000;" x="241.479469" xlink:href="#m3d2fd8c90c" y="151.548094"/>
    </g>
   </g>
   <g id="PathCollection_8">
    <g clip-path="url(#p4a07f226d3)">
     <use style="fill:#00ffff;stroke:#000000;" x="237.215309" xlink:href="#m3d2fd8c90c" y="148.962211"/>
    </g>
   </g>
   <g id="PathCollection_9">
    <g clip-path="url(#p4a07f226d3)">
     <use style="fill:#00ffff;stroke:#000000;" x="233.038113" xlink:href="#m3d2fd8c90c" y="146.311465"/>
    </g>
   </g>
   <g id="PathCollection_10">
    <g clip-path="url(#p4a07f226d3)">
     <use style="fill:#00ffff;stroke:#000000;" x="228.798457" xlink:href="#m3d2fd8c90c" y="143.680418"/>
    </g>
   </g>
   <g id="PathCollection_11">
    <g clip-path="url(#p4a07f226d3)">
     <use style="fill:#00ffff;stroke:#000000;" x="224.64" xlink:href="#m3d2fd8c90c" y="141.12"/>
    </g>
   </g>
   <g id="PathCollection_12">
    <g clip-path="url(#p4a07f226d3)">
     <use style="fill:#00ffff;stroke:#000000;" x="224.64" xlink:href="#m3d2fd8c90c" y="141.12"/>
    </g>
   </g>
   <g id="matplotlib.axis_1">
    <g id="xtick_1">
     <g id="line2d_79">
      <defs>
       <path d="M 0 0 
L 0 3.5 
" id="m5f9a2ab539" style="stroke:#000000;stroke-width:0.8;"/>
      </defs>
      <g>
       <use style="stroke:#000000;stroke-width:0.8;" x="67.2" xlink:href="#m5f9a2ab539" y="259.2"/>
      </g>
     </g>
     <g id="text_1">
      <!-- 40 -->
      <g transform="translate(56.647656 273.798437)scale(0.1 -0.1)">
       <defs>
        <path d="M 10.59375 35.5 
L 73.1875 35.5 
L 73.1875 27.203125 
L 10.59375 27.203125 
z
" id="DejaVuSans-8722"/>
        <path d="M 37.796875 64.3125 
L 12.890625 25.390625 
L 37.796875 25.390625 
z
M 35.203125 72.90625 
L 47.609375 72.90625 
L 47.609375 25.390625 
L 58.015625 25.390625 
L 58.015625 17.1875 
L 47.609375 17.1875 
L 47.609375 0 
L 37.796875 0 
L 37.796875 17.1875 
L 4.890625 17.1875 
L 4.890625 26.703125 
z
" id="DejaVuSans-52"/>
        <path d="M 31.78125 66.40625 
Q 24.171875 66.40625 20.328125 58.90625 
Q 16.5 51.421875 16.5 36.375 
Q 16.5 21.390625 20.328125 13.890625 
Q 24.171875 6.390625 31.78125 6.390625 
Q 39.453125 6.390625 43.28125 13.890625 
Q 47.125 21.390625 47.125 36.375 
Q 47.125 51.421875 43.28125 58.90625 
Q 39.453125 66.40625 31.78125 66.40625 
z
M 31.78125 74.21875 
Q 44.046875 74.21875 50.515625 64.515625 
Q 56.984375 54.828125 56.984375 36.375 
Q 56.984375 17.96875 50.515625 8.265625 
Q 44.046875 -1.421875 31.78125 -1.421875 
Q 19.53125 -1.421875 13.0625 8.265625 
Q 6.59375 17.96875 6.59375 36.375 
Q 6.59375 54.828125 13.0625 64.515625 
Q 19.53125 74.21875 31.78125 74.21875 
z
" id="DejaVuSans-48"/>
       </defs>
       <use xlink:href="#DejaVuSans-8722"/>
       <use x="83.789062" xlink:href="#DejaVuSans-52"/>
       <use x="147.412109" xlink:href="#DejaVuSans-48"/>
      </g>
     </g>
    </g>
    <g id="xtick_2">
     <g id="line2d_80">
      <g>
       <use style="stroke:#000000;stroke-width:0.8;" x="106.56" xlink:href="#m5f9a2ab539" y="259.2"/>
      </g>
     </g>
     <g id="text_2">
      <!-- 30 -->
      <g transform="translate(96.007656 273.798437)scale(0.1 -0.1)">
       <defs>
        <path d="M 40.578125 39.3125 
Q 47.65625 37.796875 51.625 33 
Q 55.609375 28.21875 55.609375 21.1875 
Q 55.609375 10.40625 48.1875 4.484375 
Q 40.765625 -1.421875 27.09375 -1.421875 
Q 22.515625 -1.421875 17.65625 -0.515625 
Q 12.796875 0.390625 7.625 2.203125 
L 7.625 11.71875 
Q 11.71875 9.328125 16.59375 8.109375 
Q 21.484375 6.890625 26.8125 6.890625 
Q 36.078125 6.890625 40.9375 10.546875 
Q 45.796875 14.203125 45.796875 21.1875 
Q 45.796875 27.640625 41.28125 31.265625 
Q 36.765625 34.90625 28.71875 34.90625 
L 20.21875 34.90625 
L 20.21875 43.015625 
L 29.109375 43.015625 
Q 36.375 43.015625 40.234375 45.921875 
Q 44.09375 48.828125 44.09375 54.296875 
Q 44.09375 59.90625 40.109375 62.90625 
Q 36.140625 65.921875 28.71875 65.921875 
Q 24.65625 65.921875 20.015625 65.03125 
Q 15.375 64.15625 9.8125 62.3125 
L 9.8125 71.09375 
Q 15.4375 72.65625 20.34375 73.4375 
Q 25.25 74.21875 29.59375 74.21875 
Q 40.828125 74.21875 47.359375 69.109375 
Q 53.90625 64.015625 53.90625 55.328125 
Q 53.90625 49.265625 50.4375 45.09375 
Q 46.96875 40.921875 40.578125 39.3125 
z
" id="DejaVuSans-51"/>
       </defs>
       <use xlink:href="#DejaVuSans-8722"/>
       <use x="83.789062" xlink:href="#DejaVuSans-51"/>
       <use x="147.412109" xlink:href="#DejaVuSans-48"/>
      </g>
     </g>
    </g>
    <g id="xtick_3">
     <g id="line2d_81">
      <g>
       <use style="stroke:#000000;stroke-width:0.8;" x="145.92" xlink:href="#m5f9a2ab539" y="259.2"/>
      </g>
     </g>
     <g id="text_3">
      <!-- 20 -->
      <g transform="translate(135.367656 273.798437)scale(0.1 -0.1)">
       <defs>
        <path d="M 19.1875 8.296875 
L 53.609375 8.296875 
L 53.609375 0 
L 7.328125 0 
L 7.328125 8.296875 
Q 12.9375 14.109375 22.625 23.890625 
Q 32.328125 33.6875 34.8125 36.53125 
Q 39.546875 41.84375 41.421875 45.53125 
Q 43.3125 49.21875 43.3125 52.78125 
Q 43.3125 58.59375 39.234375 62.25 
Q 35.15625 65.921875 28.609375 65.921875 
Q 23.96875 65.921875 18.8125 64.3125 
Q 13.671875 62.703125 7.8125 59.421875 
L 7.8125 69.390625 
Q 13.765625 71.78125 18.9375 73 
Q 24.125 74.21875 28.421875 74.21875 
Q 39.75 74.21875 46.484375 68.546875 
Q 53.21875 62.890625 53.21875 53.421875 
Q 53.21875 48.921875 51.53125 44.890625 
Q 49.859375 40.875 45.40625 35.40625 
Q 44.1875 33.984375 37.640625 27.21875 
Q 31.109375 20.453125 19.1875 8.296875 
z
" id="DejaVuSans-50"/>
       </defs>
       <use xlink:href="#DejaVuSans-8722"/>
       <use x="83.789062" xlink:href="#DejaVuSans-50"/>
       <use x="147.412109" xlink:href="#DejaVuSans-48"/>
      </g>
     </g>
    </g>
    <g id="xtick_4">
     <g id="line2d_82">
      <g>
       <use style="stroke:#000000;stroke-width:0.8;" x="185.28" xlink:href="#m5f9a2ab539" y="259.2"/>
      </g>
     </g>
     <g id="text_4">
      <!-- 10 -->
      <g transform="translate(174.727656 273.798437)scale(0.1 -0.1)">
       <defs>
        <path d="M 12.40625 8.296875 
L 28.515625 8.296875 
L 28.515625 63.921875 
L 10.984375 60.40625 
L 10.984375 69.390625 
L 28.421875 72.90625 
L 38.28125 72.90625 
L 38.28125 8.296875 
L 54.390625 8.296875 
L 54.390625 0 
L 12.40625 0 
z
" id="DejaVuSans-49"/>
       </defs>
       <use xlink:href="#DejaVuSans-8722"/>
       <use x="83.789062" xlink:href="#DejaVuSans-49"/>
       <use x="147.412109" xlink:href="#DejaVuSans-48"/>
      </g>
     </g>
    </g>
    <g id="xtick_5">
     <g id="line2d_83">
      <g>
       <use style="stroke:#000000;stroke-width:0.8;" x="224.64" xlink:href="#m5f9a2ab539" y="259.2"/>
      </g>
     </g>
     <g id="text_5">
      <!-- 0 -->
      <g transform="translate(221.45875 273.798437)scale(0.1 -0.1)">
       <use xlink:href="#DejaVuSans-48"/>
      </g>
     </g>
    </g>
    <g id="xtick_6">
     <g id="line2d_84">
      <g>
       <use style="stroke:#000000;stroke-width:0.8;" x="264" xlink:href="#m5f9a2ab539" y="259.2"/>
      </g>
     </g>
     <g id="text_6">
      <!-- 10 -->
      <g transform="translate(257.6375 273.798437)scale(0.1 -0.1)">
       <use xlink:href="#DejaVuSans-49"/>
       <use x="63.623047" xlink:href="#DejaVuSans-48"/>
      </g>
     </g>
    </g>
    <g id="xtick_7">
     <g id="line2d_85">
      <g>
       <use style="stroke:#000000;stroke-width:0.8;" x="303.36" xlink:href="#m5f9a2ab539" y="259.2"/>
      </g>
     </g>
     <g id="text_7">
      <!-- 20 -->
      <g transform="translate(296.9975 273.798437)scale(0.1 -0.1)">
       <use xlink:href="#DejaVuSans-50"/>
       <use x="63.623047" xlink:href="#DejaVuSans-48"/>
      </g>
     </g>
    </g>
    <g id="xtick_8">
     <g id="line2d_86">
      <g>
       <use style="stroke:#000000;stroke-width:0.8;" x="342.72" xlink:href="#m5f9a2ab539" y="259.2"/>
      </g>
     </g>
     <g id="text_8">
      <!-- 30 -->
      <g transform="translate(336.3575 273.798437)scale(0.1 -0.1)">
       <use xlink:href="#DejaVuSans-51"/>
       <use x="63.623047" xlink:href="#DejaVuSans-48"/>
      </g>
     </g>
    </g>
    <g id="xtick_9">
     <g id="line2d_87">
      <g>
       <use style="stroke:#000000;stroke-width:0.8;" x="382.08" xlink:href="#m5f9a2ab539" y="259.2"/>
      </g>
     </g>
     <g id="text_9">
      <!-- 40 -->
      <g transform="translate(375.7175 273.798437)scale(0.1 -0.1)">
       <use xlink:href="#DejaVuSans-52"/>
       <use x="63.623047" xlink:href="#DejaVuSans-48"/>
      </g>
     </g>
    </g>
   </g>
   <g id="matplotlib.axis_2">
    <g id="ytick_1">
     <g id="line2d_88">
      <defs>
       <path d="M 0 0 
L -3.5 0 
" id="mcbd57b97ff" style="stroke:#000000;stroke-width:0.8;"/>
      </defs>
      <g>
       <use style="stroke:#000000;stroke-width:0.8;" x="47.52" xlink:href="#mcbd57b97ff" y="259.2"/>
      </g>
     </g>
     <g id="text_10">
      <!-- 30 -->
      <g transform="translate(19.415313 262.999219)scale(0.1 -0.1)">
       <use xlink:href="#DejaVuSans-8722"/>
       <use x="83.789062" xlink:href="#DejaVuSans-51"/>
       <use x="147.412109" xlink:href="#DejaVuSans-48"/>
      </g>
     </g>
    </g>
    <g id="ytick_2">
     <g id="line2d_89">
      <g>
       <use style="stroke:#000000;stroke-width:0.8;" x="47.52" xlink:href="#mcbd57b97ff" y="219.84"/>
      </g>
     </g>
     <g id="text_11">
      <!-- 20 -->
      <g transform="translate(19.415313 223.639219)scale(0.1 -0.1)">
       <use xlink:href="#DejaVuSans-8722"/>
       <use x="83.789062" xlink:href="#DejaVuSans-50"/>
       <use x="147.412109" xlink:href="#DejaVuSans-48"/>
      </g>
     </g>
    </g>
    <g id="ytick_3">
     <g id="line2d_90">
      <g>
       <use style="stroke:#000000;stroke-width:0.8;" x="47.52" xlink:href="#mcbd57b97ff" y="180.48"/>
      </g>
     </g>
     <g id="text_12">
      <!-- 10 -->
      <g transform="translate(19.415313 184.279219)scale(0.1 -0.1)">
       <use xlink:href="#DejaVuSans-8722"/>
       <use x="83.789062" xlink:href="#DejaVuSans-49"/>
       <use x="147.412109" xlink:href="#DejaVuSans-48"/>
      </g>
     </g>
    </g>
    <g id="ytick_4">
     <g id="line2d_91">
      <g>
       <use style="stroke:#000000;stroke-width:0.8;" x="47.52" xlink:href="#mcbd57b97ff" y="141.12"/>
      </g>
     </g>
     <g id="text_13">
      <!-- 0 -->
      <g transform="translate(34.1575 144.919219)scale(0.1 -0.1)">
       <use xlink:href="#DejaVuSans-48"/>
      </g>
     </g>
    </g>
    <g id="ytick_5">
     <g id="line2d_92">
      <g>
       <use style="stroke:#000000;stroke-width:0.8;" x="47.52" xlink:href="#mcbd57b97ff" y="101.76"/>
      </g>
     </g>
     <g id="text_14">
      <!-- 10 -->
      <g transform="translate(27.795 105.559219)scale(0.1 -0.1)">
       <use xlink:href="#DejaVuSans-49"/>
       <use x="63.623047" xlink:href="#DejaVuSans-48"/>
      </g>
     </g>
    </g>
    <g id="ytick_6">
     <g id="line2d_93">
      <g>
       <use style="stroke:#000000;stroke-width:0.8;" x="47.52" xlink:href="#mcbd57b97ff" y="62.4"/>
      </g>
     </g>
     <g id="text_15">
      <!-- 20 -->
      <g transform="translate(27.795 66.199219)scale(0.1 -0.1)">
       <use xlink:href="#DejaVuSans-50"/>
       <use x="63.623047" xlink:href="#DejaVuSans-48"/>
      </g>
     </g>
    </g>
    <g id="ytick_7">
     <g id="line2d_94">
      <g>
       <use style="stroke:#000000;stroke-width:0.8;" x="47.52" xlink:href="#mcbd57b97ff" y="23.04"/>
      </g>
     </g>
     <g id="text_16">
      <!-- 30 -->
      <g transform="translate(27.795 26.839219)scale(0.1 -0.1)">
       <use xlink:href="#DejaVuSans-51"/>
       <use x="63.623047" xlink:href="#DejaVuSans-48"/>
      </g>
     </g>
    </g>
   </g>
   <g id="patch_3">
    <path d="M 47.52 259.2 
L 47.52 23.04 
" style="fill:none;stroke:#000000;stroke-linecap:square;stroke-linejoin:miter;stroke-width:0.8;"/>
   </g>
   <g id="patch_4">
    <path d="M 401.76 259.2 
L 401.76 23.04 
" style="fill:none;stroke:#000000;stroke-linecap:square;stroke-linejoin:miter;stroke-width:0.8;"/>
   </g>
   <g id="patch_5">
    <path d="M 47.52 259.2 
L 401.76 259.2 
" style="fill:none;stroke:#000000;stroke-linecap:square;stroke-linejoin:miter;stroke-width:0.8;"/>
   </g>
   <g id="patch_6">
    <path d="M 47.52 23.04 
L 401.76 23.04 
" style="fill:none;stroke:#000000;stroke-linecap:square;stroke-linejoin:miter;stroke-width:0.8;"/>
   </g>
   <g id="legend_1">
    <g id="patch_7">
     <path d="M 207.161563 46.118125 
L 394.76 46.118125 
Q 396.76 46.118125 396.76 44.118125 
L 396.76 30.04 
Q 396.76 28.04 394.76 28.04 
L 207.161563 28.04 
Q 205.161563 28.04 205.161563 30.04 
L 205.161563 44.118125 
Q 205.161563 46.118125 207.161563 46.118125 
z
" style="fill:#ffffff;opacity:0.8;stroke:#cccccc;stroke-linejoin:miter;"/>
    </g>
    <g id="PathCollection_13">
     <g>
      <use style="fill:#00ffff;stroke:#000000;" x="219.161563" xlink:href="#m3d2fd8c90c" y="37.413438"/>
     </g>
    </g>
    <g id="text_17">
     <!-- pozycje wejciowe agenta EGO -->
     <g transform="translate(237.161563 40.038438)scale(0.1 -0.1)">
      <defs>
       <path d="M 18.109375 8.203125 
L 18.109375 -20.796875 
L 9.078125 -20.796875 
L 9.078125 54.6875 
L 18.109375 54.6875 
L 18.109375 46.390625 
Q 20.953125 51.265625 25.265625 53.625 
Q 29.59375 56 35.59375 56 
Q 45.5625 56 51.78125 48.09375 
Q 58.015625 40.1875 58.015625 27.296875 
Q 58.015625 14.40625 51.78125 6.484375 
Q 45.5625 -1.421875 35.59375 -1.421875 
Q 29.59375 -1.421875 25.265625 0.953125 
Q 20.953125 3.328125 18.109375 8.203125 
z
M 48.6875 27.296875 
Q 48.6875 37.203125 44.609375 42.84375 
Q 40.53125 48.484375 33.40625 48.484375 
Q 26.265625 48.484375 22.1875 42.84375 
Q 18.109375 37.203125 18.109375 27.296875 
Q 18.109375 17.390625 22.1875 11.75 
Q 26.265625 6.109375 33.40625 6.109375 
Q 40.53125 6.109375 44.609375 11.75 
Q 48.6875 17.390625 48.6875 27.296875 
z
" id="DejaVuSans-112"/>
       <path d="M 30.609375 48.390625 
Q 23.390625 48.390625 19.1875 42.75 
Q 14.984375 37.109375 14.984375 27.296875 
Q 14.984375 17.484375 19.15625 11.84375 
Q 23.34375 6.203125 30.609375 6.203125 
Q 37.796875 6.203125 41.984375 11.859375 
Q 46.1875 17.53125 46.1875 27.296875 
Q 46.1875 37.015625 41.984375 42.703125 
Q 37.796875 48.390625 30.609375 48.390625 
z
M 30.609375 56 
Q 42.328125 56 49.015625 48.375 
Q 55.71875 40.765625 55.71875 27.296875 
Q 55.71875 13.875 49.015625 6.21875 
Q 42.328125 -1.421875 30.609375 -1.421875 
Q 18.84375 -1.421875 12.171875 6.21875 
Q 5.515625 13.875 5.515625 27.296875 
Q 5.515625 40.765625 12.171875 48.375 
Q 18.84375 56 30.609375 56 
z
" id="DejaVuSans-111"/>
       <path d="M 5.515625 54.6875 
L 48.1875 54.6875 
L 48.1875 46.484375 
L 14.40625 7.171875 
L 48.1875 7.171875 
L 48.1875 0 
L 4.296875 0 
L 4.296875 8.203125 
L 38.09375 47.515625 
L 5.515625 47.515625 
z
" id="DejaVuSans-122"/>
       <path d="M 32.171875 -5.078125 
Q 28.375 -14.84375 24.75 -17.8125 
Q 21.140625 -20.796875 15.09375 -20.796875 
L 7.90625 -20.796875 
L 7.90625 -13.28125 
L 13.1875 -13.28125 
Q 16.890625 -13.28125 18.9375 -11.515625 
Q 21 -9.765625 23.484375 -3.21875 
L 25.09375 0.875 
L 2.984375 54.6875 
L 12.5 54.6875 
L 29.59375 11.921875 
L 46.6875 54.6875 
L 56.203125 54.6875 
z
" id="DejaVuSans-121"/>
       <path d="M 48.78125 52.59375 
L 48.78125 44.1875 
Q 44.96875 46.296875 41.140625 47.34375 
Q 37.3125 48.390625 33.40625 48.390625 
Q 24.65625 48.390625 19.8125 42.84375 
Q 14.984375 37.3125 14.984375 27.296875 
Q 14.984375 17.28125 19.8125 11.734375 
Q 24.65625 6.203125 33.40625 6.203125 
Q 37.3125 6.203125 41.140625 7.25 
Q 44.96875 8.296875 48.78125 10.40625 
L 48.78125 2.09375 
Q 45.015625 0.34375 40.984375 -0.53125 
Q 36.96875 -1.421875 32.421875 -1.421875 
Q 20.0625 -1.421875 12.78125 6.34375 
Q 5.515625 14.109375 5.515625 27.296875 
Q 5.515625 40.671875 12.859375 48.328125 
Q 20.21875 56 33.015625 56 
Q 37.15625 56 41.109375 55.140625 
Q 45.0625 54.296875 48.78125 52.59375 
z
" id="DejaVuSans-99"/>
       <path d="M 9.421875 54.6875 
L 18.40625 54.6875 
L 18.40625 -0.984375 
Q 18.40625 -11.421875 14.421875 -16.109375 
Q 10.453125 -20.796875 1.609375 -20.796875 
L -1.8125 -20.796875 
L -1.8125 -13.1875 
L 0.59375 -13.1875 
Q 5.71875 -13.1875 7.5625 -10.8125 
Q 9.421875 -8.453125 9.421875 -0.984375 
z
M 9.421875 75.984375 
L 18.40625 75.984375 
L 18.40625 64.59375 
L 9.421875 64.59375 
z
" id="DejaVuSans-106"/>
       <path d="M 56.203125 29.59375 
L 56.203125 25.203125 
L 14.890625 25.203125 
Q 15.484375 15.921875 20.484375 11.0625 
Q 25.484375 6.203125 34.421875 6.203125 
Q 39.59375 6.203125 44.453125 7.46875 
Q 49.3125 8.734375 54.109375 11.28125 
L 54.109375 2.78125 
Q 49.265625 0.734375 44.1875 -0.34375 
Q 39.109375 -1.421875 33.890625 -1.421875 
Q 20.796875 -1.421875 13.15625 6.1875 
Q 5.515625 13.8125 5.515625 26.8125 
Q 5.515625 40.234375 12.765625 48.109375 
Q 20.015625 56 32.328125 56 
Q 43.359375 56 49.78125 48.890625 
Q 56.203125 41.796875 56.203125 29.59375 
z
M 47.21875 32.234375 
Q 47.125 39.59375 43.09375 43.984375 
Q 39.0625 48.390625 32.421875 48.390625 
Q 24.90625 48.390625 20.390625 44.140625 
Q 15.875 39.890625 15.1875 32.171875 
z
" id="DejaVuSans-101"/>
       <path id="DejaVuSans-32"/>
       <path d="M 4.203125 54.6875 
L 13.1875 54.6875 
L 24.421875 12.015625 
L 35.59375 54.6875 
L 46.1875 54.6875 
L 57.421875 12.015625 
L 68.609375 54.6875 
L 77.59375 54.6875 
L 63.28125 0 
L 52.6875 0 
L 40.921875 44.828125 
L 29.109375 0 
L 18.5 0 
z
" id="DejaVuSans-119"/>
       <path d="M 35.03125 79.984375 
L 44.75 79.984375 
L 28.84375 61.625 
L 21.359375 61.625 
z
M 44.28125 53.078125 
L 44.28125 44.578125 
Q 40.484375 46.53125 36.375 47.5 
Q 32.28125 48.484375 27.875 48.484375 
Q 21.1875 48.484375 17.84375 46.4375 
Q 14.5 44.390625 14.5 40.28125 
Q 14.5 37.15625 16.890625 35.375 
Q 19.28125 33.59375 26.515625 31.984375 
L 29.59375 31.296875 
Q 39.15625 29.25 43.1875 25.515625 
Q 47.21875 21.78125 47.21875 15.09375 
Q 47.21875 7.46875 41.1875 3.015625 
Q 35.15625 -1.421875 24.609375 -1.421875 
Q 20.21875 -1.421875 15.453125 -0.5625 
Q 10.6875 0.296875 5.421875 2 
L 5.421875 11.28125 
Q 10.40625 8.6875 15.234375 7.390625 
Q 20.0625 6.109375 24.8125 6.109375 
Q 31.15625 6.109375 34.5625 8.28125 
Q 37.984375 10.453125 37.984375 14.40625 
Q 37.984375 18.0625 35.515625 20.015625 
Q 33.0625 21.96875 24.703125 23.78125 
L 21.578125 24.515625 
Q 13.234375 26.265625 9.515625 29.90625 
Q 5.8125 33.546875 5.8125 39.890625 
Q 5.8125 47.609375 11.28125 51.796875 
Q 16.75 56 26.8125 56 
Q 31.78125 56 36.171875 55.265625 
Q 40.578125 54.546875 44.28125 53.078125 
z
" id="DejaVuSans-347"/>
       <path d="M 9.421875 54.6875 
L 18.40625 54.6875 
L 18.40625 0 
L 9.421875 0 
z
M 9.421875 75.984375 
L 18.40625 75.984375 
L 18.40625 64.59375 
L 9.421875 64.59375 
z
" id="DejaVuSans-105"/>
       <path d="M 34.28125 27.484375 
Q 23.390625 27.484375 19.1875 25 
Q 14.984375 22.515625 14.984375 16.5 
Q 14.984375 11.71875 18.140625 8.90625 
Q 21.296875 6.109375 26.703125 6.109375 
Q 34.1875 6.109375 38.703125 11.40625 
Q 43.21875 16.703125 43.21875 25.484375 
L 43.21875 27.484375 
z
M 52.203125 31.203125 
L 52.203125 0 
L 43.21875 0 
L 43.21875 8.296875 
Q 40.140625 3.328125 35.546875 0.953125 
Q 30.953125 -1.421875 24.3125 -1.421875 
Q 15.921875 -1.421875 10.953125 3.296875 
Q 6 8.015625 6 15.921875 
Q 6 25.140625 12.171875 29.828125 
Q 18.359375 34.515625 30.609375 34.515625 
L 43.21875 34.515625 
L 43.21875 35.40625 
Q 43.21875 41.609375 39.140625 45 
Q 35.0625 48.390625 27.6875 48.390625 
Q 23 48.390625 18.546875 47.265625 
Q 14.109375 46.140625 10.015625 43.890625 
L 10.015625 52.203125 
Q 14.9375 54.109375 19.578125 55.046875 
Q 24.21875 56 28.609375 56 
Q 40.484375 56 46.34375 49.84375 
Q 52.203125 43.703125 52.203125 31.203125 
z
" id="DejaVuSans-97"/>
       <path d="M 45.40625 27.984375 
Q 45.40625 37.75 41.375 43.109375 
Q 37.359375 48.484375 30.078125 48.484375 
Q 22.859375 48.484375 18.828125 43.109375 
Q 14.796875 37.75 14.796875 27.984375 
Q 14.796875 18.265625 18.828125 12.890625 
Q 22.859375 7.515625 30.078125 7.515625 
Q 37.359375 7.515625 41.375 12.890625 
Q 45.40625 18.265625 45.40625 27.984375 
z
M 54.390625 6.78125 
Q 54.390625 -7.171875 48.1875 -13.984375 
Q 42 -20.796875 29.203125 -20.796875 
Q 24.46875 -20.796875 20.265625 -20.09375 
Q 16.0625 -19.390625 12.109375 -17.921875 
L 12.109375 -9.1875 
Q 16.0625 -11.328125 19.921875 -12.34375 
Q 23.78125 -13.375 27.78125 -13.375 
Q 36.625 -13.375 41.015625 -8.765625 
Q 45.40625 -4.15625 45.40625 5.171875 
L 45.40625 9.625 
Q 42.625 4.78125 38.28125 2.390625 
Q 33.9375 0 27.875 0 
Q 17.828125 0 11.671875 7.65625 
Q 5.515625 15.328125 5.515625 27.984375 
Q 5.515625 40.671875 11.671875 48.328125 
Q 17.828125 56 27.875 56 
Q 33.9375 56 38.28125 53.609375 
Q 42.625 51.21875 45.40625 46.390625 
L 45.40625 54.6875 
L 54.390625 54.6875 
z
" id="DejaVuSans-103"/>
       <path d="M 54.890625 33.015625 
L 54.890625 0 
L 45.90625 0 
L 45.90625 32.71875 
Q 45.90625 40.484375 42.875 44.328125 
Q 39.84375 48.1875 33.796875 48.1875 
Q 26.515625 48.1875 22.3125 43.546875 
Q 18.109375 38.921875 18.109375 30.90625 
L 18.109375 0 
L 9.078125 0 
L 9.078125 54.6875 
L 18.109375 54.6875 
L 18.109375 46.1875 
Q 21.34375 51.125 25.703125 53.5625 
Q 30.078125 56 35.796875 56 
Q 45.21875 56 50.046875 50.171875 
Q 54.890625 44.34375 54.890625 33.015625 
z
" id="DejaVuSans-110"/>
       <path d="M 18.3125 70.21875 
L 18.3125 54.6875 
L 36.8125 54.6875 
L 36.8125 47.703125 
L 18.3125 47.703125 
L 18.3125 18.015625 
Q 18.3125 11.328125 20.140625 9.421875 
Q 21.96875 7.515625 27.59375 7.515625 
L 36.8125 7.515625 
L 36.8125 0 
L 27.59375 0 
Q 17.1875 0 13.234375 3.875 
Q 9.28125 7.765625 9.28125 18.015625 
L 9.28125 47.703125 
L 2.6875 47.703125 
L 2.6875 54.6875 
L 9.28125 54.6875 
L 9.28125 70.21875 
z
" id="DejaVuSans-116"/>
       <path d="M 9.8125 72.90625 
L 55.90625 72.90625 
L 55.90625 64.59375 
L 19.671875 64.59375 
L 19.671875 43.015625 
L 54.390625 43.015625 
L 54.390625 34.71875 
L 19.671875 34.71875 
L 19.671875 8.296875 
L 56.78125 8.296875 
L 56.78125 0 
L 9.8125 0 
z
" id="DejaVuSans-69"/>
       <path d="M 59.515625 10.40625 
L 59.515625 29.984375 
L 43.40625 29.984375 
L 43.40625 38.09375 
L 69.28125 38.09375 
L 69.28125 6.78125 
Q 63.578125 2.734375 56.6875 0.65625 
Q 49.8125 -1.421875 42 -1.421875 
Q 24.90625 -1.421875 15.25 8.5625 
Q 5.609375 18.5625 5.609375 36.375 
Q 5.609375 54.25 15.25 64.234375 
Q 24.90625 74.21875 42 74.21875 
Q 49.125 74.21875 55.546875 72.453125 
Q 61.96875 70.703125 67.390625 67.28125 
L 67.390625 56.78125 
Q 61.921875 61.421875 55.765625 63.765625 
Q 49.609375 66.109375 42.828125 66.109375 
Q 29.4375 66.109375 22.71875 58.640625 
Q 16.015625 51.171875 16.015625 36.375 
Q 16.015625 21.625 22.71875 14.15625 
Q 29.4375 6.6875 42.828125 6.6875 
Q 48.046875 6.6875 52.140625 7.59375 
Q 56.25 8.5 59.515625 10.40625 
z
" id="DejaVuSans-71"/>
       <path d="M 39.40625 66.21875 
Q 28.65625 66.21875 22.328125 58.203125 
Q 16.015625 50.203125 16.015625 36.375 
Q 16.015625 22.609375 22.328125 14.59375 
Q 28.65625 6.59375 39.40625 6.59375 
Q 50.140625 6.59375 56.421875 14.59375 
Q 62.703125 22.609375 62.703125 36.375 
Q 62.703125 50.203125 56.421875 58.203125 
Q 50.140625 66.21875 39.40625 66.21875 
z
M 39.40625 74.21875 
Q 54.734375 74.21875 63.90625 63.9375 
Q 73.09375 53.65625 73.09375 36.375 
Q 73.09375 19.140625 63.90625 8.859375 
Q 54.734375 -1.421875 39.40625 -1.421875 
Q 24.03125 -1.421875 14.8125 8.828125 
Q 5.609375 19.09375 5.609375 36.375 
Q 5.609375 53.65625 14.8125 63.9375 
Q 24.03125 74.21875 39.40625 74.21875 
z
" id="DejaVuSans-79"/>
      </defs>
      <use xlink:href="#DejaVuSans-112"/>
      <use x="63.476562" xlink:href="#DejaVuSans-111"/>
      <use x="124.658203" xlink:href="#DejaVuSans-122"/>
      <use x="177.148438" xlink:href="#DejaVuSans-121"/>
      <use x="236.328125" xlink:href="#DejaVuSans-99"/>
      <use x="291.308594" xlink:href="#DejaVuSans-106"/>
      <use x="319.091797" xlink:href="#DejaVuSans-101"/>
      <use x="380.615234" xlink:href="#DejaVuSans-32"/>
      <use x="412.402344" xlink:href="#DejaVuSans-119"/>
      <use x="494.189453" xlink:href="#DejaVuSans-101"/>
      <use x="555.712891" xlink:href="#DejaVuSans-106"/>
      <use x="583.496094" xlink:href="#DejaVuSans-347"/>
      <use x="635.595703" xlink:href="#DejaVuSans-99"/>
      <use x="690.576172" xlink:href="#DejaVuSans-105"/>
      <use x="718.359375" xlink:href="#DejaVuSans-111"/>
      <use x="779.541016" xlink:href="#DejaVuSans-119"/>
      <use x="861.328125" xlink:href="#DejaVuSans-101"/>
      <use x="922.851562" xlink:href="#DejaVuSans-32"/>
      <use x="954.638672" xlink:href="#DejaVuSans-97"/>
      <use x="1015.917969" xlink:href="#DejaVuSans-103"/>
      <use x="1079.394531" xlink:href="#DejaVuSans-101"/>
      <use x="1140.917969" xlink:href="#DejaVuSans-110"/>
      <use x="1204.296875" xlink:href="#DejaVuSans-116"/>
      <use x="1243.505859" xlink:href="#DejaVuSans-97"/>
      <use x="1304.785156" xlink:href="#DejaVuSans-32"/>
      <use x="1336.572266" xlink:href="#DejaVuSans-69"/>
      <use x="1399.755859" xlink:href="#DejaVuSans-71"/>
      <use x="1477.246094" xlink:href="#DejaVuSans-79"/>
     </g>
    </g>
   </g>
  </g>
 </g>
 <defs>
  <clipPath id="p4a07f226d3">
   <rect height="236.16" width="354.24" x="47.52" y="23.04"/>
  </clipPath>
 </defs>
</svg>
