<?xml version="1.0" encoding="utf-8" standalone="no"?>
<!DOCTYPE svg PUBLIC "-//W3C//DTD SVG 1.1//EN"
  "http://www.w3.org/Graphics/SVG/1.1/DTD/svg11.dtd">
<!-- Created with matplotlib (https://matplotlib.org/) -->
<svg height="288pt" version="1.1" viewBox="0 0 432 288" width="432pt" xmlns="http://www.w3.org/2000/svg" xmlns:xlink="http://www.w3.org/1999/xlink">
 <metadata>
  <rdf:RDF xmlns:cc="http://creativecommons.org/ns#" xmlns:dc="http://purl.org/dc/elements/1.1/" xmlns:rdf="http://www.w3.org/1999/02/22-rdf-syntax-ns#">
   <cc:Work>
    <dc:type rdf:resource="http://purl.org/dc/dcmitype/StillImage"/>
    <dc:date>2021-01-03T23:01:35.933632</dc:date>
    <dc:format>image/svg+xml</dc:format>
    <dc:creator>
     <cc:Agent>
      <dc:title>Matplotlib v3.3.3, https://matplotlib.org/</dc:title>
     </cc:Agent>
    </dc:creator>
   </cc:Work>
  </rdf:RDF>
 </metadata>
 <defs>
  <style type="text/css">*{stroke-linecap:butt;stroke-linejoin:round;}</style>
 </defs>
 <g id="figure_1">
  <g id="patch_1">
   <path d="M 0 288 
L 432 288 
L 432 0 
L 0 0 
z
" style="fill:#ffffff;"/>
  </g>
  <g id="axes_1">
   <g id="patch_2">
    <path d="M 47.52 259.2 
L 401.76 259.2 
L 401.76 23.04 
L 47.52 23.04 
z
" style="fill:#ffffff;"/>
   </g>
   <g id="line2d_1">
    <path clip-path="url(#ped3c390daa)" d="M 342.659576 136.524897 
L 344.634007 136.536809 
L 346.608569 136.546067 
L 348.58308 136.55605 
L 350.557652 136.548109 
L 352.53222 136.538472 
L 354.506713 136.542441 
L 356.480972 136.552991 
L 358.455358 136.527458 
L 360.429857 136.507703 
L 362.404252 136.48163 
L 364.378549 136.45038 
L 366.352964 136.422911 
L 368.32741 136.403042 
L 370.301704 136.374081 
L 372.276096 136.347466 
L 374.249877 136.292538 
L 376.223968 136.247444 
L 378.19806 136.202351 
L 380.172151 136.157246 
L 382.146244 136.113265 
L 384.12006 136.057798 
L 386.093894 136.002926 
L 388.067864 135.952923 
L 390.041833 135.90292 
L 392.015803 135.852917 
L 393.989378 135.79201 
L 395.963021 135.732229 
L 397.936864 135.677383 
L 399.910749 135.624144 
L 401.884634 135.570905 
L 403.858519 135.517665 
L 405.832322 135.461687 
L 407.806062 135.40644 
L 409.779615 135.348767 
L 411.753668 135.303064 
L 413.727324 135.242051 
L 415.700985 135.181588 
L 417.674767 135.126183 
L 419.648545 135.069567 
L 421.622532 135.020116 
L 423.596357 134.964852 
L 425.570042 134.904584 
L 427.543777 134.845937 
L 429.517517 134.78748 
L 431.491599 134.742861 
L 433 134.71259 
" style="fill:none;stroke:#777777;stroke-linecap:square;stroke-width:1.5;"/>
   </g>
   <g id="line2d_2">
    <path clip-path="url(#ped3c390daa)" style="fill:none;stroke:#373737;stroke-linecap:square;stroke-width:1.5;"/>
   </g>
   <g id="line2d_3">
    <path clip-path="url(#ped3c390daa)" d="M 0 0 
" style="fill:none;stroke:#9c9c9c;stroke-linecap:square;stroke-width:1.5;"/>
   </g>
   <g id="line2d_4">
    <path clip-path="url(#ped3c390daa)" style="fill:none;stroke:#5c5c5c;stroke-linecap:square;stroke-width:1.5;"/>
   </g>
   <g id="line2d_5">
    <path clip-path="url(#ped3c390daa)" d="M 0 0 
" style="fill:none;stroke:#8a8a8a;stroke-linecap:square;stroke-width:1.5;"/>
   </g>
   <g id="line2d_6">
    <path clip-path="url(#ped3c390daa)" d="M -1 245.932447 
L 28.846954 247.024656 
L 32.779399 247.217789 
L 52.483888 247.960071 
L 76.122963 248.822786 
L 101.741034 249.779043 
L 101.741034 249.779043 
" style="fill:none;stroke:#8a8a8a;stroke-linecap:square;stroke-width:1.5;"/>
   </g>
   <g id="line2d_7">
    <path clip-path="url(#ped3c390daa)" style="fill:none;stroke:#474747;stroke-linecap:square;stroke-width:1.5;"/>
   </g>
   <g id="line2d_8">
    <path clip-path="url(#ped3c390daa)" d="M 29.931633 134.687902 
L 31.899627 134.705771 
L 33.867621 134.723641 
L 35.835601 134.743123 
L 37.803398 134.76482 
L 39.771009 134.781653 
L 41.738794 134.808593 
L 43.706756 134.829619 
L 45.67466 134.832448 
L 47.642569 134.844338 
L 49.609917 134.877335 
L 51.57787 134.892802 
L 53.545822 134.908268 
L 55.513873 134.91232 
L 57.481513 134.942766 
L 59.449156 134.941479 
L 61.416996 134.971555 
L 63.384892 134.994077 
L 65.352812 135.013064 
L 67.320784 135.018074 
L 69.288492 135.034118 
L 71.256234 135.052693 
L 73.224147 135.071195 
L 75.192037 135.081364 
L 77.15986 135.110316 
L 79.127844 135.128918 
L 81.095828 135.14752 
L 83.063809 135.166574 
L 85.031784 135.186313 
L 86.999795 135.202022 
L 88.967805 135.216247 
L 90.935552 135.245977 
L 92.902747 135.246427 
L 94.870528 135.278698 
L 96.83842 135.302994 
L 98.806388 135.32288 
L 100.774312 135.346528 
L 102.742206 135.372187 
L 104.70994 135.40871 
L 106.677849 135.424627 
L 108.64573 135.45114 
L 110.613606 135.478746 
L 112.581461 135.501341 
L 114.548857 135.546193 
L 116.516272 135.58924 
L 118.483896 135.61608 
L 120.449899 135.688886 
L 122.416427 135.751184 
L 124.383623 135.748869 
L 126.35158 135.765553 
L 128.319362 135.795115 
L 130.287082 135.807722 
L 132.255042 135.828658 
L 134.223003 135.849594 
L 136.190945 135.872035 
L 138.158796 135.901531 
L 140.126715 135.919352 
" style="fill:none;stroke:#6e6e6e;stroke-linecap:square;stroke-width:1.5;"/>
   </g>
   <g id="line2d_9">
    <path clip-path="url(#ped3c390daa)" d="M -1 148.36744 
L -0.503406 148.368983 
L 1.477866 148.375138 
L 3.459137 148.380563 
L 5.440406 148.383421 
L 7.421675 148.38628 
L 9.402903 148.396249 
L 11.384028 148.406973 
L 13.365136 148.404907 
L 15.346401 148.41432 
L 17.327666 148.423433 
L 19.308937 148.427673 
L 21.290215 148.429878 
L 23.2715 148.430577 
L 25.252785 148.431276 
L 27.234065 148.43239 
L 29.215341 148.433124 
L 31.196605 148.433177 
L 33.177866 148.433927 
L 35.159129 148.434373 
L 37.140393 148.437192 
L 39.121632 148.449981 
L 41.102842 148.466501 
L 43.084062 148.479442 
L 45.065314 148.489151 
L 47.046583 148.496642 
L 49.027852 148.504133 
L 51.00912 148.512169 
L 52.990392 148.519829 
L 54.971669 148.523164 
L 56.952953 148.520067 
L 58.934138 148.533096 
L 60.915415 148.539204 
L 62.896693 148.545311 
L 64.877969 148.551056 
L 66.859081 148.561082 
L 68.840325 148.557313 
L 70.821578 148.565414 
L 72.802831 148.573514 
L 74.784084 148.581612 
L 76.76533 148.584362 
L 78.746586 148.591458 
L 80.727843 148.5991 
L 82.70911 148.603271 
L 84.690394 148.602559 
L 86.671675 148.601422 
L 88.652944 148.599822 
L 90.634224 148.600826 
L 92.615497 148.608441 
L 94.596769 148.616055 
L 96.577764 148.634966 
L 98.559041 148.64154 
L 100.540318 148.648353 
L 102.521592 148.65215 
L 104.502871 148.653997 
L 106.48412 148.656858 
L 108.465371 148.668092 
L 110.446627 148.673291 
L 112.427899 148.678176 
L 114.409123 148.681723 
L 116.390328 148.695218 
L 118.371598 148.702592 
L 120.352868 148.709965 
L 122.334125 148.710534 
L 124.315239 148.721571 
L 126.296521 148.724478 
L 128.277799 148.724308 
L 130.259056 148.720779 
L 132.240299 148.723199 
L 134.221562 148.731834 
L 136.202838 148.734688 
L 138.184114 148.737543 
L 140.165391 148.740397 
" style="fill:none;stroke:#424242;stroke-linecap:square;stroke-width:1.5;"/>
   </g>
   <g id="line2d_10">
    <path clip-path="url(#ped3c390daa)" style="fill:none;stroke:#a8a8a8;stroke-linecap:square;stroke-width:1.5;"/>
   </g>
   <g id="line2d_11">
    <path clip-path="url(#ped3c390daa)" d="M 0 0 
" style="fill:none;stroke:#969696;stroke-linecap:square;stroke-width:1.5;"/>
   </g>
   <g id="line2d_12">
    <path clip-path="url(#ped3c390daa)" style="fill:none;stroke:#aeaeae;stroke-linecap:square;stroke-width:1.5;"/>
   </g>
   <g id="line2d_13">
    <path clip-path="url(#ped3c390daa)" d="M 433 131.502247 
L 432.720844 131.63557 
L 431.068911 132.458914 
L 429.426828 133.303834 
L 427.813983 134.200402 
L 426.221023 135.134644 
L 424.649857 136.103041 
L 423.108117 137.119191 
L 421.576858 138.150062 
L 420.084954 139.238405 
L 418.602337 140.33785 
L 417.179849 141.514638 
L 415.75392 142.68688 
L 414.379452 143.91902 
L 413.006417 145.153605 
L 411.70155 146.45926 
L 410.410574 147.779772 
L 409.18442 149.159412 
L 407.969316 150.549567 
L 406.809414 151.98489 
L 405.682484 153.447755 
L 404.602908 154.944659 
L 403.569309 156.474924 
L 402.568541 158.025921 
L 401.639588 159.621248 
L 400.754536 161.241822 
L 399.893371 162.874587 
L 399.123589 164.553126 
L 398.364734 166.236459 
L 397.701065 167.959601 
L 397.050043 169.687475 
L 396.497861 171.449078 
L 395.971312 173.218644 
L 395.529199 175.011412 
L 395.12898 176.813721 
L 394.826713 178.635565 
L 394.551881 180.461357 
L 394.366571 182.298748 
L 394.217911 184.139177 
L 394.161286 185.985088 
" style="fill:none;stroke:#9e9e9e;stroke-linecap:square;stroke-width:1.5;"/>
   </g>
   <g id="line2d_14">
    <path clip-path="url(#ped3c390daa)" style="fill:none;stroke:#5d5d5d;stroke-linecap:square;stroke-width:1.5;"/>
   </g>
   <g id="line2d_15">
    <path clip-path="url(#ped3c390daa)" d="M 373.13403 70.497651 
L 373.07807 72.473448 
L 373.009804 74.44884 
L 372.940773 76.424212 
L 372.87274 78.399558 
L 372.813208 80.375258 
L 372.752903 82.350929 
L 372.690486 84.326528 
L 372.628689 86.302156 
L 372.56381 88.27767 
L 372.475836 90.251901 
L 372.408918 92.227362 
L 372.342 94.202824 
L 372.275082 96.178285 
L 372.208078 98.153743 
L 372.137548 100.129063 
L 372.067475 102.104397 
L 371.987955 104.079354 
L 371.899586 106.053926 
L 371.806314 108.027985 
L 371.730708 110.003119 
L 371.656994 111.978334 
L 371.579873 113.953418 
L 371.50173 115.92846 
L 371.423588 117.903501 
L 371.350798 119.878706 
L 371.269183 121.853614 
L 371.188874 123.82857 
L 371.105682 125.803416 
L 371.027608 127.778461 
L 370.951649 129.75358 
L 370.875416 131.728688 
L 370.799182 133.703795 
L 370.722041 135.67887 
L 370.643249 137.653896 
L 370.565853 139.62898 
L 370.493106 141.604231 
L 370.421606 143.579526 
L 370.350909 145.55481 
L 370.274671 147.52992 
L 370.202137 149.505181 
L 370.129602 151.480443 
L 370.073397 153.456204 
L 370.023236 155.432138 
L 369.970613 157.408017 
L 369.915423 159.383838 
L 369.860233 161.359659 
L 369.809999 163.335584 
L 369.762733 165.311572 
L 369.715877 167.287572 
L 369.659077 169.263332 
L 369.608915 171.239209 
L 369.577533 173.21553 
L 369.543393 175.19183 
L 369.509154 177.168129 
L 369.474925 179.144429 
L 369.44037 181.120721 
L 369.405997 183.096992 
L 369.379859 185.073406 
L 369.352073 187.049806 
" style="fill:none;stroke:#bebebe;stroke-linecap:square;stroke-width:1.5;"/>
   </g>
   <g id="line2d_16">
    <path clip-path="url(#ped3c390daa)" d="M 417.817984 -1 
L 417.769869 0.941148 
L 417.722856 2.940061 
L 417.674598 4.939097 
L 417.62722 6.938158 
L 417.578539 8.93716 
L 417.541011 10.936418 
L 417.497785 12.93555 
L 417.443956 14.934418 
L 417.394992 16.933425 
L 417.351288 18.932537 
L 417.298253 20.931403 
L 417.243112 22.930225 
L 417.203977 24.9294 
L 417.157302 26.928389 
L 417.100479 28.927189 
L 417.052787 30.926198 
L 416.998882 32.925076 
L 416.974943 34.924351 
L 416.925945 36.923325 
L 416.870623 38.922176 
L 416.820758 40.921128 
L 416.769038 42.920061 
L 416.705128 44.918571 
L 416.647164 46.917323 
L 416.592703 48.916204 
L 416.539152 50.91511 
L 416.485601 52.914016 
L 416.432069 54.91288 
L 416.37986 56.9118 
L 416.316659 58.910414 
L 416.256773 60.90912 
L 416.199228 62.9079 
L 416.141154 64.906664 
L 416.085047 66.905334 
L 416.039783 68.904202 
" style="fill:none;stroke:#878787;stroke-linecap:square;stroke-width:1.5;"/>
   </g>
   <g id="line2d_17">
    <path clip-path="url(#ped3c390daa)" d="M 339.949407 122.899778 
L 337.972537 122.921096 
L 335.99546 122.898521 
L 334.018315 122.874928 
L 332.041139 122.852171 
L 330.064073 122.823317 
L 328.086893 122.800155 
L 326.109713 122.776992 
L 324.132492 122.758287 
L 322.155345 122.733534 
L 320.178201 122.707671 
L 318.201027 122.700436 
L 316.223836 122.688296 
L 314.24656 122.677658 
L 312.269291 122.665382 
L 310.29203 122.651284 
L 308.314803 122.644036 
L 306.337766 122.618548 
L 304.360961 122.605207 
L 302.383822 122.610224 
L 300.407225 122.603783 
L 298.430002 122.607191 
L 296.45304 122.615545 
L 294.476234 122.586667 
L 292.499382 122.560558 
L 290.522838 122.549001 
L 288.546495 122.5355 
L 286.569521 122.53331 
L 284.59229 122.515792 
L 282.615354 122.504579 
L 280.638322 122.479004 
L 278.661162 122.454509 
L 276.684107 122.425786 
L 274.707022 122.398597 
L 272.730042 122.376432 
L 270.753377 122.351541 
L 268.777084 122.309096 
L 266.800239 122.306961 
L 264.822959 122.300405 
L 262.845715 122.299237 
L 260.868764 122.281917 
L 258.891744 122.256988 
L 256.914954 122.221333 
L 254.938656 122.170768 
L 252.961691 122.156386 
L 250.984477 122.162676 
L 249.007282 122.154978 
L 247.030084 122.13991 
L 245.053366 122.10776 
L 243.076054 122.106681 
L 241.098743 122.105413 
L 239.121439 122.104452 
L 237.144157 122.105189 
L 235.166861 122.106725 
L 233.189772 122.09126 
L 231.212651 122.078043 
L 229.235568 122.079174 
L 227.258335 122.073245 
L 225.281119 122.080124 
L 223.30385 122.082609 
L 221.326793 122.061084 
L 219.349592 122.047897 
L 217.372334 122.036587 
L 215.395035 122.029404 
L 213.418439 122.031578 
L 211.441765 122.042007 
L 209.464516 122.026473 
L 207.487293 122.020292 
L 205.51008 122.004443 
L 203.532915 121.989169 
L 201.556089 122.001209 
L 199.579157 122.019268 
L 197.602193 122.038003 
L 195.62541 122.037938 
L 193.648741 122.040943 
L 191.672223 122.056035 
L 189.695262 122.047895 
L 187.71827 122.039265 
L 185.741624 122.062213 
L 183.764431 122.049342 
L 181.787177 122.038375 
L 179.810063 122.014677 
L 177.832993 122.000207 
L 175.856146 121.966036 
L 173.879278 121.959288 
L 171.902148 121.945406 
L 169.924938 121.933695 
L 167.947764 121.910687 
L 165.970544 121.892331 
L 163.993416 121.873683 
L 162.016194 121.882418 
L 160.039062 121.874849 
L 158.062376 121.834272 
L 156.085289 121.81905 
L 154.108065 121.800439 
L 152.130853 121.781038 
L 150.153634 121.778133 
L 148.17642 121.766951 
L 146.199338 121.74733 
L 144.222888 121.781877 
L 142.246742 121.841544 
L 140.270734 121.912663 
" style="fill:none;stroke:#c6c6c6;stroke-linecap:square;stroke-width:1.5;"/>
   </g>
   <g id="line2d_18">
    <path clip-path="url(#ped3c390daa)" d="M 380.917425 186.12783 
L 379.781665 267.142439 
L 379.309327 289 
L 379.309327 289 
" style="fill:none;stroke:#464646;stroke-linecap:square;stroke-width:1.5;"/>
   </g>
   <g id="line2d_19">
    <path clip-path="url(#ped3c390daa)" d="M 101.741034 249.779043 
L 103.293365 250.000521 
L 104.845696 250.222 
L 106.35886 250.607225 
L 107.842214 251.11533 
L 109.267641 251.753031 
L 110.634874 252.52078 
L 111.956368 253.353935 
L 113.146573 254.374813 
L 114.335894 255.396532 
L 115.302985 256.630644 
L 116.268943 257.86584 
L 117.05673 259.216187 
L 117.786298 260.604174 
L 118.338328 262.066047 
L 118.80604 263.562454 
L 119.140588 265.087165 
L 119.314041 266.645591 
L 119.487493 268.204017 
" style="fill:none;stroke:#818181;stroke-linecap:square;stroke-width:1.5;"/>
   </g>
   <g id="line2d_20">
    <path clip-path="url(#ped3c390daa)" style="fill:none;stroke:#747474;stroke-linecap:square;stroke-width:1.5;"/>
   </g>
   <g id="line2d_21">
    <path clip-path="url(#ped3c390daa)" d="M 398.085881 69.622127 
L 397.987945 71.593196 
L 397.908139 73.564971 
L 397.821384 75.536497 
L 397.731799 77.507961 
L 397.643642 79.479494 
L 397.558771 81.451159 
L 397.473899 83.422823 
L 397.394095 85.394673 
L 397.292995 87.36512 
L 397.211358 89.336934 
L 397.13081 91.308779 
L 397.05621 93.280685 
L 396.95696 95.251673 
L 396.864728 97.222992 
L 396.772496 99.194312 
L 396.68369 101.165763 
L 396.594976 103.137246 
L 396.510585 105.108923 
L 396.432326 107.080837 
L 396.357474 109.052912 
L 396.281402 111.024943 
L 396.20925 112.997107 
L 396.137098 114.96927 
L 396.06584 116.94147 
L 395.996008 118.913729 
L 395.926176 120.885987 
L 395.856344 122.858246 
L 395.785926 124.830486 
L 395.714295 126.802675 
L 395.634545 128.774503 
L 395.560049 130.746577 
L 395.486828 132.718721 
L 395.421853 134.691135 
L 395.363508 136.663765 
L 395.305163 138.636396 
L 395.244934 140.608978 
L 395.184658 142.581558 
L 395.124381 144.554138 
L 395.06438 146.526728 
L 395.004853 148.499334 
L 394.947491 150.47199 
L 394.895082 152.444765 
L 394.842691 154.417541 
L 394.789898 156.390309 
L 394.734171 158.363012 
L 394.678264 160.335711 
L 394.629784 162.308621 
L 394.584615 164.281611 
L 394.547156 166.254747 
L 394.509214 168.227865 
L 394.465322 170.200416 
L 394.416134 172.173172 
L 394.381802 174.146377 
L 394.34747 176.119583 
L 394.320366 178.092741 
L 394.280993 180.065829 
L 394.241091 182.038915 
L 394.201188 184.012002 
L 394.161286 185.985088 
" style="fill:none;stroke:#717171;stroke-linecap:square;stroke-width:1.5;"/>
   </g>
   <g id="line2d_22">
    <path clip-path="url(#ped3c390daa)" d="M 369.352073 187.049806 
L 369.037067 214.628149 
L 368.237978 265.843301 
L 367.746056 289 
L 367.746056 289 
" style="fill:none;stroke:#969696;stroke-linecap:square;stroke-width:1.5;"/>
   </g>
   <g id="line2d_23">
    <path clip-path="url(#ped3c390daa)" style="fill:none;stroke:#b0b0b0;stroke-linecap:square;stroke-width:1.5;"/>
   </g>
   <g id="line2d_24">
    <path clip-path="url(#ped3c390daa)" style="fill:none;stroke:#6b6b6b;stroke-linecap:square;stroke-width:1.5;"/>
   </g>
   <g id="line2d_25">
    <path clip-path="url(#ped3c390daa)" d="M 433 98.522584 
L 431.161161 98.645813 
L 429.179232 98.783217 
L 427.198099 98.934332 
L 425.21813 99.097943 
L 423.239021 99.272009 
L 421.260183 99.448586 
L 419.283579 99.651379 
L 417.30893 99.869076 
L 415.334535 100.088587 
L 413.360072 100.307319 
L 411.384997 100.519166 
L 409.40945 100.729588 
L 407.434572 100.947408 
L 405.46096 101.174982 
L 403.487952 101.407205 
L 401.51446 101.635009 
L 399.540849 101.862524 
L 397.567684 102.093607 
L 395.594622 102.325724 
L 393.623111 102.569681 
L 391.650264 102.804649 
L 389.676097 103.025932 
L 387.702745 103.255975 
L 385.72956 103.487226 
L 383.757329 103.7254 
L 381.784905 103.961507 
L 379.809396 104.167062 
L 377.834037 104.377618 
L 375.856755 104.569364 
L 373.87951 104.761339 
L 371.903851 104.971387 
L 369.925941 105.152565 
L 367.946909 105.323217 
L 365.967402 105.490744 
L 363.986592 105.644042 
L 362.004924 105.781216 
L 360.023473 105.923861 
L 358.040326 106.040328 
L 356.055936 106.136533 
L 354.072515 106.247263 
L 352.087201 106.310466 
L 350.101265 106.363857 
L 348.115448 106.426232 
L 346.130301 106.472796 
L 344.144005 106.49545 
L 342.157354 106.487905 
L 340.170704 106.470883 
" style="fill:none;stroke:#585858;stroke-linecap:square;stroke-width:1.5;"/>
   </g>
   <g id="line2d_26">
    <path clip-path="url(#ped3c390daa)" d="M 425.634099 183.089384 
L 425.629504 181.291907 
L 425.575931 179.495024 
L 425.502415 177.699057 
L 425.34416 175.909256 
L 425.153785 174.121859 
L 424.915882 172.340705 
L 424.63768 170.564869 
L 424.318144 168.796791 
L 423.924861 167.042589 
L 423.515341 165.292518 
L 423.028523 163.562192 
L 422.541706 161.831866 
L 421.952275 160.133984 
L 421.361197 158.436661 
L 420.691512 156.768835 
L 420.005963 155.106911 
L 419.271444 153.467021 
L 418.502078 151.842437 
L 417.689908 150.239934 
L 416.828694 148.662301 
L 415.953515 147.092785 
L 415.006725 145.564845 
L 414.051568 144.042935 
L 413.030845 142.563134 
L 412.005805 141.086376 
L 410.92367 139.651592 
L 409.830558 138.224614 
L 408.678899 136.845215 
L 407.514849 135.475893 
L 406.310887 134.141827 
L 405.073159 132.837981 
L 403.814082 131.555754 
L 402.510053 130.318685 
L 401.198911 129.089553 
L 399.840339 127.91232 
L 398.479524 126.737842 
L 397.06808 125.625011 
L 395.654098 124.515118 
L 394.193191 123.469587 
L 392.730332 122.42468 
L 391.235329 121.427806 
L 389.717613 120.464563 
L 388.184544 119.527478 
L 386.621406 118.63942 
L 385.057804 117.753883 
L 383.464569 116.922047 
L 381.869784 116.093678 
L 380.236763 115.342784 
L 378.605726 114.586735 
L 376.950021 113.889697 
L 375.280269 113.224515 
L 373.605275 112.571248 
L 371.911834 111.969813 
L 370.208089 111.397496 
L 368.495478 110.852386 
L 366.772073 110.341303 
L 365.045975 109.84193 
L 363.297652 109.423442 
L 361.549677 109.004231 
L 359.793909 108.621517 
L 358.034115 108.254554 
L 356.261077 107.961929 
L 354.486025 107.677561 
L 352.708617 107.415476 
L 350.924396 107.200806 
L 349.141151 106.983152 
L 347.349099 106.840827 
L 345.559013 106.688925 
L 343.762756 106.617695 
L 341.966703 106.547601 
L 340.170704 106.470883 
" style="fill:none;stroke:#888888;stroke-linecap:square;stroke-width:1.5;"/>
   </g>
   <g id="line2d_27">
    <path clip-path="url(#ped3c390daa)" d="M 425.634099 183.089384 
L 425.64394 181.261672 
L 425.546995 179.436869 
L 425.406584 177.614899 
L 425.164456 175.803773 
L 424.886837 173.997556 
L 424.507236 172.210352 
L 424.087173 170.431671 
L 423.600391 168.670249 
L 423.026805 166.93602 
L 422.390293 165.222696 
L 421.708343 163.528113 
L 420.960558 161.860642 
L 420.158228 160.219898 
L 419.293512 158.610575 
L 418.382568 157.027556 
L 417.396912 155.489433 
L 416.382182 153.969612 
L 415.318072 152.48583 
L 414.190249 151.047683 
L 413.048821 149.623122 
L 411.831293 148.260301 
L 410.61555 146.896813 
L 409.338875 145.590381 
L 408.008513 144.337755 
L 406.660993 143.104589 
L 405.253784 141.940074 
L 403.83096 140.79378 
L 402.380184 139.683255 
L 400.910776 138.596769 
L 399.394287 137.579795 
L 397.856285 136.593832 
L 396.299045 135.63701 
L 394.714172 134.728937 
L 393.105659 133.861322 
L 391.48158 133.025111 
L 389.8316 132.239159 
L 388.172312 131.47524 
L 386.48632 130.770331 
L 384.795229 130.078455 
L 383.084114 129.43688 
L 381.366904 128.811988 
L 379.628288 128.249731 
L 377.884981 127.701464 
L 376.122856 127.218714 
L 374.36357 126.724251 
L 372.588871 126.291687 
L 370.810967 125.868279 
L 369.026934 125.475395 
L 367.232323 125.129113 
L 365.432376 124.814846 
L 363.626935 124.531452 
L 361.821466 124.24817 
L 360.008099 124.021353 
L 358.194042 123.800372 
L 356.375005 123.624259 
L 354.555647 123.455885 
L 352.73209 123.333362 
L 350.908249 123.218071 
L 349.084596 123.103007 
L 347.2583 123.031555 
L 345.431563 122.977061 
L 343.604121 122.949183 
L 341.776515 122.929753 
L 339.949407 122.899778 
" style="fill:none;stroke:#717171;stroke-linecap:square;stroke-width:1.5;"/>
   </g>
   <g id="line2d_28">
    <path clip-path="url(#ped3c390daa)" d="M 102.199613 237.598442 
L 90.377521 237.132666 
L 41.126747 235.280508 
L -1 233.71973 
L -1 233.71973 
" style="fill:none;stroke:#606060;stroke-linecap:square;stroke-width:1.5;"/>
   </g>
   <g id="line2d_29">
    <path clip-path="url(#ped3c390daa)" d="M 140.171532 148.713252 
L 142.154095 148.713402 
L 144.136732 148.721664 
L 146.119448 148.734271 
L 148.102181 148.745605 
L 150.084913 148.75694 
L 152.067645 148.768274 
L 154.050378 148.779609 
L 156.03311 148.790943 
L 158.015848 148.799383 
L 159.998598 148.801404 
L 161.981321 148.812776 
L 163.964066 148.821821 
L 165.946811 148.830867 
L 167.929554 148.835172 
L 169.912242 148.84993 
L 171.894959 148.862399 
L 173.877679 148.866713 
L 175.859897 148.878835 
L 177.841645 148.923023 
L 179.82438 148.930274 
L 181.807114 148.937524 
L 183.789807 148.947229 
L 185.772507 148.951082 
L 187.755233 148.947962 
L 189.737021 148.96874 
L 191.719516 148.96807 
L 193.702132 148.966 
L 195.684573 148.979347 
L 197.667112 148.986882 
L 199.649665 149.014274 
L 201.632213 149.011371 
L 203.614823 149.029852 
L 205.597528 149.033262 
L 207.580243 149.035223 
L 209.562991 149.037696 
L 211.545751 149.040905 
L 213.528476 149.051432 
L 215.511185 149.066253 
L 217.493895 149.081074 
L 219.476612 149.090413 
L 221.459346 149.096704 
L 223.442088 149.105571 
L 225.424749 149.120449 
L 227.407429 149.135293 
L 229.390156 149.147583 
L 231.372883 149.159873 
L 233.355593 149.166236 
L 235.338337 149.173003 
L 237.320899 149.172762 
L 239.303306 149.164392 
L 241.285969 149.183692 
L 243.268708 149.186301 
L 245.251472 149.184975 
L 247.234192 149.182793 
L 249.216885 149.192916 
L 251.199586 149.200597 
L 253.182341 149.19908 
L 255.16509 149.204198 
L 257.147833 149.210955 
L 259.130546 149.209182 
L 261.113294 149.21214 
L 263.096037 149.215211 
L 265.078753 149.209393 
L 267.061247 149.224403 
L 269.043596 149.259342 
L 271.026005 149.25598 
L 273.008635 149.233652 
L 274.99106 149.238857 
L 276.973786 149.238287 
L 278.956507 149.23961 
L 280.939223 149.24535 
L 282.921947 149.255614 
L 284.904692 149.261393 
L 286.887448 149.262959 
L 288.870165 149.262704 
L 290.852878 149.275431 
L 292.835358 149.297123 
L 294.817827 149.287441 
L 296.800489 149.285131 
L 298.783095 149.270778 
L 300.764928 149.270836 
L 302.747379 149.292722 
L 304.729688 149.27663 
L 306.712293 149.289063 
L 308.695015 149.289849 
L 310.677749 149.296964 
L 312.660483 149.304079 
L 314.643245 149.303535 
L 316.625951 149.312696 
L 318.608655 149.322617 
L 320.591409 149.327168 
L 322.574164 149.332233 
L 324.556917 149.335522 
L 326.53967 149.33831 
L 328.522423 149.340879 
L 330.505176 149.340276 
L 332.487909 149.346428 
L 334.470558 149.363387 
L 336.453129 149.390114 
L 338.435694 149.417464 
L 340.418234 149.44581 
L 342.400423 149.464027 
" style="fill:none;stroke:#575757;stroke-linecap:square;stroke-width:1.5;"/>
   </g>
   <g id="line2d_30">
    <path clip-path="url(#ped3c390daa)" d="M -1 161.200023 
L -0.614724 161.200086 
L 1.366449 161.2006 
L 3.347581 161.208923 
L 5.328733 161.215073 
L 7.309896 161.219628 
L 9.291059 161.224183 
L 11.272222 161.228739 
L 13.253374 161.237049 
L 15.234376 161.253714 
L 17.215518 161.258568 
L 19.196665 161.262861 
L 21.177816 161.266681 
L 23.158936 161.266169 
L 25.139788 161.286812 
L 27.120942 161.292677 
L 29.102102 161.292205 
L 31.083267 161.286719 
L 33.064429 161.289261 
L 35.04559 161.293266 
L 37.02675 161.297271 
L 39.007911 161.301275 
L 40.989078 161.303932 
L 42.970247 161.308971 
L 44.951415 161.314221 
L 46.93249 161.312424 
L 48.913559 161.310842 
L 50.894731 161.31356 
L 52.875903 161.316278 
L 54.857073 161.317838 
L 56.838206 161.312521 
L 58.819352 161.315738 
L 60.800478 161.32559 
L 62.781632 161.332308 
L 64.762786 161.339025 
L 66.74394 161.345743 
L 68.725094 161.35246 
L 70.706248 161.359343 
L 72.687402 161.366391 
L 74.668565 161.371703 
L 76.64973 161.37691 
L 78.630873 161.38534 
L 80.612017 161.393771 
L 82.593151 161.404942 
L 84.574267 161.411432 
L 86.555385 161.421934 
L 88.536361 161.41816 
L 90.517502 161.429385 
L 92.498661 161.437175 
L 94.479825 161.443851 
L 96.460989 161.450528 
L 98.442153 161.457204 
L 100.423314 161.464358 
L 102.404341 161.486649 
L 104.385458 161.482503 
L 106.36658 161.478856 
L 108.347701 161.475209 
L 110.328557 161.481059 
L 112.3095 161.473495 
L 114.290641 161.484862 
L 116.271783 161.49623 
L 118.252924 161.507597 
L 120.234066 161.518964 
L 122.215207 161.530274 
L 124.196363 161.539142 
L 126.177518 161.54801 
L 128.158674 161.556878 
L 130.139829 161.565746 
L 132.120991 161.572888 
L 134.102134 161.574258 
L 136.083254 161.569024 
L 138.064407 161.568378 
L 140.045564 161.568393 
" style="fill:none;stroke:#a6a6a6;stroke-linecap:square;stroke-width:1.5;"/>
   </g>
   <g id="line2d_31">
    <path clip-path="url(#ped3c390daa)" d="M -1 136.410601 
L 0.281654 136.27858 
L 2.251267 136.081801 
L 4.221654 135.905273 
L 6.193224 135.734067 
L 8.16472 135.555216 
L 10.136213 135.380873 
L 12.109853 135.241631 
L 14.085864 135.117954 
L 16.061679 135.000264 
L 18.038818 134.936777 
L 20.018054 134.870376 
L 21.996659 134.788382 
L 23.973715 134.713056 
L 25.9523 134.689871 
L 27.931464 134.672243 
L 29.910628 134.654615 
" style="fill:none;stroke:#a9a9a9;stroke-linecap:square;stroke-width:1.5;"/>
   </g>
   <g id="line2d_32">
    <path clip-path="url(#ped3c390daa)" d="M 387.626811 -1 
L 387.553986 0.929698 
L 387.477207 2.908741 
L 387.397875 4.887707 
L 387.321809 6.866774 
L 387.244902 8.845819 
L 387.17829 10.825162 
L 387.102663 12.804301 
L 387.023226 14.783255 
L 386.947244 16.762366 
L 386.877965 18.741575 
L 386.803439 20.720696 
L 386.728912 22.699817 
L 386.654386 24.678938 
L 386.578417 26.658017 
L 386.501839 28.637078 
L 386.425262 30.616139 
L 386.348684 32.5952 
L 386.271681 34.574278 
L 386.199048 36.553476 
L 386.124041 38.532579 
L 386.04787 40.511653 
L 385.97829 42.491016 
L 385.895328 44.469743 
L 385.815552 46.448617 
L 385.747347 48.428013 
L 385.676817 50.40729 
L 385.604067 52.386431 
L 385.527736 54.365469 
L 385.450383 56.344526 
L 385.3804 58.323867 
L 385.307929 60.303048 
L 385.237662 62.282352 
L 385.165953 64.261598 
L 385.092218 66.240756 
L 385.012234 68.219652 
L 384.929429 70.198409 
" style="fill:none;stroke:#cacaca;stroke-linecap:square;stroke-width:1.5;"/>
   </g>
   <g id="line2d_33">
    <path clip-path="url(#ped3c390daa)" style="fill:none;stroke:#414141;stroke-linecap:square;stroke-width:1.5;"/>
   </g>
   <g id="line2d_34">
    <path clip-path="url(#ped3c390daa)" style="fill:none;stroke:#6f6f6f;stroke-linecap:square;stroke-width:1.5;"/>
   </g>
   <g id="line2d_35">
    <path clip-path="url(#ped3c390daa)" d="M 0 0 
" style="fill:none;stroke:#767676;stroke-linecap:square;stroke-width:1.5;"/>
   </g>
   <g id="line2d_36">
    <path clip-path="url(#ped3c390daa)" d="M 0 0 
" style="fill:none;stroke:#a8a8a8;stroke-linecap:square;stroke-width:1.5;"/>
   </g>
   <g id="line2d_37">
    <path clip-path="url(#ped3c390daa)" style="fill:none;stroke:#7d7d7d;stroke-linecap:square;stroke-width:1.5;"/>
   </g>
   <g id="line2d_38">
    <path clip-path="url(#ped3c390daa)" d="M 342.659576 136.524897 
L 344.512243 136.527299 
L 346.364967 136.532261 
L 348.217689 136.526448 
L 350.069868 136.485968 
L 351.922029 136.442757 
L 353.774111 136.393535 
L 355.625451 136.32841 
L 357.476165 136.243097 
L 359.326 136.13924 
L 361.17524 136.02637 
L 363.022625 135.88581 
L 364.869418 135.739305 
L 366.713362 135.560681 
L 368.555103 135.359145 
L 370.396629 135.155415 
L 372.235121 134.927944 
L 374.069651 134.669176 
L 375.90396 134.408363 
L 377.732446 134.111275 
L 379.556428 133.786062 
L 381.380499 133.46136 
L 383.19942 133.11079 
L 385.010468 132.719942 
L 386.816424 132.307978 
L 388.610669 131.846143 
L 390.404915 131.384309 
L 392.195159 130.908287 
L 393.97353 130.389153 
L 395.746103 129.851043 
L 397.503594 129.2655 
L 399.257212 128.667581 
L 401.006849 128.058988 
L 402.737091 127.397915 
L 404.458213 126.712414 
L 406.162699 125.98736 
L 407.856777 125.237234 
L 409.548555 124.482021 
L 411.21922 123.682826 
L 412.870914 122.843453 
L 414.5033 121.968559 
L 416.118825 121.06178 
L 417.718249 120.128329 
L 419.29659 119.1584 
L 420.859212 118.164186 
L 422.393846 117.126566 
L 423.91515 116.069268 
L 425.41362 114.981183 
L 426.884855 113.856021 
L 428.333887 112.702563 
L 429.748639 111.507319 
L 431.143429 110.288508 
L 432.494367 109.021234 
L 433 108.536927 
" style="fill:none;stroke:#585858;stroke-linecap:square;stroke-width:1.5;"/>
   </g>
   <g id="line2d_39">
    <path clip-path="url(#ped3c390daa)" style="fill:none;stroke:#939393;stroke-linecap:square;stroke-width:1.5;"/>
   </g>
   <g id="line2d_40">
    <path clip-path="url(#ped3c390daa)" d="M 384.929429 70.198409 
L 384.83043 72.195996 
L 384.749869 74.194427 
L 384.675547 76.193116 
L 384.602475 78.191857 
L 384.522453 80.19029 
L 384.43647 82.18845 
L 384.352942 84.186734 
L 384.268776 86.184958 
L 384.188411 88.183354 
L 384.11182 90.18193 
L 384.031572 92.180353 
L 383.949038 94.178711 
L 383.865029 96.177016 
L 383.78102 98.175321 
L 383.700879 100.173763 
L 383.621259 102.172223 
L 383.541639 104.170682 
L 383.461803 106.169132 
L 383.38037 108.167501 
L 383.308451 110.166126 
L 383.229887 112.164659 
L 383.135411 114.16223 
L 383.054766 116.160676 
L 382.974121 118.159121 
L 382.893047 120.157547 
L 382.809568 122.155866 
L 382.729556 124.154306 
L 382.651852 126.152826 
L 382.574147 128.151346 
L 382.500521 130.150008 
L 382.434869 132.148972 
L 382.363884 134.14776 
L 382.292898 136.146548 
L 382.221912 138.145336 
L 382.148463 140.144047 
L 382.075364 142.142776 
L 382.002363 144.141509 
L 381.932689 146.140333 
L 381.870398 148.139364 
L 381.812024 150.138554 
L 381.751755 152.137699 
L 381.690726 154.136825 
L 381.627919 156.135903 
L 381.56548 158.134992 
L 381.507175 160.134181 
L 381.45229 162.133447 
L 381.397107 164.132702 
L 381.342097 166.131947 
L 381.292686 168.131339 
L 381.250859 170.130963 
L 381.209033 172.130588 
L 381.167207 174.130212 
L 381.125381 176.129836 
L 381.08355 178.129461 
L 381.043094 180.129107 
L 380.992106 182.128399 
L 380.953768 184.128091 
L 380.917425 186.12783 
" style="fill:none;stroke:#a5a5a5;stroke-linecap:square;stroke-width:1.5;"/>
   </g>
   <g id="line2d_41">
    <path clip-path="url(#ped3c390daa)" style="fill:none;stroke:#bebebe;stroke-linecap:square;stroke-width:1.5;"/>
   </g>
   <g id="line2d_42">
    <path clip-path="url(#ped3c390daa)" d="M 342.400423 149.464027 
L 344.382624 149.496118 
L 346.364555 149.540283 
L 348.346738 149.542144 
L 350.328935 149.576595 
L 352.311218 149.595575 
L 354.293329 149.619761 
L 356.275486 149.653405 
L 358.257809 149.67992 
L 360.239981 149.709567 
L 362.222013 149.716374 
L 364.204543 149.713721 
L 366.186785 149.722371 
L 368.169223 149.72638 
L 370.151582 149.735274 
L 372.134021 149.749692 
L 374.116232 149.746773 
L 376.098635 149.752025 
L 378.081036 149.75745 
L 380.063273 149.764525 
L 382.045665 149.760723 
L 384.028089 149.762524 
L 386.010488 149.756229 
L 387.992887 149.749949 
L 389.975318 149.739638 
L 391.957837 149.737614 
L 393.94016 149.738973 
L 395.922617 149.744981 
L 397.904813 149.722087 
L 399.887187 149.710483 
L 401.869517 149.697079 
L 403.851957 149.68846 
L 405.834397 149.679869 
L 407.816837 149.671327 
L 409.799277 149.662785 
L 411.781716 149.654243 
L 413.764156 149.6457 
L 415.746551 149.639824 
L 417.729011 149.633273 
L 419.711519 149.624599 
L 421.693957 149.615228 
L 423.676281 149.6017 
L 425.6586 149.590044 
L 427.641065 149.581271 
L 429.623483 149.56798 
L 431.605866 149.560856 
L 433 149.555846 
" style="fill:none;stroke:#757575;stroke-linecap:square;stroke-width:1.5;"/>
   </g>
   <g id="line2d_43">
    <path clip-path="url(#ped3c390daa)" d="M 423.521106 289 
L 423.55028 287.547996 
L 423.589878 285.57708 
L 423.629477 283.606165 
L 423.669076 281.635249 
L 423.708675 279.664333 
L 423.748274 277.693417 
L 423.787873 275.722502 
L 423.827472 273.751586 
L 423.867071 271.78067 
L 423.90667 269.809754 
L 423.946269 267.838838 
L 423.985867 265.867923 
L 424.025466 263.897007 
L 424.065065 261.926091 
L 424.104664 259.955175 
L 424.144263 257.98426 
L 424.184485 256.013355 
L 424.224901 254.042454 
L 424.265317 252.071554 
L 424.305734 250.100653 
L 424.346281 248.129755 
L 424.386843 246.158857 
L 424.427404 244.18796 
L 424.467118 242.217047 
L 424.506686 240.246131 
L 424.546254 238.275215 
L 424.586474 236.304312 
L 424.626793 234.333409 
L 424.667113 232.362507 
L 424.707433 230.391605 
L 424.747752 228.420703 
L 424.788072 226.449801 
L 424.828392 224.478899 
L 424.868711 222.507997 
L 424.908647 220.537088 
L 424.942392 218.56606 
L 424.9775 216.595057 
L 425.016285 214.624121 
L 425.055034 212.653185 
L 425.093728 210.682248 
L 425.132422 208.711311 
L 425.171116 206.740374 
L 425.20981 204.769437 
L 425.248504 202.7985 
L 425.287198 200.827563 
L 425.325796 198.856625 
L 425.356707 196.885666 
L 425.396356 194.914852 
L 425.430976 192.943882 
L 425.471017 190.972971 
L 425.511058 189.00206 
L 425.551781 187.031162 
L 425.59294 185.060273 
L 425.634099 183.089384 
" style="fill:none;stroke:#b2b2b2;stroke-linecap:square;stroke-width:1.5;"/>
   </g>
   <g id="line2d_44">
    <path clip-path="url(#ped3c390daa)" d="M 0 0 
" style="fill:none;stroke:#3a3a3a;stroke-linecap:square;stroke-width:1.5;"/>
   </g>
   <g id="line2d_45">
    <path clip-path="url(#ped3c390daa)" style="fill:none;stroke:#434343;stroke-linecap:square;stroke-width:1.5;"/>
   </g>
   <g id="line2d_46">
    <path clip-path="url(#ped3c390daa)" d="M 433 127.020993 
L 431.854596 127.380259 
L 430.108224 127.977723 
L 428.361943 128.573069 
L 426.644793 129.24987 
L 424.924189 129.917194 
L 423.221065 130.626536 
L 421.532897 131.372371 
L 419.853254 132.137348 
L 418.201971 132.960671 
L 416.553853 133.790957 
L 414.941297 134.687193 
L 413.33878 135.602786 
L 411.760978 136.558187 
L 410.200086 137.542877 
L 408.673312 138.577921 
L 407.174727 139.655342 
L 405.696214 140.758163 
L 404.231432 141.879832 
L 402.800133 143.044285 
L 401.400684 144.246227 
L 400.034909 145.487167 
L 398.710652 146.771169 
L 397.41201 148.082794 
L 396.166187 149.443261 
L 394.946851 150.828907 
L 393.775376 152.253144 
L 392.636072 153.705403 
L 391.534699 155.185077 
L 390.487382 156.704984 
L 389.471808 158.244747 
L 388.522217 159.827333 
L 387.593878 161.421241 
L 386.76113 163.068435 
L 385.937291 164.719632 
L 385.214052 166.417743 
L 384.491395 168.116134 
L 383.882461 169.858469 
L 383.278061 171.602537 
L 382.778382 173.378841 
L 382.299494 175.161313 
L 381.90487 176.964109 
L 381.556479 178.776312 
L 381.326916 180.607604 
L 381.132061 182.4431 
L 380.998286 184.283766 
L 380.917425 186.12783 
" style="fill:none;stroke:#959595;stroke-linecap:square;stroke-width:1.5;"/>
   </g>
   <g id="line2d_47">
    <path clip-path="url(#ped3c390daa)" d="M 373.13403 70.497651 
L 373.094514 72.138092 
L 372.959115 73.773631 
L 372.76369 75.403296 
L 372.521375 77.02923 
L 372.206471 78.639657 
L 371.838431 80.241158 
L 371.407572 81.82689 
L 370.893997 83.386963 
L 370.331655 84.932964 
L 369.693904 86.448572 
L 368.984077 87.932379 
L 368.221392 89.39015 
L 367.399196 90.814647 
L 366.505109 92.194264 
L 365.540216 93.527466 
L 364.526359 94.823048 
L 363.450057 96.066865 
L 362.319552 97.262719 
L 361.135496 98.404463 
L 359.874573 99.459825 
L 358.579368 100.475047 
L 357.235453 101.423037 
L 355.835502 102.285866 
L 354.403124 103.094004 
L 352.91812 103.801032 
L 351.405403 104.444836 
L 349.864941 105.018024 
L 348.289044 105.484614 
L 346.690417 105.86285 
L 345.075638 106.160435 
L 343.446 106.362407 
L 341.810491 106.472322 
L 340.170704 106.470883 
" style="fill:none;stroke:#4b4b4b;stroke-linecap:square;stroke-width:1.5;"/>
   </g>
   <g id="line2d_48">
    <path clip-path="url(#ped3c390daa)" d="M 394.161286 185.985088 
L 393.766381 205.65923 
L 391.979637 289 
L 391.979637 289 
" style="fill:none;stroke:#6d6d6d;stroke-linecap:square;stroke-width:1.5;"/>
   </g>
   <g id="line2d_49">
    <path clip-path="url(#ped3c390daa)" style="fill:none;stroke:#6c6c6c;stroke-linecap:square;stroke-width:1.5;"/>
   </g>
   <g id="line2d_50">
    <path clip-path="url(#ped3c390daa)" d="M 119.487493 268.204017 
L 119.510446 289 
L 119.510446 289 
" style="fill:none;stroke:#5e5e5e;stroke-linecap:square;stroke-width:1.5;"/>
   </g>
   <g id="line2d_51">
    <path clip-path="url(#ped3c390daa)" style="fill:none;stroke:#8c8c8c;stroke-linecap:square;stroke-width:1.5;"/>
   </g>
   <g id="line2d_52">
    <path clip-path="url(#ped3c390daa)" style="fill:none;stroke:#585858;stroke-linecap:square;stroke-width:1.5;"/>
   </g>
   <g id="line2d_53">
    <path clip-path="url(#ped3c390daa)" style="fill:none;stroke:#afafaf;stroke-linecap:square;stroke-width:1.5;"/>
   </g>
   <g id="line2d_54">
    <path clip-path="url(#ped3c390daa)" d="M 140.126715 135.919352 
L 142.093434 135.926307 
L 144.060136 135.935717 
L 146.026779 135.952792 
L 147.993436 135.964739 
L 149.960049 135.986884 
L 151.926705 136.000363 
L 153.893376 136.011184 
L 155.860116 136.010475 
L 157.826855 136.010833 
L 159.793589 136.014542 
L 161.760324 136.018252 
L 163.727057 136.020662 
L 165.693789 136.022375 
L 167.660324 136.036805 
L 169.626913 136.044779 
L 171.593433 136.032389 
L 173.56011 136.036512 
L 175.526788 136.043682 
L 177.493451 136.042096 
L 179.460154 136.043487 
L 181.42684 136.038242 
L 183.393432 136.034798 
L 185.359636 136.060601 
L 187.326295 136.070129 
L 189.292956 136.06788 
L 191.259524 136.049235 
L 193.225801 136.069031 
L 195.192492 136.075168 
L 197.159175 136.067237 
L 199.125725 136.077541 
L 201.091843 136.074309 
L 203.058368 136.068613 
L 205.024895 136.074973 
L 206.991606 136.074729 
L 208.95827 136.085466 
L 210.924726 136.11308 
L 212.89099 136.087615 
L 214.857722 136.085097 
L 216.824458 136.083121 
L 218.791114 136.092243 
L 220.7575 136.102093 
L 222.724005 136.10558 
L 224.690434 136.096962 
L 226.657044 136.096962 
L 228.62371 136.112228 
L 230.590397 136.105933 
L 232.557018 136.116782 
L 234.523643 136.137818 
L 236.49034 136.148577 
L 238.456884 136.138491 
L 240.423323 136.163894 
L 242.389719 136.194047 
L 244.356095 136.161805 
L 246.322614 136.157617 
L 248.289029 136.191463 
L 250.255487 136.185556 
L 252.222124 136.191979 
L 254.188637 136.192784 
L 256.155229 136.206047 
L 258.121282 136.178598 
L 260.087613 136.207163 
L 262.054302 136.209762 
L 264.020955 136.205172 
L 265.987295 136.229561 
L 267.953962 136.231901 
L 269.920563 136.239936 
L 271.886254 136.252245 
L 273.852655 136.253933 
L 275.819221 136.258794 
L 277.785954 136.263362 
L 279.752104 136.269152 
L 281.717796 136.285478 
L 283.684503 136.295977 
L 285.651168 136.300015 
L 287.617813 136.294631 
L 289.584477 136.300634 
L 291.551211 136.302698 
L 293.517944 136.30823 
L 295.484305 136.336305 
L 297.450822 136.353537 
L 299.417548 136.346713 
L 301.384079 136.346524 
L 303.350344 136.36983 
L 305.316703 136.364928 
L 307.283171 136.351747 
L 309.249604 136.371266 
L 311.216287 136.376069 
L 313.182651 136.406481 
L 315.148459 136.407692 
L 317.114832 136.400902 
L 319.081048 136.388155 
L 321.047159 136.427344 
L 323.013864 136.434152 
L 324.980577 136.444013 
L 326.947285 136.454994 
L 328.913994 136.465975 
L 330.880718 136.470158 
L 332.847432 136.478773 
L 334.814138 136.490249 
L 336.780847 136.501291 
L 338.747561 136.511619 
L 340.714047 136.536263 
L 342.68058 136.558184 
" style="fill:none;stroke:#939393;stroke-linecap:square;stroke-width:1.5;"/>
   </g>
   <g id="line2d_55">
    <path clip-path="url(#ped3c390daa)" d="M 140.045564 161.568393 
L 142.016324 161.570191 
L 143.987084 161.571988 
L 145.957845 161.573792 
L 147.928604 161.576376 
L 149.899342 161.588685 
L 151.87008 161.600995 
L 153.840818 161.613305 
L 155.811556 161.625615 
L 157.782294 161.637924 
L 159.753032 161.650234 
L 161.723771 161.662544 
L 163.694509 161.674853 
L 165.66525 161.684494 
L 167.635996 161.689073 
L 169.606607 161.709774 
L 171.57726 161.726032 
L 173.548028 161.730532 
L 175.518665 161.723583 
L 177.489347 161.74024 
L 179.460029 161.757057 
L 181.430724 161.772853 
L 183.401427 161.788023 
L 185.372098 161.798396 
L 187.342552 161.776856 
L 189.313199 161.791817 
L 191.283949 161.800082 
L 193.25472 161.805385 
L 195.225446 161.803012 
L 197.196164 161.817176 
L 199.166896 161.828831 
L 201.137665 161.834647 
L 203.108433 161.840464 
L 205.0792 161.846761 
L 207.04996 161.855077 
L 209.020704 161.865926 
L 210.991407 161.872458 
L 212.962007 161.886184 
L 214.932548 161.911511 
L 216.903169 161.925832 
L 218.873807 161.949028 
L 220.844457 161.970296 
L 222.815202 161.971512 
L 224.785945 161.972924 
L 226.756599 161.989332 
L 228.727333 161.993714 
L 230.698033 162.000821 
L 232.668607 162.013965 
L 234.639365 162.021636 
L 236.610129 162.028099 
L 238.580879 162.032472 
L 240.551619 162.040077 
L 242.522376 162.040148 
L 244.493138 162.037647 
L 246.463896 162.034514 
L 248.434641 162.026433 
L 250.405414 162.022263 
L 252.376188 162.018212 
L 254.34693 162.012185 
L 256.317695 162.0176 
L 258.28846 162.023793 
L 260.259208 162.032809 
L 262.229957 162.041825 
L 264.200705 162.05084 
L 266.171477 162.053696 
L 268.142255 162.05474 
L 270.113033 162.055539 
L 272.083811 162.056103 
L 274.054589 162.056 
L 276.025367 162.055898 
L 277.996144 162.055796 
L 279.966921 162.054603 
L 281.937698 162.052368 
L 283.908474 162.050134 
L 285.879247 162.049551 
L 287.850007 162.053857 
L 289.820765 162.056978 
L 291.791533 162.057752 
L 293.762301 162.063365 
L 295.733069 162.06931 
L 297.70384 162.071665 
L 299.674612 162.074019 
L 301.645384 162.076374 
L 303.615974 162.098414 
L 305.586558 162.121036 
L 307.557142 162.143658 
L 309.527727 162.166281 
L 311.498311 162.188903 
L 313.468838 162.212979 
L 315.43788 162.272576 
L 317.406924 162.331678 
L 319.374368 162.411636 
L 321.335515 162.542105 
L 323.288931 162.727144 
L 325.242348 162.911247 
L 327.17161 163.18273 
L 329.083058 163.519102 
L 330.994462 163.861905 
L 332.905801 164.213977 
L 334.781577 164.644389 
L 336.637945 165.111237 
L 338.494843 165.577078 
L 340.352444 166.041571 
L 342.213218 166.499976 
" style="fill:none;stroke:#c1c1c1;stroke-linecap:square;stroke-width:1.5;"/>
   </g>
   <g id="line2d_56">
    <path clip-path="url(#ped3c390daa)" d="M 384.929429 70.198409 
L 384.81895 71.874331 
L 384.610578 73.539934 
L 384.324377 75.193964 
L 383.960558 76.831622 
L 383.51942 78.449853 
L 382.999507 80.045471 
L 382.409855 81.618734 
L 381.729722 83.153875 
L 380.984158 84.658094 
L 380.149512 86.112562 
L 379.26588 87.54011 
L 378.319692 88.9264 
L 377.309847 90.266898 
L 376.244131 91.561744 
L 375.097537 92.787373 
L 373.927553 93.992766 
L 372.696508 95.131251 
L 371.428639 96.232205 
L 370.107997 97.267362 
L 368.752679 98.256301 
L 367.352792 99.181473 
L 365.91465 100.046759 
L 364.454767 100.87643 
L 362.951475 101.621416 
L 361.432944 102.338757 
L 359.881084 102.974724 
L 358.313958 103.573642 
L 356.721968 104.104397 
L 355.110445 104.573114 
L 353.485877 104.998348 
L 351.847154 105.357912 
L 350.200814 105.688609 
L 348.542631 105.943136 
L 346.877131 106.157525 
L 345.204267 106.314777 
L 343.528754 106.407576 
L 341.849598 106.439272 
L 340.170704 106.470883 
" style="fill:none;stroke:#727272;stroke-linecap:square;stroke-width:1.5;"/>
   </g>
   <g id="line2d_57">
    <path clip-path="url(#ped3c390daa)" d="M 416.039783 68.904202 
L 416.041196 70.732523 
L 416.042609 72.560844 
L 416.126461 74.38731 
L 416.217196 76.213495 
L 416.370283 78.034959 
L 416.551044 79.854406 
L 416.793668 81.666134 
L 417.063209 83.474525 
L 417.370102 85.276619 
L 417.722388 87.070628 
L 418.093061 88.860735 
L 418.519871 90.638655 
L 418.970757 92.410546 
L 419.482268 94.165797 
L 420.02253 95.91227 
L 420.621192 97.639854 
L 421.23518 99.36206 
L 421.90184 101.064372 
L 422.590116 102.757902 
L 423.322462 104.433195 
L 424.102228 106.086803 
L 424.922893 107.720419 
L 425.767998 109.341767 
L 426.656114 110.939887 
L 427.580128 112.517691 
L 428.543966 114.071135 
L 429.552589 115.596249 
L 430.56793 117.116955 
L 431.640208 118.59794 
L 432.737474 120.060354 
L 433 120.388965 
" style="fill:none;stroke:#bbbbbb;stroke-linecap:square;stroke-width:1.5;"/>
   </g>
   <g id="line2d_58">
    <path clip-path="url(#ped3c390daa)" d="M 401.402715 -1 
L 401.328709 0.657944 
L 401.239417 2.628506 
L 401.146064 4.598896 
L 401.052711 6.569285 
L 400.959358 8.539674 
L 400.866094 10.510067 
L 400.773678 12.480499 
L 400.681263 14.450931 
L 400.589036 16.421371 
L 400.49727 18.391832 
L 400.405505 20.362292 
L 400.313619 22.332748 
L 400.220626 24.303153 
L 400.127634 26.273559 
L 400.034641 28.243965 
L 399.941648 30.214371 
L 399.848895 32.184787 
L 399.745036 34.154458 
L 399.654029 36.124956 
L 399.56302 38.095453 
L 399.471039 40.065907 
L 399.379057 42.036361 
L 399.287075 44.006815 
L 399.195094 45.977269 
L 399.103984 47.947762 
L 398.999216 49.917394 
L 398.90657 51.887747 
L 398.817958 53.858348 
L 398.729346 55.828948 
L 398.639976 57.799517 
L 398.550524 59.770082 
L 398.456366 61.74043 
L 398.363104 63.710824 
L 398.270696 65.681258 
L 398.178289 67.651693 
L 398.085881 69.622127 
" style="fill:none;stroke:#373737;stroke-linecap:square;stroke-width:1.5;"/>
   </g>
   <g id="line2d_59">
    <path clip-path="url(#ped3c390daa)" d="M 340.170704 106.470883 
L 338.189752 106.451121 
L 336.208867 106.426441 
L 334.227944 106.418498 
L 332.246987 106.40629 
L 330.26607 106.383928 
L 328.285154 106.360947 
L 326.304172 106.346328 
L 324.323355 106.326858 
L 322.342646 106.290057 
L 320.36189 106.255833 
L 318.384339 106.171293 
L 316.409168 106.04937 
L 314.433998 105.927447 
L 312.458827 105.805523 
L 310.483732 105.704678 
L 308.508467 105.604354 
L 306.5333 105.486332 
L 304.558333 105.377062 
L 302.583029 105.267195 
L 300.608355 105.148837 
L 298.633428 105.032253 
L 296.658472 104.903489 
L 294.683139 104.79828 
L 292.707815 104.685643 
L 290.733421 104.553164 
L 288.759066 104.462739 
L 286.783219 104.370776 
L 284.807241 104.259805 
L 282.83197 104.163589 
L 280.8565 104.060625 
L 278.88103 103.952773 
L 276.90556 103.844921 
L 274.930335 103.735052 
L 272.955268 103.627754 
L 270.980358 103.519303 
L 269.00593 103.410535 
L 267.032933 103.309205 
L 265.059866 103.178764 
L 263.0846 103.058524 
L 261.108675 102.951934 
L 259.133048 102.841553 
L 257.157132 102.748356 
L 255.181187 102.649066 
L 253.205928 102.545604 
L 251.231069 102.444497 
L 249.256316 102.330733 
L 247.282192 102.214069 
L 245.30872 102.090849 
L 243.333032 101.985962 
L 241.356917 101.884882 
L 239.384533 101.752881 
L 237.410057 101.638958 
L 235.433271 101.54464 
L 233.457701 101.437606 
L 231.482913 101.323529 
L 229.508272 101.215909 
L 227.533511 101.100722 
L 225.55867 100.984252 
L 223.583828 100.867783 
L 221.609116 100.746856 
L 219.634449 100.637662 
L 217.659623 100.521187 
L 215.684765 100.410514 
L 213.710421 100.289935 
L 211.73662 100.164385 
L 209.761815 100.046431 
L 207.785459 99.939704 
L 205.809191 99.822319 
L 203.832668 99.737154 
L 201.85688 99.632848 
L 199.881053 99.533551 
L 197.903319 99.450951 
L 195.922853 99.446237 
L 193.942248 99.478848 
L 191.961472 99.501402 
L 189.980811 99.491432 
L 188.000055 99.464587 
L 186.020236 99.439668 
L 184.039765 99.446132 
L 182.059027 99.443061 
L 180.078033 99.432741 
L 178.097069 99.422638 
L 176.11612 99.411771 
L 174.135213 99.396558 
L 172.154313 99.382164 
L 170.173277 99.383268 
L 168.192225 99.383507 
L 166.211219 99.371719 
L 164.230222 99.358583 
L 162.249205 99.34953 
L 160.268224 99.333397 
L 158.287207 99.322738 
L 156.306168 99.316157 
L 154.32514 99.307574 
L 152.344128 99.295886 
L 150.363097 99.286667 
L 148.38206 99.280754 
L 146.401146 99.26946 
L 144.420221 99.249229 
L 142.439488 99.220698 
L 140.458749 99.198566 
" style="fill:none;stroke:#bdbdbd;stroke-linecap:square;stroke-width:1.5;"/>
   </g>
   <g id="line2d_60">
    <path clip-path="url(#ped3c390daa)" style="fill:none;stroke:#bcbcbc;stroke-linecap:square;stroke-width:1.5;"/>
   </g>
   <g id="line2d_61">
    <path clip-path="url(#ped3c390daa)" d="M 0 0 
" style="fill:none;stroke:#383838;stroke-linecap:square;stroke-width:1.5;"/>
   </g>
   <g id="line2d_62">
    <path clip-path="url(#ped3c390daa)" d="M 131.701555 268.199334 
L 131.523666 266.53401 
L 131.345778 264.868686 
L 131.167889 263.203362 
L 130.893614 261.55738 
L 130.41212 259.953308 
L 129.930626 258.349236 
L 129.449132 256.745164 
L 128.68027 255.257566 
L 127.908886 253.770988 
L 127.137502 252.284409 
L 126.233655 250.883258 
L 125.197694 249.567318 
L 124.161733 248.251378 
L 123.125765 246.935445 
L 121.854728 245.845238 
L 120.581812 244.756836 
L 119.308897 243.668434 
L 117.945073 242.709401 
L 116.489675 241.8807 
L 115.034276 241.051998 
L 113.558778 240.267232 
L 111.976133 239.71988 
L 110.392891 239.173869 
L 108.809649 238.627859 
L 107.176027 238.29092 
L 105.517222 238.060094 
L 103.858417 237.829268 
L 102.199613 237.598442 
" style="fill:none;stroke:#828282;stroke-linecap:square;stroke-width:1.5;"/>
   </g>
   <g id="line2d_63">
    <path clip-path="url(#ped3c390daa)" style="fill:none;stroke:#797979;stroke-linecap:square;stroke-width:1.5;"/>
   </g>
   <g id="line2d_64">
    <path clip-path="url(#ped3c390daa)" d="M 29.862837 120.675863 
L 27.900341 120.624518 
L 25.938068 120.57748 
L 23.97533 120.520946 
L 22.013514 120.45498 
L 20.052711 120.364966 
L 18.094822 120.250143 
L 16.136628 120.119448 
L 14.178359 119.984787 
L 12.22009 119.850127 
L 10.263426 119.685516 
L 8.310464 119.491073 
L 6.357502 119.29663 
L 4.40454 119.102187 
L 2.451173 118.910013 
L 0.49998 118.696762 
L -1 118.519383 
" style="fill:none;stroke:#c5c5c5;stroke-linecap:square;stroke-width:1.5;"/>
   </g>
   <g id="line2d_65">
    <path clip-path="url(#ped3c390daa)" d="M 433 121.203467 
L 432.92548 121.204629 
L 430.947105 121.237093 
L 428.968749 121.270363 
L 426.990408 121.301238 
L 425.01202 121.332586 
L 423.034051 121.380119 
L 421.055865 121.422522 
L 419.077761 121.468875 
L 417.099493 121.505054 
L 415.121498 121.554203 
L 413.143573 121.607162 
L 411.165373 121.649161 
L 409.187173 121.691159 
L 407.20898 121.733225 
L 405.230808 121.775831 
L 403.252789 121.825685 
L 401.274718 121.873255 
L 399.296616 121.919504 
L 397.318379 121.959471 
L 395.340105 121.997727 
L 393.361831 122.035983 
L 391.383632 122.077755 
L 389.405559 122.125432 
L 387.427486 122.173108 
L 385.449414 122.220785 
L 383.471215 122.262173 
L 381.493026 122.303613 
L 379.514775 122.34197 
L 377.536632 122.385845 
L 375.55907 122.445876 
L 373.580798 122.481435 
L 371.603084 122.529728 
L 369.624956 122.566784 
L 367.646977 122.610289 
L 365.668479 122.633852 
L 363.690095 122.662783 
L 361.7121 122.712422 
L 359.733629 122.728277 
L 357.755246 122.76017 
L 355.776795 122.78307 
L 353.798983 122.818437 
L 351.820389 122.829068 
L 349.841977 122.852614 
L 347.863355 122.859856 
L 345.88482 122.873548 
L 343.90635 122.890592 
L 341.927774 122.901555 
L 339.949407 122.899778 
" style="fill:none;stroke:#999999;stroke-linecap:square;stroke-width:1.5;"/>
   </g>
   <g id="line2d_66">
    <path clip-path="url(#ped3c390daa)" style="fill:none;stroke:#a0a0a0;stroke-linecap:square;stroke-width:1.5;"/>
   </g>
   <g id="line2d_67">
    <path clip-path="url(#ped3c390daa)" d="M 342.659576 136.524897 
L 344.471401 136.536708 
L 346.283794 136.512902 
L 348.095465 136.473214 
L 349.906754 136.412096 
L 351.717098 136.327378 
L 353.525153 136.201714 
L 355.331489 136.054397 
L 357.138074 135.911549 
L 358.940977 135.727244 
L 360.740544 135.510825 
L 362.537868 135.276359 
L 364.329592 135.004047 
L 366.120303 134.726371 
L 367.906197 134.418022 
L 369.686748 134.078923 
L 371.463194 133.719507 
L 373.229895 133.314068 
L 374.991855 132.889027 
L 376.746114 132.432533 
L 378.496593 131.962569 
L 380.231519 131.437492 
L 381.957483 130.884527 
L 383.68177 130.326423 
L 385.388832 129.716988 
L 387.091699 129.096047 
L 388.774264 128.421712 
L 390.450768 127.732964 
L 392.107555 126.99778 
L 393.759184 126.251045 
L 395.386828 125.453728 
L 397.007659 124.642309 
L 398.609787 123.79489 
L 400.18904 122.905449 
L 401.752491 121.988339 
L 403.303913 121.051353 
L 404.826667 120.068251 
L 406.331347 119.058009 
L 407.8099 118.00974 
L 409.276269 116.944266 
L 410.711316 115.837221 
L 412.134015 114.713955 
L 413.517964 113.543724 
L 414.860075 112.325306 
L 416.202187 111.106887 
L 417.513875 109.856914 
L 418.77922 108.55896 
L 420.02798 107.245365 
L 421.245635 105.902579 
L 422.44198 104.541623 
L 423.574121 103.126404 
L 424.682927 101.692676 
L 425.751619 100.228722 
L 426.810589 98.757616 
L 427.807874 97.244352 
L 428.791727 95.721899 
L 429.71165 94.160746 
L 430.601398 92.581532 
L 431.433315 90.971765 
L 432.227528 89.342333 
L 432.985893 87.696554 
L 433 87.663344 
" style="fill:none;stroke:#b2b2b2;stroke-linecap:square;stroke-width:1.5;"/>
   </g>
   <g id="line2d_68">
    <path clip-path="url(#ped3c390daa)" style="fill:none;stroke:#3c3c3c;stroke-linecap:square;stroke-width:1.5;"/>
   </g>
   <g id="line2d_69">
    <path clip-path="url(#ped3c390daa)" style="fill:none;stroke:#474747;stroke-linecap:square;stroke-width:1.5;"/>
   </g>
   <g id="line2d_70">
    <path clip-path="url(#ped3c390daa)" d="M 375.176804 -1 
L 375.176082 -0.974729 
L 375.119346 1.010672 
L 375.054572 2.995633 
L 375.015183 4.981373 
L 374.955748 6.966598 
L 374.887957 8.951645 
L 374.824391 10.936839 
L 374.768587 12.922222 
L 374.710971 14.907565 
L 374.65674 16.89302 
L 374.610735 18.878681 
L 374.55999 20.863747 
L 374.503494 22.849153 
L 374.446128 24.83453 
L 374.393966 26.820022 
L 374.339005 28.805457 
L 374.284379 30.790899 
L 374.231267 32.776373 
L 374.166729 34.761547 
L 374.099148 36.746617 
L 374.039069 38.731875 
L 373.983814 40.717256 
L 373.924211 42.702541 
L 373.863515 44.687806 
L 373.810743 46.673324 
L 373.745307 48.658375 
L 373.685742 50.643702 
L 373.634073 52.629155 
L 373.576236 54.614535 
L 373.517722 56.599874 
L 373.46409 58.58519 
L 373.420237 60.570826 
L 373.352774 62.555863 
L 373.299942 64.541317 
L 373.244163 66.526748 
L 373.186376 68.512119 
L 373.13403 70.497651 
" style="fill:none;stroke:#c5c5c5;stroke-linecap:square;stroke-width:1.5;"/>
   </g>
   <g id="line2d_71">
    <path clip-path="url(#ped3c390daa)" d="M 140.469251 99.215209 
L 138.506569 99.216908 
L 136.543861 99.229713 
L 134.581542 99.25193 
L 132.618887 99.25252 
L 130.656158 99.259638 
L 128.693494 99.260643 
L 126.731648 99.266919 
L 124.7729 99.356373 
L 122.814155 99.448632 
L 120.855578 99.529586 
L 118.896928 99.612983 
L 116.938301 99.687056 
L 114.979753 99.79111 
L 113.021412 99.857105 
L 111.062695 99.944179 
L 109.103945 100.033313 
L 107.145197 100.123082 
L 105.186452 100.214922 
L 103.227862 100.287333 
L 101.269118 100.37379 
L 99.311907 100.47564 
L 97.354812 100.571683 
L 95.397723 100.675387 
L 93.440685 100.773671 
L 91.483549 100.875892 
L 89.526402 100.981122 
L 87.569285 101.080463 
L 85.611994 101.175237 
L 83.654381 101.266944 
L 81.696737 101.363224 
L 79.739666 101.465682 
L 77.782929 101.565231 
L 75.826435 101.681683 
L 73.870048 101.777862 
L 71.913351 101.89451 
L 69.956768 101.982102 
L 67.999437 102.090139 
L 66.042107 102.194533 
L 64.084778 102.293821 
L 62.127469 102.390412 
L 60.170179 102.484393 
L 58.212888 102.578373 
L 56.255598 102.672353 
L 54.298297 102.76818 
L 52.340965 102.868265 
L 50.383877 102.97061 
L 48.427051 103.075364 
L 46.469433 103.18046 
L 44.511718 103.279547 
L 42.554012 103.37263 
L 40.596802 103.470301 
L 38.640394 103.578215 
L 36.68326 103.68088 
L 34.725609 103.778797 
L 32.767967 103.875468 
L 30.810826 103.968757 
L 28.853871 104.066436 
L 26.896927 104.167601 
L 24.939749 104.266351 
L 22.981675 104.355807 
L 21.024862 104.458154 
L 19.067279 104.55325 
L 17.109962 104.658491 
L 15.147554 104.680176 
L 13.184785 104.684953 
L 11.22206 104.691469 
L 9.259425 104.703906 
L 7.29679 104.716344 
L 5.334155 104.728781 
L 3.371486 104.739219 
L 1.408803 104.759381 
L -0.553878 104.775137 
L -1 104.776938 
" style="fill:none;stroke:#8b8b8b;stroke-linecap:square;stroke-width:1.5;"/>
   </g>
   <g id="line2d_72">
    <path clip-path="url(#ped3c390daa)" d="M 140.287378 121.902161 
L 138.318345 121.890064 
L 136.349096 121.888292 
L 134.379839 121.879274 
L 132.411015 121.838593 
L 130.441924 121.806515 
L 128.472809 121.791142 
L 126.504112 121.774866 
L 124.535391 121.751093 
L 122.566065 121.749284 
L 120.596927 121.727584 
L 118.628029 121.689501 
L 116.659516 121.677372 
L 114.690434 121.654922 
L 112.721399 121.633198 
L 110.752721 121.602276 
L 108.784068 121.569579 
L 106.815963 121.504896 
L 104.847953 121.464592 
L 102.879249 121.417489 
L 100.910296 121.381538 
L 98.941331 121.347112 
L 96.972122 121.326854 
L 95.002869 121.307609 
L 93.033656 121.288922 
L 91.064551 121.267368 
L 89.095283 121.252193 
L 87.126052 121.23059 
L 85.156809 121.218486 
L 83.187533 121.201491 
L 81.218217 121.194465 
L 79.248909 121.186622 
L 77.279692 121.164089 
L 75.310493 121.140276 
L 73.341436 121.13618 
L 71.372411 121.11313 
L 69.40312 121.097987 
L 67.433846 121.080538 
L 65.464543 121.076356 
L 63.495359 121.058862 
L 61.52603 121.053032 
L 59.55683 121.031471 
L 57.587623 121.010414 
L 55.618334 120.996525 
L 53.649052 120.987813 
L 51.679759 120.973516 
L 49.710474 120.965916 
L 47.741199 120.948637 
L 45.771923 120.931353 
L 43.802638 120.915269 
L 41.833349 120.899743 
L 39.86406 120.885889 
L 37.8948 120.881733 
L 35.925572 120.861533 
L 33.956318 120.843037 
L 31.987057 120.826104 
L 30.017789 120.810791 
" style="fill:none;stroke:#535353;stroke-linecap:square;stroke-width:1.5;"/>
   </g>
   <g id="line2d_73">
    <path clip-path="url(#ped3c390daa)" d="M 131.668526 289 
L 131.684911 268.209836 
L 131.684911 268.209836 
" style="fill:none;stroke:#7b7b7b;stroke-linecap:square;stroke-width:1.5;"/>
   </g>
   <g id="line2d_74">
    <path clip-path="url(#ped3c390daa)" style="fill:none;stroke:#6d6d6d;stroke-linecap:square;stroke-width:1.5;"/>
   </g>
   <g id="line2d_75">
    <path clip-path="url(#ped3c390daa)" d="M 416.039783 68.904202 
L 416.06236 70.716209 
L 416.1165 72.52739 
L 416.226443 74.335944 
L 416.399848 76.138639 
L 416.656321 77.932395 
L 416.92924 79.723852 
L 417.242246 81.508079 
L 417.659403 83.271017 
L 418.124652 85.022457 
L 418.624524 86.763617 
L 419.196306 88.483225 
L 419.801983 90.190572 
L 420.484803 91.869207 
L 421.185383 93.540155 
L 421.954185 95.180812 
L 422.78094 96.793093 
L 423.626722 98.395637 
L 424.54667 99.956331 
L 425.49607 101.499841 
L 426.504336 103.004751 
L 427.540348 104.491607 
L 428.608037 105.955303 
L 429.728194 107.379446 
L 430.900003 108.761666 
L 432.095508 110.122881 
L 433 111.092298 
" style="fill:none;stroke:#787878;stroke-linecap:square;stroke-width:1.5;"/>
   </g>
   <g id="line2d_76">
    <path clip-path="url(#ped3c390daa)" d="M 342.213218 166.499976 
L 343.742947 166.809888 
L 345.310155 167.0884 
L 346.864274 167.419349 
L 348.43643 167.660176 
L 350.010666 167.880291 
L 351.588164 168.089008 
L 353.165355 168.283798 
L 354.742879 168.488453 
L 356.321399 168.66938 
L 357.89014 168.900025 
L 359.459414 169.137975 
L 361.021709 169.403877 
L 362.569815 169.718927 
L 364.099831 170.092641 
L 365.62116 170.49903 
L 367.116959 170.993674 
L 368.583237 171.525997 
L 370.008434 172.163239 
L 371.398162 172.861957 
L 372.754858 173.608902 
L 374.031201 174.494199 
L 375.245799 175.44684 
L 376.388171 176.487727 
L 377.438984 177.625683 
L 378.380997 178.845407 
L 379.20477 180.152531 
L 379.878992 181.566428 
L 380.389852 183.031079 
L 380.728315 184.559642 
L 380.917425 186.12783 
" style="fill:none;stroke:#9a9a9a;stroke-linecap:square;stroke-width:1.5;"/>
   </g>
   <g id="line2d_77">
    <path clip-path="url(#ped3c390daa)" d="M -1 141.12 
L 433 141.12 
" style="fill:none;stroke:#0424ff;stroke-dasharray:1.5,2.475;stroke-dashoffset:0;stroke-width:1.5;"/>
   </g>
   <g id="line2d_78">
    <path clip-path="url(#ped3c390daa)" d="M 224.64 289 
L 224.64 -1 
" style="fill:none;stroke:#0424ff;stroke-dasharray:1.5,2.475;stroke-dashoffset:0;stroke-width:1.5;"/>
   </g>
   <g id="PathCollection_1">
    <defs>
     <path d="M 0 3 
C 0.795609 3 1.55874 2.683901 2.12132 2.12132 
C 2.683901 1.55874 3 0.795609 3 0 
C 3 -0.795609 2.683901 -1.55874 2.12132 -2.12132 
C 1.55874 -2.683901 0.795609 -3 0 -3 
C -0.795609 -3 -1.55874 -2.683901 -2.12132 -2.12132 
C -2.683901 -1.55874 -3 -0.795609 -3 0 
C -3 0.795609 -2.683901 1.55874 -2.12132 2.12132 
C -1.55874 2.683901 -0.795609 3 0 3 
z
" id="m6f5e697104" style="stroke:#000000;"/>
    </defs>
    <g clip-path="url(#ped3c390daa)">
     <use style="fill:#00ffff;stroke:#000000;" x="173.362554" xlink:href="#m6f5e697104" y="141.515033"/>
    </g>
   </g>
   <g id="PathCollection_2">
    <g clip-path="url(#ped3c390daa)">
     <use style="fill:#00ffff;stroke:#000000;" x="178.824641" xlink:href="#m6f5e697104" y="141.404916"/>
    </g>
   </g>
   <g id="PathCollection_3">
    <g clip-path="url(#ped3c390daa)">
     <use style="fill:#00ffff;stroke:#000000;" x="184.133573" xlink:href="#m6f5e697104" y="141.328932"/>
    </g>
   </g>
   <g id="PathCollection_4">
    <g clip-path="url(#ped3c390daa)">
     <use style="fill:#00ffff;stroke:#000000;" x="189.425297" xlink:href="#m6f5e697104" y="141.399012"/>
    </g>
   </g>
   <g id="PathCollection_5">
    <g clip-path="url(#ped3c390daa)">
     <use style="fill:#00ffff;stroke:#000000;" x="194.614408" xlink:href="#m6f5e697104" y="141.375331"/>
    </g>
   </g>
   <g id="PathCollection_6">
    <g clip-path="url(#ped3c390daa)">
     <use style="fill:#00ffff;stroke:#000000;" x="199.724642" xlink:href="#m6f5e697104" y="141.29461"/>
    </g>
   </g>
   <g id="PathCollection_7">
    <g clip-path="url(#ped3c390daa)">
     <use style="fill:#00ffff;stroke:#000000;" x="204.833803" xlink:href="#m6f5e697104" y="141.285578"/>
    </g>
   </g>
   <g id="PathCollection_8">
    <g clip-path="url(#ped3c390daa)">
     <use style="fill:#00ffff;stroke:#000000;" x="209.819991" xlink:href="#m6f5e697104" y="141.197334"/>
    </g>
   </g>
   <g id="PathCollection_9">
    <g clip-path="url(#ped3c390daa)">
     <use style="fill:#00ffff;stroke:#000000;" x="214.767237" xlink:href="#m6f5e697104" y="141.210351"/>
    </g>
   </g>
   <g id="PathCollection_10">
    <g clip-path="url(#ped3c390daa)">
     <use style="fill:#00ffff;stroke:#000000;" x="219.756799" xlink:href="#m6f5e697104" y="141.17338"/>
    </g>
   </g>
   <g id="PathCollection_11">
    <g clip-path="url(#ped3c390daa)">
     <use style="fill:#00ffff;stroke:#000000;" x="224.64" xlink:href="#m6f5e697104" y="141.12"/>
    </g>
   </g>
   <g id="PathCollection_12">
    <g clip-path="url(#ped3c390daa)">
     <use style="fill:#00ffff;stroke:#000000;" x="224.64" xlink:href="#m6f5e697104" y="141.12"/>
    </g>
   </g>
   <g id="matplotlib.axis_1">
    <g id="xtick_1">
     <g id="line2d_79">
      <defs>
       <path d="M 0 0 
L 0 3.5 
" id="m51137f4ddc" style="stroke:#000000;stroke-width:0.8;"/>
      </defs>
      <g>
       <use style="stroke:#000000;stroke-width:0.8;" x="67.2" xlink:href="#m51137f4ddc" y="259.2"/>
      </g>
     </g>
     <g id="text_1">
      <!-- 40 -->
      <g transform="translate(56.647656 273.798437)scale(0.1 -0.1)">
       <defs>
        <path d="M 10.59375 35.5 
L 73.1875 35.5 
L 73.1875 27.203125 
L 10.59375 27.203125 
z
" id="DejaVuSans-8722"/>
        <path d="M 37.796875 64.3125 
L 12.890625 25.390625 
L 37.796875 25.390625 
z
M 35.203125 72.90625 
L 47.609375 72.90625 
L 47.609375 25.390625 
L 58.015625 25.390625 
L 58.015625 17.1875 
L 47.609375 17.1875 
L 47.609375 0 
L 37.796875 0 
L 37.796875 17.1875 
L 4.890625 17.1875 
L 4.890625 26.703125 
z
" id="DejaVuSans-52"/>
        <path d="M 31.78125 66.40625 
Q 24.171875 66.40625 20.328125 58.90625 
Q 16.5 51.421875 16.5 36.375 
Q 16.5 21.390625 20.328125 13.890625 
Q 24.171875 6.390625 31.78125 6.390625 
Q 39.453125 6.390625 43.28125 13.890625 
Q 47.125 21.390625 47.125 36.375 
Q 47.125 51.421875 43.28125 58.90625 
Q 39.453125 66.40625 31.78125 66.40625 
z
M 31.78125 74.21875 
Q 44.046875 74.21875 50.515625 64.515625 
Q 56.984375 54.828125 56.984375 36.375 
Q 56.984375 17.96875 50.515625 8.265625 
Q 44.046875 -1.421875 31.78125 -1.421875 
Q 19.53125 -1.421875 13.0625 8.265625 
Q 6.59375 17.96875 6.59375 36.375 
Q 6.59375 54.828125 13.0625 64.515625 
Q 19.53125 74.21875 31.78125 74.21875 
z
" id="DejaVuSans-48"/>
       </defs>
       <use xlink:href="#DejaVuSans-8722"/>
       <use x="83.789062" xlink:href="#DejaVuSans-52"/>
       <use x="147.412109" xlink:href="#DejaVuSans-48"/>
      </g>
     </g>
    </g>
    <g id="xtick_2">
     <g id="line2d_80">
      <g>
       <use style="stroke:#000000;stroke-width:0.8;" x="106.56" xlink:href="#m51137f4ddc" y="259.2"/>
      </g>
     </g>
     <g id="text_2">
      <!-- 30 -->
      <g transform="translate(96.007656 273.798437)scale(0.1 -0.1)">
       <defs>
        <path d="M 40.578125 39.3125 
Q 47.65625 37.796875 51.625 33 
Q 55.609375 28.21875 55.609375 21.1875 
Q 55.609375 10.40625 48.1875 4.484375 
Q 40.765625 -1.421875 27.09375 -1.421875 
Q 22.515625 -1.421875 17.65625 -0.515625 
Q 12.796875 0.390625 7.625 2.203125 
L 7.625 11.71875 
Q 11.71875 9.328125 16.59375 8.109375 
Q 21.484375 6.890625 26.8125 6.890625 
Q 36.078125 6.890625 40.9375 10.546875 
Q 45.796875 14.203125 45.796875 21.1875 
Q 45.796875 27.640625 41.28125 31.265625 
Q 36.765625 34.90625 28.71875 34.90625 
L 20.21875 34.90625 
L 20.21875 43.015625 
L 29.109375 43.015625 
Q 36.375 43.015625 40.234375 45.921875 
Q 44.09375 48.828125 44.09375 54.296875 
Q 44.09375 59.90625 40.109375 62.90625 
Q 36.140625 65.921875 28.71875 65.921875 
Q 24.65625 65.921875 20.015625 65.03125 
Q 15.375 64.15625 9.8125 62.3125 
L 9.8125 71.09375 
Q 15.4375 72.65625 20.34375 73.4375 
Q 25.25 74.21875 29.59375 74.21875 
Q 40.828125 74.21875 47.359375 69.109375 
Q 53.90625 64.015625 53.90625 55.328125 
Q 53.90625 49.265625 50.4375 45.09375 
Q 46.96875 40.921875 40.578125 39.3125 
z
" id="DejaVuSans-51"/>
       </defs>
       <use xlink:href="#DejaVuSans-8722"/>
       <use x="83.789062" xlink:href="#DejaVuSans-51"/>
       <use x="147.412109" xlink:href="#DejaVuSans-48"/>
      </g>
     </g>
    </g>
    <g id="xtick_3">
     <g id="line2d_81">
      <g>
       <use style="stroke:#000000;stroke-width:0.8;" x="145.92" xlink:href="#m51137f4ddc" y="259.2"/>
      </g>
     </g>
     <g id="text_3">
      <!-- 20 -->
      <g transform="translate(135.367656 273.798437)scale(0.1 -0.1)">
       <defs>
        <path d="M 19.1875 8.296875 
L 53.609375 8.296875 
L 53.609375 0 
L 7.328125 0 
L 7.328125 8.296875 
Q 12.9375 14.109375 22.625 23.890625 
Q 32.328125 33.6875 34.8125 36.53125 
Q 39.546875 41.84375 41.421875 45.53125 
Q 43.3125 49.21875 43.3125 52.78125 
Q 43.3125 58.59375 39.234375 62.25 
Q 35.15625 65.921875 28.609375 65.921875 
Q 23.96875 65.921875 18.8125 64.3125 
Q 13.671875 62.703125 7.8125 59.421875 
L 7.8125 69.390625 
Q 13.765625 71.78125 18.9375 73 
Q 24.125 74.21875 28.421875 74.21875 
Q 39.75 74.21875 46.484375 68.546875 
Q 53.21875 62.890625 53.21875 53.421875 
Q 53.21875 48.921875 51.53125 44.890625 
Q 49.859375 40.875 45.40625 35.40625 
Q 44.1875 33.984375 37.640625 27.21875 
Q 31.109375 20.453125 19.1875 8.296875 
z
" id="DejaVuSans-50"/>
       </defs>
       <use xlink:href="#DejaVuSans-8722"/>
       <use x="83.789062" xlink:href="#DejaVuSans-50"/>
       <use x="147.412109" xlink:href="#DejaVuSans-48"/>
      </g>
     </g>
    </g>
    <g id="xtick_4">
     <g id="line2d_82">
      <g>
       <use style="stroke:#000000;stroke-width:0.8;" x="185.28" xlink:href="#m51137f4ddc" y="259.2"/>
      </g>
     </g>
     <g id="text_4">
      <!-- 10 -->
      <g transform="translate(174.727656 273.798437)scale(0.1 -0.1)">
       <defs>
        <path d="M 12.40625 8.296875 
L 28.515625 8.296875 
L 28.515625 63.921875 
L 10.984375 60.40625 
L 10.984375 69.390625 
L 28.421875 72.90625 
L 38.28125 72.90625 
L 38.28125 8.296875 
L 54.390625 8.296875 
L 54.390625 0 
L 12.40625 0 
z
" id="DejaVuSans-49"/>
       </defs>
       <use xlink:href="#DejaVuSans-8722"/>
       <use x="83.789062" xlink:href="#DejaVuSans-49"/>
       <use x="147.412109" xlink:href="#DejaVuSans-48"/>
      </g>
     </g>
    </g>
    <g id="xtick_5">
     <g id="line2d_83">
      <g>
       <use style="stroke:#000000;stroke-width:0.8;" x="224.64" xlink:href="#m51137f4ddc" y="259.2"/>
      </g>
     </g>
     <g id="text_5">
      <!-- 0 -->
      <g transform="translate(221.45875 273.798437)scale(0.1 -0.1)">
       <use xlink:href="#DejaVuSans-48"/>
      </g>
     </g>
    </g>
    <g id="xtick_6">
     <g id="line2d_84">
      <g>
       <use style="stroke:#000000;stroke-width:0.8;" x="264" xlink:href="#m51137f4ddc" y="259.2"/>
      </g>
     </g>
     <g id="text_6">
      <!-- 10 -->
      <g transform="translate(257.6375 273.798437)scale(0.1 -0.1)">
       <use xlink:href="#DejaVuSans-49"/>
       <use x="63.623047" xlink:href="#DejaVuSans-48"/>
      </g>
     </g>
    </g>
    <g id="xtick_7">
     <g id="line2d_85">
      <g>
       <use style="stroke:#000000;stroke-width:0.8;" x="303.36" xlink:href="#m51137f4ddc" y="259.2"/>
      </g>
     </g>
     <g id="text_7">
      <!-- 20 -->
      <g transform="translate(296.9975 273.798437)scale(0.1 -0.1)">
       <use xlink:href="#DejaVuSans-50"/>
       <use x="63.623047" xlink:href="#DejaVuSans-48"/>
      </g>
     </g>
    </g>
    <g id="xtick_8">
     <g id="line2d_86">
      <g>
       <use style="stroke:#000000;stroke-width:0.8;" x="342.72" xlink:href="#m51137f4ddc" y="259.2"/>
      </g>
     </g>
     <g id="text_8">
      <!-- 30 -->
      <g transform="translate(336.3575 273.798437)scale(0.1 -0.1)">
       <use xlink:href="#DejaVuSans-51"/>
       <use x="63.623047" xlink:href="#DejaVuSans-48"/>
      </g>
     </g>
    </g>
    <g id="xtick_9">
     <g id="line2d_87">
      <g>
       <use style="stroke:#000000;stroke-width:0.8;" x="382.08" xlink:href="#m51137f4ddc" y="259.2"/>
      </g>
     </g>
     <g id="text_9">
      <!-- 40 -->
      <g transform="translate(375.7175 273.798437)scale(0.1 -0.1)">
       <use xlink:href="#DejaVuSans-52"/>
       <use x="63.623047" xlink:href="#DejaVuSans-48"/>
      </g>
     </g>
    </g>
   </g>
   <g id="matplotlib.axis_2">
    <g id="ytick_1">
     <g id="line2d_88">
      <defs>
       <path d="M 0 0 
L -3.5 0 
" id="m6bcdcd559b" style="stroke:#000000;stroke-width:0.8;"/>
      </defs>
      <g>
       <use style="stroke:#000000;stroke-width:0.8;" x="47.52" xlink:href="#m6bcdcd559b" y="259.2"/>
      </g>
     </g>
     <g id="text_10">
      <!-- 30 -->
      <g transform="translate(19.415313 262.999219)scale(0.1 -0.1)">
       <use xlink:href="#DejaVuSans-8722"/>
       <use x="83.789062" xlink:href="#DejaVuSans-51"/>
       <use x="147.412109" xlink:href="#DejaVuSans-48"/>
      </g>
     </g>
    </g>
    <g id="ytick_2">
     <g id="line2d_89">
      <g>
       <use style="stroke:#000000;stroke-width:0.8;" x="47.52" xlink:href="#m6bcdcd559b" y="219.84"/>
      </g>
     </g>
     <g id="text_11">
      <!-- 20 -->
      <g transform="translate(19.415313 223.639219)scale(0.1 -0.1)">
       <use xlink:href="#DejaVuSans-8722"/>
       <use x="83.789062" xlink:href="#DejaVuSans-50"/>
       <use x="147.412109" xlink:href="#DejaVuSans-48"/>
      </g>
     </g>
    </g>
    <g id="ytick_3">
     <g id="line2d_90">
      <g>
       <use style="stroke:#000000;stroke-width:0.8;" x="47.52" xlink:href="#m6bcdcd559b" y="180.48"/>
      </g>
     </g>
     <g id="text_12">
      <!-- 10 -->
      <g transform="translate(19.415313 184.279219)scale(0.1 -0.1)">
       <use xlink:href="#DejaVuSans-8722"/>
       <use x="83.789062" xlink:href="#DejaVuSans-49"/>
       <use x="147.412109" xlink:href="#DejaVuSans-48"/>
      </g>
     </g>
    </g>
    <g id="ytick_4">
     <g id="line2d_91">
      <g>
       <use style="stroke:#000000;stroke-width:0.8;" x="47.52" xlink:href="#m6bcdcd559b" y="141.12"/>
      </g>
     </g>
     <g id="text_13">
      <!-- 0 -->
      <g transform="translate(34.1575 144.919219)scale(0.1 -0.1)">
       <use xlink:href="#DejaVuSans-48"/>
      </g>
     </g>
    </g>
    <g id="ytick_5">
     <g id="line2d_92">
      <g>
       <use style="stroke:#000000;stroke-width:0.8;" x="47.52" xlink:href="#m6bcdcd559b" y="101.76"/>
      </g>
     </g>
     <g id="text_14">
      <!-- 10 -->
      <g transform="translate(27.795 105.559219)scale(0.1 -0.1)">
       <use xlink:href="#DejaVuSans-49"/>
       <use x="63.623047" xlink:href="#DejaVuSans-48"/>
      </g>
     </g>
    </g>
    <g id="ytick_6">
     <g id="line2d_93">
      <g>
       <use style="stroke:#000000;stroke-width:0.8;" x="47.52" xlink:href="#m6bcdcd559b" y="62.4"/>
      </g>
     </g>
     <g id="text_15">
      <!-- 20 -->
      <g transform="translate(27.795 66.199219)scale(0.1 -0.1)">
       <use xlink:href="#DejaVuSans-50"/>
       <use x="63.623047" xlink:href="#DejaVuSans-48"/>
      </g>
     </g>
    </g>
    <g id="ytick_7">
     <g id="line2d_94">
      <g>
       <use style="stroke:#000000;stroke-width:0.8;" x="47.52" xlink:href="#m6bcdcd559b" y="23.04"/>
      </g>
     </g>
     <g id="text_16">
      <!-- 30 -->
      <g transform="translate(27.795 26.839219)scale(0.1 -0.1)">
       <use xlink:href="#DejaVuSans-51"/>
       <use x="63.623047" xlink:href="#DejaVuSans-48"/>
      </g>
     </g>
    </g>
   </g>
   <g id="patch_3">
    <path d="M 47.52 259.2 
L 47.52 23.04 
" style="fill:none;stroke:#000000;stroke-linecap:square;stroke-linejoin:miter;stroke-width:0.8;"/>
   </g>
   <g id="patch_4">
    <path d="M 401.76 259.2 
L 401.76 23.04 
" style="fill:none;stroke:#000000;stroke-linecap:square;stroke-linejoin:miter;stroke-width:0.8;"/>
   </g>
   <g id="patch_5">
    <path d="M 47.52 259.2 
L 401.76 259.2 
" style="fill:none;stroke:#000000;stroke-linecap:square;stroke-linejoin:miter;stroke-width:0.8;"/>
   </g>
   <g id="patch_6">
    <path d="M 47.52 23.04 
L 401.76 23.04 
" style="fill:none;stroke:#000000;stroke-linecap:square;stroke-linejoin:miter;stroke-width:0.8;"/>
   </g>
   <g id="legend_1">
    <g id="patch_7">
     <path d="M 207.161563 46.118125 
L 394.76 46.118125 
Q 396.76 46.118125 396.76 44.118125 
L 396.76 30.04 
Q 396.76 28.04 394.76 28.04 
L 207.161563 28.04 
Q 205.161563 28.04 205.161563 30.04 
L 205.161563 44.118125 
Q 205.161563 46.118125 207.161563 46.118125 
z
" style="fill:#ffffff;opacity:0.8;stroke:#cccccc;stroke-linejoin:miter;"/>
    </g>
    <g id="PathCollection_13">
     <g>
      <use style="fill:#00ffff;stroke:#000000;" x="219.161563" xlink:href="#m6f5e697104" y="37.413438"/>
     </g>
    </g>
    <g id="text_17">
     <!-- pozycje wejciowe agenta EGO -->
     <g transform="translate(237.161563 40.038438)scale(0.1 -0.1)">
      <defs>
       <path d="M 18.109375 8.203125 
L 18.109375 -20.796875 
L 9.078125 -20.796875 
L 9.078125 54.6875 
L 18.109375 54.6875 
L 18.109375 46.390625 
Q 20.953125 51.265625 25.265625 53.625 
Q 29.59375 56 35.59375 56 
Q 45.5625 56 51.78125 48.09375 
Q 58.015625 40.1875 58.015625 27.296875 
Q 58.015625 14.40625 51.78125 6.484375 
Q 45.5625 -1.421875 35.59375 -1.421875 
Q 29.59375 -1.421875 25.265625 0.953125 
Q 20.953125 3.328125 18.109375 8.203125 
z
M 48.6875 27.296875 
Q 48.6875 37.203125 44.609375 42.84375 
Q 40.53125 48.484375 33.40625 48.484375 
Q 26.265625 48.484375 22.1875 42.84375 
Q 18.109375 37.203125 18.109375 27.296875 
Q 18.109375 17.390625 22.1875 11.75 
Q 26.265625 6.109375 33.40625 6.109375 
Q 40.53125 6.109375 44.609375 11.75 
Q 48.6875 17.390625 48.6875 27.296875 
z
" id="DejaVuSans-112"/>
       <path d="M 30.609375 48.390625 
Q 23.390625 48.390625 19.1875 42.75 
Q 14.984375 37.109375 14.984375 27.296875 
Q 14.984375 17.484375 19.15625 11.84375 
Q 23.34375 6.203125 30.609375 6.203125 
Q 37.796875 6.203125 41.984375 11.859375 
Q 46.1875 17.53125 46.1875 27.296875 
Q 46.1875 37.015625 41.984375 42.703125 
Q 37.796875 48.390625 30.609375 48.390625 
z
M 30.609375 56 
Q 42.328125 56 49.015625 48.375 
Q 55.71875 40.765625 55.71875 27.296875 
Q 55.71875 13.875 49.015625 6.21875 
Q 42.328125 -1.421875 30.609375 -1.421875 
Q 18.84375 -1.421875 12.171875 6.21875 
Q 5.515625 13.875 5.515625 27.296875 
Q 5.515625 40.765625 12.171875 48.375 
Q 18.84375 56 30.609375 56 
z
" id="DejaVuSans-111"/>
       <path d="M 5.515625 54.6875 
L 48.1875 54.6875 
L 48.1875 46.484375 
L 14.40625 7.171875 
L 48.1875 7.171875 
L 48.1875 0 
L 4.296875 0 
L 4.296875 8.203125 
L 38.09375 47.515625 
L 5.515625 47.515625 
z
" id="DejaVuSans-122"/>
       <path d="M 32.171875 -5.078125 
Q 28.375 -14.84375 24.75 -17.8125 
Q 21.140625 -20.796875 15.09375 -20.796875 
L 7.90625 -20.796875 
L 7.90625 -13.28125 
L 13.1875 -13.28125 
Q 16.890625 -13.28125 18.9375 -11.515625 
Q 21 -9.765625 23.484375 -3.21875 
L 25.09375 0.875 
L 2.984375 54.6875 
L 12.5 54.6875 
L 29.59375 11.921875 
L 46.6875 54.6875 
L 56.203125 54.6875 
z
" id="DejaVuSans-121"/>
       <path d="M 48.78125 52.59375 
L 48.78125 44.1875 
Q 44.96875 46.296875 41.140625 47.34375 
Q 37.3125 48.390625 33.40625 48.390625 
Q 24.65625 48.390625 19.8125 42.84375 
Q 14.984375 37.3125 14.984375 27.296875 
Q 14.984375 17.28125 19.8125 11.734375 
Q 24.65625 6.203125 33.40625 6.203125 
Q 37.3125 6.203125 41.140625 7.25 
Q 44.96875 8.296875 48.78125 10.40625 
L 48.78125 2.09375 
Q 45.015625 0.34375 40.984375 -0.53125 
Q 36.96875 -1.421875 32.421875 -1.421875 
Q 20.0625 -1.421875 12.78125 6.34375 
Q 5.515625 14.109375 5.515625 27.296875 
Q 5.515625 40.671875 12.859375 48.328125 
Q 20.21875 56 33.015625 56 
Q 37.15625 56 41.109375 55.140625 
Q 45.0625 54.296875 48.78125 52.59375 
z
" id="DejaVuSans-99"/>
       <path d="M 9.421875 54.6875 
L 18.40625 54.6875 
L 18.40625 -0.984375 
Q 18.40625 -11.421875 14.421875 -16.109375 
Q 10.453125 -20.796875 1.609375 -20.796875 
L -1.8125 -20.796875 
L -1.8125 -13.1875 
L 0.59375 -13.1875 
Q 5.71875 -13.1875 7.5625 -10.8125 
Q 9.421875 -8.453125 9.421875 -0.984375 
z
M 9.421875 75.984375 
L 18.40625 75.984375 
L 18.40625 64.59375 
L 9.421875 64.59375 
z
" id="DejaVuSans-106"/>
       <path d="M 56.203125 29.59375 
L 56.203125 25.203125 
L 14.890625 25.203125 
Q 15.484375 15.921875 20.484375 11.0625 
Q 25.484375 6.203125 34.421875 6.203125 
Q 39.59375 6.203125 44.453125 7.46875 
Q 49.3125 8.734375 54.109375 11.28125 
L 54.109375 2.78125 
Q 49.265625 0.734375 44.1875 -0.34375 
Q 39.109375 -1.421875 33.890625 -1.421875 
Q 20.796875 -1.421875 13.15625 6.1875 
Q 5.515625 13.8125 5.515625 26.8125 
Q 5.515625 40.234375 12.765625 48.109375 
Q 20.015625 56 32.328125 56 
Q 43.359375 56 49.78125 48.890625 
Q 56.203125 41.796875 56.203125 29.59375 
z
M 47.21875 32.234375 
Q 47.125 39.59375 43.09375 43.984375 
Q 39.0625 48.390625 32.421875 48.390625 
Q 24.90625 48.390625 20.390625 44.140625 
Q 15.875 39.890625 15.1875 32.171875 
z
" id="DejaVuSans-101"/>
       <path id="DejaVuSans-32"/>
       <path d="M 4.203125 54.6875 
L 13.1875 54.6875 
L 24.421875 12.015625 
L 35.59375 54.6875 
L 46.1875 54.6875 
L 57.421875 12.015625 
L 68.609375 54.6875 
L 77.59375 54.6875 
L 63.28125 0 
L 52.6875 0 
L 40.921875 44.828125 
L 29.109375 0 
L 18.5 0 
z
" id="DejaVuSans-119"/>
       <path d="M 35.03125 79.984375 
L 44.75 79.984375 
L 28.84375 61.625 
L 21.359375 61.625 
z
M 44.28125 53.078125 
L 44.28125 44.578125 
Q 40.484375 46.53125 36.375 47.5 
Q 32.28125 48.484375 27.875 48.484375 
Q 21.1875 48.484375 17.84375 46.4375 
Q 14.5 44.390625 14.5 40.28125 
Q 14.5 37.15625 16.890625 35.375 
Q 19.28125 33.59375 26.515625 31.984375 
L 29.59375 31.296875 
Q 39.15625 29.25 43.1875 25.515625 
Q 47.21875 21.78125 47.21875 15.09375 
Q 47.21875 7.46875 41.1875 3.015625 
Q 35.15625 -1.421875 24.609375 -1.421875 
Q 20.21875 -1.421875 15.453125 -0.5625 
Q 10.6875 0.296875 5.421875 2 
L 5.421875 11.28125 
Q 10.40625 8.6875 15.234375 7.390625 
Q 20.0625 6.109375 24.8125 6.109375 
Q 31.15625 6.109375 34.5625 8.28125 
Q 37.984375 10.453125 37.984375 14.40625 
Q 37.984375 18.0625 35.515625 20.015625 
Q 33.0625 21.96875 24.703125 23.78125 
L 21.578125 24.515625 
Q 13.234375 26.265625 9.515625 29.90625 
Q 5.8125 33.546875 5.8125 39.890625 
Q 5.8125 47.609375 11.28125 51.796875 
Q 16.75 56 26.8125 56 
Q 31.78125 56 36.171875 55.265625 
Q 40.578125 54.546875 44.28125 53.078125 
z
" id="DejaVuSans-347"/>
       <path d="M 9.421875 54.6875 
L 18.40625 54.6875 
L 18.40625 0 
L 9.421875 0 
z
M 9.421875 75.984375 
L 18.40625 75.984375 
L 18.40625 64.59375 
L 9.421875 64.59375 
z
" id="DejaVuSans-105"/>
       <path d="M 34.28125 27.484375 
Q 23.390625 27.484375 19.1875 25 
Q 14.984375 22.515625 14.984375 16.5 
Q 14.984375 11.71875 18.140625 8.90625 
Q 21.296875 6.109375 26.703125 6.109375 
Q 34.1875 6.109375 38.703125 11.40625 
Q 43.21875 16.703125 43.21875 25.484375 
L 43.21875 27.484375 
z
M 52.203125 31.203125 
L 52.203125 0 
L 43.21875 0 
L 43.21875 8.296875 
Q 40.140625 3.328125 35.546875 0.953125 
Q 30.953125 -1.421875 24.3125 -1.421875 
Q 15.921875 -1.421875 10.953125 3.296875 
Q 6 8.015625 6 15.921875 
Q 6 25.140625 12.171875 29.828125 
Q 18.359375 34.515625 30.609375 34.515625 
L 43.21875 34.515625 
L 43.21875 35.40625 
Q 43.21875 41.609375 39.140625 45 
Q 35.0625 48.390625 27.6875 48.390625 
Q 23 48.390625 18.546875 47.265625 
Q 14.109375 46.140625 10.015625 43.890625 
L 10.015625 52.203125 
Q 14.9375 54.109375 19.578125 55.046875 
Q 24.21875 56 28.609375 56 
Q 40.484375 56 46.34375 49.84375 
Q 52.203125 43.703125 52.203125 31.203125 
z
" id="DejaVuSans-97"/>
       <path d="M 45.40625 27.984375 
Q 45.40625 37.75 41.375 43.109375 
Q 37.359375 48.484375 30.078125 48.484375 
Q 22.859375 48.484375 18.828125 43.109375 
Q 14.796875 37.75 14.796875 27.984375 
Q 14.796875 18.265625 18.828125 12.890625 
Q 22.859375 7.515625 30.078125 7.515625 
Q 37.359375 7.515625 41.375 12.890625 
Q 45.40625 18.265625 45.40625 27.984375 
z
M 54.390625 6.78125 
Q 54.390625 -7.171875 48.1875 -13.984375 
Q 42 -20.796875 29.203125 -20.796875 
Q 24.46875 -20.796875 20.265625 -20.09375 
Q 16.0625 -19.390625 12.109375 -17.921875 
L 12.109375 -9.1875 
Q 16.0625 -11.328125 19.921875 -12.34375 
Q 23.78125 -13.375 27.78125 -13.375 
Q 36.625 -13.375 41.015625 -8.765625 
Q 45.40625 -4.15625 45.40625 5.171875 
L 45.40625 9.625 
Q 42.625 4.78125 38.28125 2.390625 
Q 33.9375 0 27.875 0 
Q 17.828125 0 11.671875 7.65625 
Q 5.515625 15.328125 5.515625 27.984375 
Q 5.515625 40.671875 11.671875 48.328125 
Q 17.828125 56 27.875 56 
Q 33.9375 56 38.28125 53.609375 
Q 42.625 51.21875 45.40625 46.390625 
L 45.40625 54.6875 
L 54.390625 54.6875 
z
" id="DejaVuSans-103"/>
       <path d="M 54.890625 33.015625 
L 54.890625 0 
L 45.90625 0 
L 45.90625 32.71875 
Q 45.90625 40.484375 42.875 44.328125 
Q 39.84375 48.1875 33.796875 48.1875 
Q 26.515625 48.1875 22.3125 43.546875 
Q 18.109375 38.921875 18.109375 30.90625 
L 18.109375 0 
L 9.078125 0 
L 9.078125 54.6875 
L 18.109375 54.6875 
L 18.109375 46.1875 
Q 21.34375 51.125 25.703125 53.5625 
Q 30.078125 56 35.796875 56 
Q 45.21875 56 50.046875 50.171875 
Q 54.890625 44.34375 54.890625 33.015625 
z
" id="DejaVuSans-110"/>
       <path d="M 18.3125 70.21875 
L 18.3125 54.6875 
L 36.8125 54.6875 
L 36.8125 47.703125 
L 18.3125 47.703125 
L 18.3125 18.015625 
Q 18.3125 11.328125 20.140625 9.421875 
Q 21.96875 7.515625 27.59375 7.515625 
L 36.8125 7.515625 
L 36.8125 0 
L 27.59375 0 
Q 17.1875 0 13.234375 3.875 
Q 9.28125 7.765625 9.28125 18.015625 
L 9.28125 47.703125 
L 2.6875 47.703125 
L 2.6875 54.6875 
L 9.28125 54.6875 
L 9.28125 70.21875 
z
" id="DejaVuSans-116"/>
       <path d="M 9.8125 72.90625 
L 55.90625 72.90625 
L 55.90625 64.59375 
L 19.671875 64.59375 
L 19.671875 43.015625 
L 54.390625 43.015625 
L 54.390625 34.71875 
L 19.671875 34.71875 
L 19.671875 8.296875 
L 56.78125 8.296875 
L 56.78125 0 
L 9.8125 0 
z
" id="DejaVuSans-69"/>
       <path d="M 59.515625 10.40625 
L 59.515625 29.984375 
L 43.40625 29.984375 
L 43.40625 38.09375 
L 69.28125 38.09375 
L 69.28125 6.78125 
Q 63.578125 2.734375 56.6875 0.65625 
Q 49.8125 -1.421875 42 -1.421875 
Q 24.90625 -1.421875 15.25 8.5625 
Q 5.609375 18.5625 5.609375 36.375 
Q 5.609375 54.25 15.25 64.234375 
Q 24.90625 74.21875 42 74.21875 
Q 49.125 74.21875 55.546875 72.453125 
Q 61.96875 70.703125 67.390625 67.28125 
L 67.390625 56.78125 
Q 61.921875 61.421875 55.765625 63.765625 
Q 49.609375 66.109375 42.828125 66.109375 
Q 29.4375 66.109375 22.71875 58.640625 
Q 16.015625 51.171875 16.015625 36.375 
Q 16.015625 21.625 22.71875 14.15625 
Q 29.4375 6.6875 42.828125 6.6875 
Q 48.046875 6.6875 52.140625 7.59375 
Q 56.25 8.5 59.515625 10.40625 
z
" id="DejaVuSans-71"/>
       <path d="M 39.40625 66.21875 
Q 28.65625 66.21875 22.328125 58.203125 
Q 16.015625 50.203125 16.015625 36.375 
Q 16.015625 22.609375 22.328125 14.59375 
Q 28.65625 6.59375 39.40625 6.59375 
Q 50.140625 6.59375 56.421875 14.59375 
Q 62.703125 22.609375 62.703125 36.375 
Q 62.703125 50.203125 56.421875 58.203125 
Q 50.140625 66.21875 39.40625 66.21875 
z
M 39.40625 74.21875 
Q 54.734375 74.21875 63.90625 63.9375 
Q 73.09375 53.65625 73.09375 36.375 
Q 73.09375 19.140625 63.90625 8.859375 
Q 54.734375 -1.421875 39.40625 -1.421875 
Q 24.03125 -1.421875 14.8125 8.828125 
Q 5.609375 19.09375 5.609375 36.375 
Q 5.609375 53.65625 14.8125 63.9375 
Q 24.03125 74.21875 39.40625 74.21875 
z
" id="DejaVuSans-79"/>
      </defs>
      <use xlink:href="#DejaVuSans-112"/>
      <use x="63.476562" xlink:href="#DejaVuSans-111"/>
      <use x="124.658203" xlink:href="#DejaVuSans-122"/>
      <use x="177.148438" xlink:href="#DejaVuSans-121"/>
      <use x="236.328125" xlink:href="#DejaVuSans-99"/>
      <use x="291.308594" xlink:href="#DejaVuSans-106"/>
      <use x="319.091797" xlink:href="#DejaVuSans-101"/>
      <use x="380.615234" xlink:href="#DejaVuSans-32"/>
      <use x="412.402344" xlink:href="#DejaVuSans-119"/>
      <use x="494.189453" xlink:href="#DejaVuSans-101"/>
      <use x="555.712891" xlink:href="#DejaVuSans-106"/>
      <use x="583.496094" xlink:href="#DejaVuSans-347"/>
      <use x="635.595703" xlink:href="#DejaVuSans-99"/>
      <use x="690.576172" xlink:href="#DejaVuSans-105"/>
      <use x="718.359375" xlink:href="#DejaVuSans-111"/>
      <use x="779.541016" xlink:href="#DejaVuSans-119"/>
      <use x="861.328125" xlink:href="#DejaVuSans-101"/>
      <use x="922.851562" xlink:href="#DejaVuSans-32"/>
      <use x="954.638672" xlink:href="#DejaVuSans-97"/>
      <use x="1015.917969" xlink:href="#DejaVuSans-103"/>
      <use x="1079.394531" xlink:href="#DejaVuSans-101"/>
      <use x="1140.917969" xlink:href="#DejaVuSans-110"/>
      <use x="1204.296875" xlink:href="#DejaVuSans-116"/>
      <use x="1243.505859" xlink:href="#DejaVuSans-97"/>
      <use x="1304.785156" xlink:href="#DejaVuSans-32"/>
      <use x="1336.572266" xlink:href="#DejaVuSans-69"/>
      <use x="1399.755859" xlink:href="#DejaVuSans-71"/>
      <use x="1477.246094" xlink:href="#DejaVuSans-79"/>
     </g>
    </g>
   </g>
  </g>
 </g>
 <defs>
  <clipPath id="ped3c390daa">
   <rect height="236.16" width="354.24" x="47.52" y="23.04"/>
  </clipPath>
 </defs>
</svg>
